# This file uses centimeters as units for non-parametric coordinates.

v 0.062112 0.000000 0.054641
v 0.058398 0.000000 -0.070442
v 0.058398 0.000000 0.012109
v 0.071283 0.000000 0.019048
v 0.000000 0.000000 0.070442
v 0.075025 0.000000 0.043106
v 0.032805 0.000000 0.066414
v 0.078182 0.000000 0.031255
v -0.062112 0.000000 0.054641
v -0.058398 0.000000 -0.070442
v -0.058398 0.000000 0.012109
v -0.071283 0.000000 0.019048
v -0.075025 0.000000 0.043106
v -0.032805 0.000000 0.066414
v -0.078182 0.000000 0.031255
v 0.058398 0.009468 -0.070442
v -0.058398 0.009468 -0.070442
v -0.058398 0.009468 0.012109
v -0.071283 0.009468 0.019048
v -0.078182 0.009468 0.031255
v -0.075025 0.009468 0.043106
v -0.062112 0.009468 0.054641
v -0.032805 0.009468 0.066414
v 0.000000 0.009468 0.070442
v 0.032805 0.009468 0.066414
v 0.062112 0.009468 0.054641
v 0.075025 0.009468 0.043106
v 0.078182 0.009468 0.031255
v 0.071283 0.009468 0.019048
v 0.058398 0.009468 0.012109
v 0.050398 0.009468 -0.062442
v -0.050398 0.009468 -0.062442
v -0.050398 0.009468 0.016886
v -0.065455 0.009468 0.024996
v -0.069612 0.009468 0.032350
v -0.067911 0.009468 0.038734
v -0.057829 0.009468 0.047740
v -0.030792 0.009468 0.058601
v 0.000000 0.009468 0.062382
v 0.030792 0.009468 0.058601
v 0.057829 0.009468 0.047740
v 0.067911 0.009468 0.038734
v 0.069612 0.009468 0.032350
v 0.065455 0.009468 0.024996
v 0.050398 0.009468 0.016886
v 0.050398 0.000000 0.016886
v 0.050398 0.000000 -0.062442
v 0.065455 0.000000 0.024996
v 0.069612 0.000000 0.032350
v 0.067911 0.000000 0.038734
v 0.057829 0.000000 0.047740
v 0.030792 0.000000 0.058601
v 0.000000 0.000000 0.062382
v -0.030792 0.000000 0.058601
v -0.057829 0.000000 0.047740
v -0.067911 0.000000 0.038734
v -0.069612 0.000000 0.032350
v -0.065455 0.000000 0.024996
v -0.050398 0.000000 0.016886
v -0.050398 0.000000 -0.062442
v 0.000000 0.000000 0.016886
v 0.000000 0.000000 -0.062442
v 0.000000 0.000000 -0.070442
v 0.000000 0.009468 0.016886
v 0.000000 0.009468 -0.062442
v 0.000000 0.009468 -0.070442
vt 0.871951 0.830404
vt 0.849547 0.081497
vt 0.849655 0.575754
vt 0.927644 0.618958
vt 0.500084 0.925089
vt 0.949250 0.761325
vt 0.696491 0.900931
vt 0.968137 0.690363
vt 0.150362 0.575905
vt 0.336452 0.088141
vt 0.303667 0.901017
vt 0.128177 0.830565
vt 0.050848 0.761520
vt 0.031929 0.690566
vt 0.073226 0.617473
vt 0.153523 0.085130
vt 0.842422 0.082518
vt 0.844269 0.569428
vt 0.917057 0.612565
vt 0.962027 0.682550
vt 0.952757 0.759268
vt 0.874372 0.831610
vt 0.696143 0.897086
vt 0.501300 0.926050
vt 0.306178 0.895258
vt 0.127321 0.832244
vt 0.052800 0.760631
vt 0.036407 0.686018
vt 0.077826 0.611625
vt 0.154453 0.570320
vt 0.200888 0.132138
vt 0.795414 0.129883
vt 0.797225 0.597825
vt 0.886674 0.645777
vt 0.911849 0.689550
vt 0.902498 0.727784
vt 0.844025 0.782629
vt 0.683983 0.850678
vt 0.501129 0.877724
vt 0.317856 0.849167
vt 0.152905 0.790531
vt 0.094389 0.734428
vt 0.085548 0.694152
vt 0.111216 0.648394
vt 0.201799 0.599068
vt 0.799369 0.132227
vt 0.799471 0.603584
vt 0.888950 0.651753
vt 0.913658 0.695441
vt 0.903560 0.733379
vt 0.843666 0.786905
vt 0.683033 0.851472
vt 0.500073 0.873976
vt 0.317105 0.851552
vt 0.156443 0.787054
vt 0.096526 0.733554
vt 0.086411 0.695621
vt 0.111101 0.651922
vt 0.200559 0.603714
vt 0.200457 0.132357
vt 0.500015 0.603649
vt 0.499912 0.132292
vt 0.335200 0.079075
vt 0.499926 0.598916
vt 0.498151 0.131011
vt 0.371636 0.079075
vt 0.497972 0.083824
vt 0.372611 0.088141
vt 0.499901 0.081573
vt 0.150255 0.081649
vt 0.423141 0.079075
vt 0.442492 0.087934
vt 0.454402 0.076717
vt 0.454749 0.087934
vt 0.466235 0.076717
vt 0.466491 0.087934
vt 0.476585 0.076717
vt 0.476763 0.087934
vt 0.491197 0.076717
vt 0.491264 0.087934
vt 0.517850 0.076717
vt 0.517715 0.087934
vt 0.545742 0.076717
vt 0.545394 0.087934
vt 0.573633 0.076717
vt 0.573074 0.087934
vt 0.600287 0.076717
vt 0.599525 0.087934
vt 0.614898 0.076717
vt 0.614026 0.087934
vt 0.625248 0.076717
vt 0.624298 0.087934
vt 0.637081 0.076717
vt 0.636040 0.087934
vt 0.649431 0.076717
vt 0.249178 0.088141
vt 0.298764 0.079075
vt 0.300293 0.088141
vt 0.247259 0.079075
vt 0.648297 0.087934
vt 0.442052 0.076717
vt 0.423725 0.088141
vn 0.000000 1.000000 -0.000000
vn 0.000000 1.000000 0.000000
vn 0.000000 1.000000 0.000000
vn 0.000000 1.000000 -0.000000
vn 0.000000 -1.000000 0.000000
vn 0.000000 -1.000000 0.000000
vn 0.000000 -1.000000 0.000000
vn 0.000000 -1.000000 0.000000
vn 0.000000 0.000000 -1.000000
vn 0.000000 0.000000 -1.000000
vn 0.000000 0.000000 -1.000000
vn 0.000000 0.000000 -1.000000
vn -1.000000 0.000000 0.000000
vn -1.000000 0.000000 0.000000
vn -1.000000 0.000000 0.000000
vn -1.000000 0.000000 0.000000
vn -0.474198 0.000000 -0.880418
vn -0.474198 0.000000 -0.880418
vn -0.474198 0.000000 -0.880418
vn -0.474198 0.000000 -0.880418
vn -0.870542 0.000000 -0.492095
vn -0.870542 0.000000 -0.492095
vn -0.870542 0.000000 -0.492095
vn -0.870542 0.000000 -0.492095
vn -0.966300 0.000000 0.257419
vn -0.966300 0.000000 0.257419
vn -0.966300 0.000000 0.257419
vn -0.966300 0.000000 0.257419
vn -0.666189 0.000000 0.745783
vn -0.483295 0.000000 0.875458
vn -0.483295 0.000000 0.875458
vn -0.666189 0.000000 0.745783
vn -0.246539 0.000000 0.969133
vn -0.246539 0.000000 0.969133
vn 0.000000 0.000000 1.000000
vn 0.000000 0.000000 1.000000
vn 0.246539 0.000000 0.969133
vn 0.246539 0.000000 0.969133
vn 0.483295 0.000000 0.875458
vn 0.483295 0.000000 0.875458
vn 0.666189 0.000000 0.745783
vn 0.666189 0.000000 0.745783
vn 0.966300 0.000000 0.257419
vn 0.966300 0.000000 0.257419
vn 0.966300 0.000000 0.257419
vn 0.966300 0.000000 0.257419
vn 0.870542 0.000000 -0.492095
vn 0.870542 0.000000 -0.492095
vn 0.870542 0.000000 -0.492095
vn 0.870542 0.000000 -0.492095
vn 0.474198 0.000000 -0.880418
vn 0.474198 0.000000 -0.880418
vn 0.474198 0.000000 -0.880418
vn 0.474198 0.000000 -0.880418
vn 1.000000 0.000000 0.000000
vn 1.000000 0.000000 0.000000
vn 1.000000 0.000000 0.000000
vn 1.000000 0.000000 0.000000
vn 0.000000 1.000000 0.000000
vn 0.000000 1.000000 0.000000
vn 0.000000 1.000000 0.000000
vn 0.000000 1.000000 0.000000
vn 0.000000 1.000000 -0.000000
vn 0.000000 1.000000 0.000000
vn 0.000000 1.000000 -0.000000
vn 0.000000 1.000000 0.000000
vn 0.000000 1.000000 -0.000000
vn 0.000000 1.000000 -0.000000
vn 0.000000 1.000000 -0.000000
vn 0.000000 1.000000 -0.000000
vn 0.000000 1.000000 -0.000000
vn 0.000000 1.000000 -0.000000
vn 0.000000 1.000000 -0.000000
vn 0.000000 1.000000 0.000000
vn 0.000000 1.000000 -0.000000
vn 0.000000 1.000000 -0.000000
vn 0.000000 1.000000 -0.000000
vn 0.000000 1.000000 -0.000000
vn 0.000000 1.000000 -0.000000
vn 0.000000 1.000000 0.000000
vn 0.000000 1.000000 0.000000
vn 0.000000 1.000000 0.000000
vn 0.000000 1.000000 0.000000
vn 0.000000 1.000000 0.000000
vn 0.000000 1.000000 -0.000000
vn 0.000000 1.000000 0.000000
vn 0.000000 1.000000 0.000000
vn 0.000000 -1.000000 0.000000
vn 0.000000 -1.000000 0.000000
vn 0.000000 -1.000000 0.000000
vn 0.000000 -1.000000 0.000000
vn 0.000000 -1.000000 0.000000
vn 0.000000 -1.000000 0.000000
vn 0.000000 -1.000000 0.000000
vn 0.000000 -1.000000 0.000000
vn 0.000000 -1.000000 0.000000
vn 0.000000 -1.000000 0.000000
vn 0.000000 -1.000000 0.000000
vn 0.000000 -1.000000 0.000000
vn 0.000000 -1.000000 0.000000
vn 0.000000 -1.000000 0.000000
vn 0.000000 -1.000000 0.000000
vn 0.000000 -1.000000 0.000000
vn 0.000000 -1.000000 0.000000
vn 0.000000 -1.000000 0.000000
vn 0.000000 -1.000000 0.000000
vn 0.000000 -1.000000 0.000000
vn 0.000000 -1.000000 0.000000
vn 0.000000 -1.000000 0.000000
vn 0.000000 -1.000000 0.000000
vn 0.000000 -1.000000 0.000000
vn 0.000000 -1.000000 0.000000
vn 0.000000 -1.000000 0.000000
vn 0.000000 -1.000000 0.000000
vn 0.000000 -1.000000 0.000000
vn 0.000000 -1.000000 0.000000
vn 0.000000 0.000000 -1.000000
vn 0.000000 0.000000 -1.000000
s 1
f 64/64/1 65/65/2 32/32/3 33/33/4
s 2
f 59/59/5 56/56/6 57/57/7 58/58/8
s 3
f 66/10/9 63/63/10 10/66/11 17/68/12
s off
f 10/66/13 11/71/14 18/102/15 17/68/16
f 11/101/17 12/73/18 19/74/19 18/72/20
f 12/73/21 15/75/22 20/76/23 19/74/24
f 15/75/25 13/77/26 21/78/27 20/76/28
s 4
f 13/77/29 9/79/30 22/80/31 21/78/32
f 9/79/30 14/81/33 23/82/34 22/80/31
f 14/81/33 5/83/35 24/84/36 23/82/34
f 5/83/35 7/85/37 25/86/38 24/84/36
f 7/85/37 1/87/39 26/88/40 25/86/38
f 1/87/39 6/89/41 27/90/42 26/88/40
s off
f 6/89/43 8/91/44 28/92/45 27/90/46
f 8/91/47 4/93/48 29/94/49 28/92/50
f 4/93/51 3/95/52 30/100/53 29/94/54
f 3/99/55 2/97/56 16/98/57 30/96/58
s 1
f 65/65/2 66/67/59 17/17/60 32/32/3
f 17/17/60 18/18/61 33/33/4 32/32/3
f 18/18/61 19/19/62 34/34/63 33/33/4
f 19/19/62 20/20/64 35/35/65 34/34/63
f 20/20/64 21/21/66 36/36/67 35/35/65
f 21/21/66 22/22/68 37/37/69 36/36/67
f 22/22/68 23/23/70 38/38/71 37/37/69
f 23/23/70 24/24/72 39/39/73 38/38/71
f 24/24/72 25/25/74 40/40/75 39/39/73
f 25/25/74 26/26/76 41/41/77 40/40/75
f 26/26/76 27/27/78 42/42/79 41/41/77
f 27/27/78 28/28/80 43/43/81 42/42/79
f 28/28/80 29/29/82 44/44/83 43/43/81
f 29/29/82 30/30/84 45/45/85 44/44/83
f 30/30/84 16/16/86 31/31/87 45/45/85
s 2
f 2/2/88 3/3/89 46/47/90 47/46/91
f 3/3/89 4/4/92 48/48/93 46/47/90
f 4/4/92 8/8/94 49/49/95 48/48/93
f 8/8/94 6/6/96 50/50/97 49/49/95
f 6/6/96 1/1/98 51/51/99 50/50/97
f 1/1/98 7/7/100 52/52/101 51/51/99
f 7/7/100 5/5/102 53/53/103 52/52/101
f 5/5/102 14/11/104 54/54/105 53/53/103
f 14/11/104 9/12/106 55/55/107 54/54/105
f 9/12/106 13/13/108 56/56/6 55/55/107
f 13/13/108 15/14/109 57/57/7 56/56/6
f 15/14/109 12/15/110 58/58/8 57/57/7
f 12/15/110 11/9/111 59/59/5 58/58/8
f 11/9/111 10/70/112 60/60/113 59/59/5
f 62/62/114 63/69/115 2/2/88 47/46/91
s 1
f 39/39/73 64/64/1 33/33/4 38/38/71
s 2
f 47/46/91 46/47/90 61/61/116 62/62/114
f 59/59/5 54/54/105 55/55/107 56/56/6
f 50/50/97 46/47/90 48/48/93 49/49/95
f 53/53/103 61/61/116 46/47/90 52/52/101
f 52/52/101 46/47/90 50/50/97 51/51/99
f 59/59/5 61/61/116 53/53/103 54/54/105
f 62/62/114 61/61/116 59/59/5 60/60/113
f 10/70/112 63/69/115 62/62/114 60/60/113
s 1
f 45/45/85 64/64/1 39/39/73 40/40/75
f 31/31/87 65/65/2 64/64/1 45/45/85
f 16/16/86 66/67/59 65/65/2 31/31/87
s 3
f 2/97/117 63/63/10 66/10/9 16/98/118
s 1
f 36/36/67 33/33/4 34/34/63 35/35/65
f 38/38/71 33/33/4 36/36/67 37/37/69
f 45/45/85 40/40/75 41/41/77 42/42/79
f 45/45/85 42/42/79 43/43/81 44/44/83
