# This file uses centimeters as units for non-parametric coordinates.

v -0.076616 0.000660 0.052439
v -0.114655 -0.000443 0.005289
v -0.073689 0.004852 0.049978
v -0.048563 0.002327 0.029768
v -0.111728 0.003746 0.002829
v -0.086601 0.001225 -0.017382
v -0.057550 0.003544 0.050039
v -0.039566 0.003105 0.023161
v -0.107890 0.004803 0.016340
v -0.089906 0.004364 -0.010542
v -0.105666 0.009613 0.013197
v -0.068142 0.008701 -0.042887
v -0.055326 0.008354 0.046896
v -0.017803 0.007442 -0.009188
v 0.007834 -0.000233 -0.037188
v -0.047796 0.014065 -0.056479
v -0.078882 0.009819 0.030020
v -0.056561 0.010754 -0.033659
v -0.023252 -0.004478 0.049311
v -0.000929 -0.003544 -0.014368
v 0.008336 0.003155 -0.036123
v -0.047296 0.017452 -0.055414
v -0.075765 0.016258 0.025805
v -0.020133 0.001961 0.045095
v 0.032338 -0.004879 -0.023924
v -0.013893 0.013878 -0.058306
v -0.064839 0.015442 0.011049
v -0.018608 -0.003315 0.045435
v 0.033137 0.001179 -0.021692
v -0.013095 0.019936 -0.056074
v -0.060270 0.021385 0.008146
v -0.014038 0.002628 0.042532
v 0.029988 -0.000175 -0.039267
v -0.023717 0.021938 -0.056532
v -0.048501 0.020878 0.019209
v 0.005205 -0.001232 0.036474
v 0.031546 0.005123 -0.037325
v -0.022161 0.027237 -0.054586
v -0.045161 0.026253 0.015703
v 0.008545 0.004143 0.032969
v 0.049297 -0.004330 -0.035147
v 0.002655 0.020050 -0.065172
v -0.035663 0.024471 -0.002058
v 0.010980 0.000095 0.027967
v 0.050605 0.001591 -0.032373
v 0.003963 0.025967 -0.062399
v -0.030740 0.029976 -0.005239
v 0.015903 0.005596 0.024786
v 0.056015 -0.000004 -0.040388
v 0.002196 0.025620 -0.051210
v -0.013291 0.020580 0.013777
v 0.040529 -0.005039 0.024607
v 0.057825 0.005325 -0.036707
v 0.003994 0.030933 -0.047552
v -0.009755 0.026485 0.010134
v 0.044066 0.000858 0.020979
v 0.076939 -0.009918 -0.014635
v 0.034468 0.019020 -0.046751
v 0.002787 0.027550 0.002890
v 0.045254 -0.001400 0.034975
v 0.078594 -0.003437 -0.010969
v 0.036124 0.025509 -0.043070
v 0.008987 0.032806 -0.000578
v 0.051459 0.003868 0.031530
v 0.090937 -0.007431 0.003466
v 0.053650 0.019775 -0.035807
v 0.020222 0.028133 0.001738
v 0.057493 0.000919 0.040991
v 0.091118 -0.001003 0.007750
v 0.053825 0.026203 -0.031507
v 0.026434 0.033066 -0.000765
v 0.063706 0.005844 0.038511
v 0.096442 -0.006386 0.013450
v 0.081116 0.004920 -0.044094
v 0.054913 0.024066 -0.033341
v 0.070216 0.012756 0.024185
v 0.095891 0.006858 0.016155
v 0.080561 0.018173 -0.041321
v 0.067204 0.027946 -0.035866
v 0.082524 0.016628 0.021637
vt 0.070106 0.092248
vt 0.119110 0.092248
vt 0.119110 0.910936
vt 0.070106 0.910936
vt 0.774397 0.819463
vt 0.785777 0.861061
vt 0.547335 0.725059
vt 0.195730 0.111787
vt 0.232475 0.136540
vt 0.249702 0.388572
vt 0.621117 0.906826
vt 0.621117 0.094694
vt 0.933027 0.094694
vt 0.933027 0.906826
vt 0.069201 0.090678
vt 0.934718 0.090678
vt 0.934718 0.909322
vt 0.069202 0.909322
vt 0.119110 0.910936
vt 0.119110 0.092248
vt 0.172346 0.092248
vt 0.172346 0.910936
vt 0.288296 0.577309
vt 0.762033 0.774272
vt 0.774397 0.819463
vt 0.547335 0.725059
vt 0.249702 0.388572
vt 0.232475 0.136540
vt 0.272393 0.163431
vt 0.308336 0.689265
vt 0.282265 0.906826
vt 0.282265 0.094694
vt 0.621117 0.094694
vt 0.621117 0.906826
vt 0.072520 0.455943
vt 0.937388 0.455943
vt 0.937388 0.890782
vt 0.072520 0.890782
vt 0.762033 0.774272
vt 0.282265 0.094694
vt 0.308336 0.689265
vt 0.172346 0.910936
vt 0.069181 0.094694
vt 0.282265 0.094694
vt 0.282265 0.906826
vt 0.069181 0.906826
vt 0.172346 0.910936
vt 0.172346 0.092248
vt 0.244099 0.092248
vt 0.244099 0.910936
vt 0.929827 0.144697
vt 0.074374 0.144697
vt 0.074374 0.091550
vt 0.929827 0.091550
vt 0.141165 0.462156
vt 0.745370 0.713363
vt 0.762033 0.774272
vt 0.288296 0.577309
vt 0.125403 0.484398
vt 0.308336 0.689265
vt 0.272393 0.163431
vt 0.326196 0.199675
vt 0.372037 0.870325
vt 0.345207 0.878353
vt 0.934848 0.090004
vt 0.934848 0.917401
vt 0.214297 0.917401
vt 0.214297 0.090004
vt 0.935682 0.089709
vt 0.935682 0.913799
vt 0.066653 0.913799
vt 0.066653 0.089709
vt 0.236793 0.851423
vt 0.091567 0.151983
vt 0.296136 0.151761
vt 0.296136 0.851423
vt 0.464670 0.888385
vt 0.464670 0.140896
vt 0.544923 0.140896
vt 0.544923 0.888385
vt 0.803643 0.517103
vt 0.161079 0.249949
vt 0.142558 0.182252
vt 0.836485 0.470761
vt 0.307737 0.130900
vt 0.357262 0.855434
vt 0.301011 0.817541
vt 0.255152 0.146635
vt 0.928507 0.913086
vt 0.074167 0.913086
vt 0.074167 0.092508
vt 0.928507 0.092508
vt 0.884827 0.809517
vt 0.175597 0.809517
vt 0.175597 0.270325
vt 0.884827 0.270325
vt 0.313537 0.910936
vt 0.313537 0.092248
vt 0.376031 0.092248
vt 0.376031 0.910936
vt 0.929827 0.327892
vt 0.074374 0.327892
vt 0.074374 0.241116
vt 0.929827 0.241116
vt 0.195497 0.385491
vt 0.714731 0.601370
vt 0.729244 0.654419
vt 0.169761 0.421806
vt 0.420711 0.855760
vt 0.378263 0.234749
vt 0.425123 0.266316
vt 0.464517 0.842652
vt 0.083247 0.892465
vt 0.083247 0.105283
vt 0.921650 0.105283
vt 0.921650 0.892465
vt 0.916753 0.892634
vt 0.088144 0.892634
vt 0.088144 0.117525
vt 0.916753 0.117525
vt 0.376031 0.910936
vt 0.376031 0.092248
vt 0.445468 0.092248
vt 0.445468 0.910936
vt 0.929827 0.327892
vt 0.929827 0.410426
vt 0.074374 0.410426
vt 0.074374 0.327892
vt 0.195497 0.385491
vt 0.228361 0.346915
vt 0.698605 0.542426
vt 0.714731 0.601370
vt 0.464517 0.842652
vt 0.425123 0.266316
vt 0.477189 0.301391
vt 0.512867 0.823349
vt 0.187319 0.718506
vt 0.187319 0.279923
vt 0.722712 0.279923
vt 0.722712 0.718506
vt 0.854993 0.804132
vt 0.168718 0.804132
vt 0.168718 0.183381
vt 0.854993 0.183381
vt 0.445468 0.910936
vt 0.445468 0.092248
vt 0.512591 0.092248
vt 0.512591 0.910936
vt 0.887451 0.469873
vt 0.116750 0.469873
vt 0.116750 0.413525
vt 0.887451 0.413525
vt 0.683017 0.485447
vt 0.698605 0.542426
vt 0.228361 0.346915
vt 0.265430 0.311829
vt 0.512867 0.823349
vt 0.477189 0.301391
vt 0.527521 0.335296
vt 0.559203 0.798806
vt 0.192850 0.765369
vt 0.192850 0.204360
vt 0.813077 0.204360
vt 0.813077 0.765369
vt 0.784033 0.755966
vt 0.239964 0.755966
vt 0.239964 0.201787
vt 0.784033 0.201787
vt 0.512591 0.910936
vt 0.512591 0.092248
vt 0.588973 0.092248
vt 0.588973 0.910936
vt 0.929827 0.544143
vt 0.074374 0.544143
vt 0.074374 0.472972
vt 0.929827 0.472971
vt 0.665278 0.420608
vt 0.683017 0.485447
vt 0.265430 0.311829
vt 0.307612 0.271903
vt 0.559203 0.798806
vt 0.527521 0.335296
vt 0.584794 0.373879
vt 0.611930 0.770878
vt 0.171228 0.834881
vt 0.171228 0.165119
vt 0.828772 0.165119
vt 0.828771 0.834881
vt 0.588973 0.910936
vt 0.588973 0.092248
vt 0.660725 0.092248
vt 0.660726 0.910936
vt 0.929827 0.544143
vt 0.929827 0.616491
vt 0.074374 0.616491
vt 0.074374 0.544143
vt 0.307612 0.271903
vt 0.355568 0.237861
vt 0.648615 0.359700
vt 0.665278 0.420608
vt 0.611930 0.770878
vt 0.584794 0.373879
vt 0.638597 0.410122
vt 0.660830 0.735397
vt 0.207611 0.847265
vt 0.207611 0.152735
vt 0.791627 0.152735
vt 0.791627 0.847265
vt 0.550235 0.745039
vt 0.185492 0.745039
vt 0.185491 0.215627
vt 0.550235 0.215627
vt 0.395563 0.212698
vt 0.486887 0.165343
vt 0.609376 0.216269
vt 0.635714 0.312544
vt 0.620807 0.134858
vt 0.620807 0.870668
vt 0.461371 0.870668
vt 0.461371 0.134858
vt 0.942329 0.611885
vt 0.942329 0.732361
vt 0.086876 0.732361
vt 0.086876 0.611885
vt 0.680251 0.438182
vt 0.765293 0.495471
vt 0.774585 0.631430
vt 0.698470 0.704743
vt 0.289691 0.800517
vt 0.289691 0.130754
vt 0.667839 0.130754
vt 0.667839 0.800517
vt 0.353528 0.851393
vt 0.151145 0.851393
vt 0.151145 0.148607
vt 0.353528 0.148607
vn -0.582736 0.673788 0.454344
vn -0.582736 0.673788 0.454344
vn -0.582736 0.673788 0.454344
vn -0.582736 0.673788 0.454344
vn 0.627774 0.018438 0.778177
vn 0.627774 0.018438 0.778177
vn 0.627774 0.018438 0.778177
vn -0.627773 -0.018459 -0.778178
vn -0.627773 -0.018459 -0.778177
vn -0.627773 -0.018459 -0.778178
vn 0.047351 -0.998768 -0.014848
vn 0.047351 -0.998768 -0.014848
vn 0.047351 -0.998768 -0.014848
vn 0.047351 -0.998768 -0.014848
vn 0.049322 0.996785 -0.063138
vn 0.049322 0.996785 -0.063138
vn 0.049322 0.996785 -0.063138
vn 0.049322 0.996785 -0.063138
vn -0.423598 0.624574 0.656104
vn -0.423598 0.624574 0.656104
vn -0.423598 0.624574 0.656104
vn -0.423598 0.624574 0.656104
vn 0.830797 -0.020511 0.556198
vn 0.830797 -0.020511 0.556198
vn 0.830797 -0.020511 0.556198
vn 0.830797 -0.020511 0.556198
vn -0.830795 0.020870 -0.556186
vn -0.830795 0.020870 -0.556186
vn -0.830796 0.020870 -0.556186
vn -0.830795 0.020870 -0.556186
vn 0.044366 -0.993651 -0.103387
vn 0.044366 -0.993651 -0.103387
vn 0.044366 -0.993651 -0.103387
vn 0.044366 -0.993651 -0.103387
vn -0.024809 -0.999692 -0.000284
vn -0.024809 -0.999692 -0.000284
vn -0.024809 -0.999692 -0.000284
vn -0.024809 -0.999692 -0.000284
vn 0.024780 0.999693 0.000328
vn 0.024780 0.999693 0.000328
vn 0.024780 0.999693 0.000328
vn 0.024780 0.999693 0.000328
vn -0.175548 -0.962447 -0.207072
vn -0.175548 -0.962447 -0.207072
vn -0.175548 -0.962447 -0.207072
vn -0.175548 -0.962447 -0.207072
vn -0.127102 0.585612 0.800564
vn -0.127102 0.585612 0.800564
vn -0.127102 0.585612 0.800564
vn -0.127102 0.585612 0.800564
vn 0.370789 0.228006 -0.900294
vn 0.370789 0.228006 -0.900294
vn 0.370789 0.228006 -0.900294
vn 0.370789 0.228006 -0.900294
vn 0.918109 -0.236056 0.318360
vn 0.918109 -0.236056 0.318360
vn 0.918109 -0.236056 0.318360
vn 0.918109 -0.236056 0.318360
vn 0.918109 -0.236056 0.318360
vn -0.918124 0.235990 -0.318366
vn -0.918124 0.235990 -0.318366
vn -0.918124 0.235990 -0.318366
vn -0.918124 0.235990 -0.318366
vn -0.918124 0.235990 -0.318366
vn -0.218248 -0.971663 -0.090766
vn -0.218248 -0.971663 -0.090766
vn -0.218248 -0.971663 -0.090766
vn -0.218248 -0.971663 -0.090766
vn 0.218240 0.971663 0.090783
vn 0.218240 0.971663 0.090783
vn 0.218240 0.971663 0.090783
vn 0.218240 0.971663 0.090783
vn -0.307748 0.598067 0.740005
vn -0.307748 0.598067 0.740005
vn -0.307748 0.598067 0.740005
vn -0.307748 0.598067 0.740005
vn 0.634629 0.192087 -0.748564
vn 0.634629 0.192087 -0.748564
vn 0.634629 0.192087 -0.748564
vn 0.634629 0.192087 -0.748564
vn 0.762994 -0.309614 0.567432
vn 0.762994 -0.309614 0.567432
vn 0.762994 -0.309614 0.567432
vn 0.762994 -0.309614 0.567432
vn -0.763010 0.309498 -0.567474
vn -0.763010 0.309498 -0.567474
vn -0.763010 0.309498 -0.567474
vn -0.763010 0.309498 -0.567474
vn -0.259756 -0.950706 -0.169365
vn -0.259756 -0.950706 -0.169365
vn -0.259756 -0.950706 -0.169365
vn -0.259756 -0.950706 -0.169365
vn 0.259761 0.950707 0.169352
vn 0.259761 0.950707 0.169352
vn 0.259761 0.950707 0.169352
vn 0.259761 0.950707 0.169352
vn -0.034879 0.561086 0.827022
vn -0.034879 0.561086 0.827022
vn -0.034879 0.561086 0.827022
vn -0.034879 0.561086 0.827022
vn 0.379015 0.218482 -0.899229
vn 0.379015 0.218482 -0.899229
vn 0.379015 0.218482 -0.899229
vn 0.379015 0.218482 -0.899229
vn 0.886366 -0.364920 0.284937
vn 0.886366 -0.364920 0.284937
vn 0.886366 -0.364920 0.284937
vn 0.886366 -0.364920 0.284937
vn -0.886360 0.364941 -0.284929
vn -0.886360 0.364941 -0.284929
vn -0.886360 0.364941 -0.284929
vn -0.886360 0.364941 -0.284929
vn -0.343023 -0.930939 -0.125254
vn -0.343023 -0.930939 -0.125254
vn -0.343023 -0.930939 -0.125254
vn -0.343023 -0.930939 -0.125254
vn 0.343024 0.930938 0.125253
vn 0.343024 0.930938 0.125253
vn 0.343024 0.930938 0.125253
vn 0.343024 0.930938 0.125253
vn -0.179959 0.608051 0.773233
vn -0.179959 0.608051 0.773233
vn -0.179959 0.608051 0.773233
vn -0.179959 0.608051 0.773233
vn 0.607399 0.223076 -0.762432
vn 0.607399 0.223076 -0.762432
vn 0.607399 0.223076 -0.762432
vn 0.607399 0.223076 -0.762432
vn 0.769821 -0.402232 0.495565
vn 0.769821 -0.402232 0.495565
vn 0.769821 -0.402233 0.495565
vn 0.769821 -0.402232 0.495565
vn -0.769821 0.402233 -0.495565
vn -0.769821 0.402233 -0.495565
vn -0.769821 0.402233 -0.495565
vn -0.769821 0.402233 -0.495565
vn -0.372929 -0.913539 -0.162389
vn -0.372929 -0.913539 -0.162389
vn -0.372929 -0.913539 -0.162389
vn -0.372929 -0.913539 -0.162389
vn 0.372940 0.913538 0.162371
vn 0.372940 0.913538 0.162371
vn 0.372940 0.913538 0.162371
vn 0.372940 0.913538 0.162371
vn 0.061927 0.496324 0.865926
vn 0.061927 0.496324 0.865926
vn 0.061927 0.496324 0.865926
vn 0.061927 0.496324 0.865926
vn 0.372983 0.437729 -0.818094
vn 0.372983 0.437729 -0.818094
vn 0.372983 0.437729 -0.818094
vn 0.372983 0.437729 -0.818094
vn 0.887936 -0.423775 0.178841
vn 0.887936 -0.423775 0.178841
vn 0.887936 -0.423775 0.178841
vn 0.887936 -0.423775 0.178841
vn -0.888436 0.422636 -0.179056
vn -0.888436 0.422636 -0.179056
vn -0.888436 0.422636 -0.179056
vn -0.888436 0.422636 -0.179056
vn -0.396801 -0.903036 -0.164546
vn -0.396801 -0.903036 -0.164546
vn -0.396801 -0.903036 -0.164546
vn -0.396801 -0.903036 -0.164546
vn 0.396701 0.903112 0.164369
vn 0.396701 0.903112 0.164369
vn 0.396701 0.903112 0.164369
vn 0.396701 0.903112 0.164369
vn -0.128600 0.645843 0.752562
vn -0.128600 0.645843 0.752562
vn -0.128600 0.645843 0.752562
vn -0.128600 0.645843 0.752562
vn 0.679833 0.222282 -0.698869
vn 0.679833 0.222282 -0.698869
vn 0.679833 0.222282 -0.698869
vn 0.679833 0.222282 -0.698869
vn 0.700414 -0.478600 0.529491
vn 0.700415 -0.478600 0.529491
vn 0.700414 -0.478600 0.529491
vn 0.700414 -0.478601 0.529491
vn -0.700629 0.478327 -0.529455
vn -0.700629 0.478327 -0.529455
vn -0.700629 0.478327 -0.529455
vn -0.700629 0.478327 -0.529455
vn -0.474353 -0.866767 -0.153966
vn -0.474352 -0.866767 -0.153966
vn -0.474353 -0.866767 -0.153966
vn -0.474352 -0.866767 -0.153966
vn 0.474311 0.866793 0.153947
vn 0.474311 0.866793 0.153947
vn 0.474311 0.866793 0.153947
vn 0.474311 0.866793 0.153947
vn -0.249603 0.668648 0.700435
vn -0.249603 0.668648 0.700435
vn -0.249603 0.668648 0.700435
vn -0.249603 0.668648 0.700435
vn 0.787939 0.326640 -0.521977
vn 0.787939 0.326640 -0.521977
vn 0.787938 0.326640 -0.521976
vn 0.787939 0.326640 -0.521977
vn 0.614936 -0.449362 0.648018
vn 0.614936 -0.449362 0.648018
vn 0.614936 -0.449362 0.648018
vn 0.614936 -0.449362 0.648018
vn -0.615429 0.448554 -0.648110
vn -0.615429 0.448554 -0.648110
vn -0.615429 0.448554 -0.648110
vn -0.615429 0.448554 -0.648110
vn -0.437003 -0.878336 -0.193788
vn -0.437003 -0.878336 -0.193788
vn -0.437003 -0.878336 -0.193788
vn -0.437003 -0.878336 -0.193788
vn 0.437107 0.878305 0.193696
vn 0.437107 0.878305 0.193696
vn 0.437107 0.878305 0.193696
vn 0.437107 0.878305 0.193696
vn 0.254747 -0.183654 0.949408
vn 0.254747 -0.183654 0.949408
vn 0.254747 -0.183654 0.949408
vn 0.254747 -0.183654 0.949408
vn -0.243907 0.937207 0.249303
vn -0.243907 0.937208 0.249303
vn -0.243907 0.937208 0.249303
vn -0.243907 0.937207 0.249303
vn 0.966614 0.089959 -0.239926
vn 0.966614 0.089959 -0.239926
vn 0.966614 0.089959 -0.239926
vn 0.966614 0.089959 -0.239926
vn -0.252501 0.186714 -0.949411
vn -0.252501 0.186714 -0.949411
vn -0.252501 0.186714 -0.949411
vn -0.252501 0.186714 -0.949411
vn -0.590182 -0.807269 -0.001582
vn -0.590182 -0.807269 -0.001582
vn -0.590182 -0.807269 -0.001582
vn -0.590182 -0.807269 -0.001582
vn 0.590657 0.806922 0.001388
vn 0.590656 0.806922 0.001388
vn 0.590656 0.806922 0.001388
vn 0.590657 0.806922 0.001388
s off
f 1/1/1 3/2/2 5/3/3 2/4/4
f 3/5/5 1/6/6 4/7/7
f 2/8/8 5/9/9 6/10/10
f 6/11/11 4/12/12 1/13/13 2/14/14
f 3/15/15 4/16/16 6/17/17 5/18/18
f 9/19/19 7/20/20 13/21/21 11/22/22
f 14/23/23 13/24/24 7/25/25 8/26/26
f 10/27/27 9/28/28 11/29/29 12/30/30
f 12/31/31 14/32/32 8/33/33 10/34/34
f 7/35/35 9/36/36 10/37/37 8/38/38
f 13/39/39 14/40/40 12/41/41 11/42/42
f 15/43/43 20/44/44 18/45/45 16/46/46
f 17/47/47 19/48/48 24/49/49 23/50/50
f 22/51/51 21/52/52 15/53/53 16/54/54
f 21/55/55 24/56/56 19/57/57 20/58/58 15/59/59
f 18/60/60 17/61/61 23/62/62 22/63/63 16/64/64
f 19/65/65 17/66/66 18/67/67 20/68/68
f 22/69/69 23/70/70 24/71/71 21/72/72
f 27/73/73 28/74/74 32/75/75 31/76/76
f 30/77/77 29/78/78 25/79/79 26/80/80
f 29/81/81 32/82/82 28/83/83 25/84/84
f 26/85/85 27/86/86 31/87/87 30/88/88
f 26/89/89 25/90/90 28/91/91 27/92/92
f 30/93/93 31/94/94 32/95/95 29/96/96
f 35/97/97 36/98/98 40/99/99 39/100/100
f 38/101/101 37/102/102 33/103/103 34/104/104
f 37/105/105 40/106/106 36/107/107 33/108/108
f 34/109/109 35/110/110 39/111/111 38/112/112
f 34/113/113 33/114/114 36/115/115 35/116/116
f 38/117/117 39/118/118 40/119/119 37/120/120
f 43/121/121 44/122/122 48/123/123 47/124/124
f 42/125/125 46/126/126 45/127/127 41/128/128
f 41/129/129 45/130/130 48/131/131 44/132/132
f 42/133/133 43/134/134 47/135/135 46/136/136
f 42/137/137 41/138/138 44/139/139 43/140/140
f 46/141/141 47/142/142 48/143/143 45/144/144
f 51/145/145 52/146/146 56/147/147 55/148/148
f 54/149/149 53/150/150 49/151/151 50/152/152
f 56/153/153 52/154/154 49/155/155 53/156/156
f 50/157/157 51/158/158 55/159/159 54/160/160
f 50/161/161 49/162/162 52/163/163 51/164/164
f 54/165/165 55/166/166 56/167/167 53/168/168
f 59/169/169 60/170/170 64/171/171 63/172/172
f 62/173/173 61/174/174 57/175/175 58/176/176
f 64/177/177 60/178/178 57/179/179 61/180/180
f 58/181/181 59/182/182 63/183/183 62/184/184
f 58/185/185 57/186/186 60/187/187 59/188/188
f 62/184/189 63/172/190 64/177/191 61/174/192
f 67/189/193 68/190/194 72/191/195 71/192/196
f 66/193/197 70/194/198 69/195/199 65/196/200
f 65/197/201 69/198/202 72/199/203 68/200/204
f 66/201/205 67/202/206 71/203/207 70/204/208
f 66/205/209 65/206/210 68/207/211 67/208/212
f 70/209/213 71/210/214 72/211/215 69/212/216
f 73/213/217 77/214/218 80/215/219 76/216/220
f 75/217/221 76/218/222 80/219/223 79/220/224
f 74/221/225 78/222/226 77/223/227 73/224/228
f 75/225/229 79/226/230 78/227/231 74/228/232
f 74/229/233 73/230/234 76/231/235 75/232/236
f 78/233/237 79/234/238 80/235/239 77/236/240
