# This file uses centimeters as units for non-parametric coordinates.

v 0.074690 0.000000 0.011953
v 0.068807 0.000000 -0.006747
v 0.059389 0.000000 -0.023940
v 0.046797 0.000000 -0.038965
v 0.031517 0.000000 -0.051245
v 0.074690 0.060592 0.011953
v 0.068807 0.060592 -0.006747
v 0.059389 0.060592 -0.023940
v 0.046797 0.060592 -0.038965
v 0.031517 0.060592 -0.051245
v -0.023182 0.000000 0.032469
v -0.023182 0.060592 0.032469
vt 0.933951 0.092248
vt 0.445958 0.180993
vt 0.319813 0.260355
vt 0.211575 0.362803
vt 0.125403 0.484398
vt 0.843471 0.548135
vt 0.745897 0.666119
vt 0.627181 0.762800
vt 0.491885 0.834462
vt 0.069181 0.906826
vt 0.070106 0.092248
vt 0.933027 0.906826
vt 0.785777 0.861061
vt 0.933027 0.094694
vt 0.195730 0.111787
vt 0.070106 0.910936
vt 0.929827 0.091550
vt 0.933951 0.910936
vt 0.069181 0.094694
vt 0.074374 0.908969
vt 0.929827 0.382105
vt 0.345207 0.878353
vt 0.929827 0.564729
vt 0.929827 0.747353
vt 0.929827 0.908969
vt 0.074374 0.382105
vt 0.074374 0.091550
vt 0.074374 0.564729
vt 0.074374 0.747353
vt 0.585163 0.127765
vn 0.953906 0.000000 -0.300106
vn 0.919896 0.000000 -0.392163
vn 0.919896 0.000000 -0.392163
vn 0.953906 0.000000 -0.300106
vn 0.825712 0.000000 -0.564093
vn 0.825712 0.000000 -0.564093
vn 0.699797 0.000000 -0.714342
vn 0.699797 0.000000 -0.714342
vn 0.626409 0.000000 -0.779495
vn 0.626409 0.000000 -0.779495
vn 0.000000 -1.000000 0.000000
vn 0.000000 -1.000000 0.000000
vn 0.000000 -1.000000 0.000000
vn 0.000000 -1.000000 0.000000
vn 0.000000 -1.000000 0.000000
vn 0.000000 -1.000000 0.000000
vn 0.000000 1.000000 0.000000
vn 0.000000 1.000000 0.000000
vn 0.000000 1.000000 0.000000
vn 0.000000 1.000000 0.000000
vn 0.000000 1.000000 0.000000
vn 0.000000 1.000000 0.000000
vn -0.837139 0.000000 -0.546990
vn -0.837139 0.000000 -0.546990
vn -0.837139 0.000000 -0.546990
vn -0.837139 0.000000 -0.546990
vn 0.205166 0.000000 0.978727
vn 0.205166 0.000000 0.978727
vn 0.205166 0.000000 0.978727
vn 0.205166 0.000000 0.978727
s 1
f 1/20/1 2/29/2 7/24/3 6/25/4
f 2/29/2 3/28/5 8/23/6 7/24/3
f 3/28/5 4/26/7 9/21/8 8/23/6
f 4/26/7 5/27/9 10/17/10 9/21/8
s 2
f 2/2/11 1/30/12 11/13/13
f 3/3/14 2/2/11 11/13/13
f 4/4/15 3/3/14 11/13/13
f 5/5/16 4/4/15 11/13/13
s 3
f 6/6/17 7/7/18 12/15/19
f 7/7/18 8/8/20 12/15/19
f 8/8/20 9/9/21 12/15/19
f 9/9/21 10/22/22 12/15/19
s off
f 5/19/23 11/14/24 12/12/25 10/10/26
f 11/11/27 1/1/28 6/18/29 12/16/30
