# This file uses centimeters as units for non-parametric coordinates.

v 0.017773 0.000343 0.046337
v -0.001204 0.000343 -0.011211
v -0.073604 -0.001213 0.011620
v -0.054626 -0.001213 0.069160
v 0.016809 0.006855 0.045578
v -0.003903 0.009151 -0.011314
v -0.069536 0.005024 0.011353
v -0.048823 0.002731 0.068249
v -0.013299 -0.005543 -0.085640
v -0.072236 -0.004166 -0.071648
v -0.053741 0.001980 0.005634
v 0.005196 0.000603 -0.008362
v -0.012975 0.000248 -0.084846
v -0.071912 0.001625 -0.070854
v -0.054749 0.007328 0.000870
v 0.004189 0.005955 -0.013123
v 0.023774 -0.000301 0.067924
v 0.081648 -0.002243 0.050079
v 0.059907 -0.000782 -0.020603
v 0.002034 0.001163 -0.002766
v 0.023405 0.006081 0.066032
v 0.081278 0.004135 0.048187
v 0.061589 0.005463 -0.015827
v 0.003716 0.007408 0.002010
v 0.072880 -0.002853 -0.050205
v 0.031493 0.000202 -0.094360
v -0.017317 0.001652 -0.048500
v 0.024071 -0.001404 -0.004349
v 0.071200 0.003330 -0.048203
v 0.029812 0.006386 -0.092354
v -0.013533 0.007675 -0.051628
v 0.027855 0.004616 -0.007481
vt 0.544923 0.140896
vt 0.074167 0.913086
vt 0.307737 0.130900
vt 0.928507 0.913086
vt 0.236793 0.851423
vt 0.928507 0.092508
vt 0.091567 0.151983
vt 0.142558 0.182252
vt 0.884827 0.270325
vt 0.803643 0.517103
vt 0.255152 0.146635
vt 0.464670 0.888385
vt 0.296136 0.851423
vt 0.301011 0.817541
vt 0.296136 0.151761
vt 0.175597 0.270325
vt 0.161079 0.249949
vt 0.175597 0.809517
vt 0.464670 0.140896
vt 0.884827 0.809517
vt 0.357262 0.855434
vt 0.544923 0.888385
vt 0.836485 0.470761
vt 0.074167 0.092508
vt 0.313537 0.910936
vt 0.313537 0.092248
vt 0.376031 0.092248
vt 0.376031 0.910936
vt 0.929827 0.327892
vt 0.074374 0.327892
vt 0.074374 0.241116
vt 0.929827 0.241116
vt 0.195497 0.385491
vt 0.714731 0.601370
vt 0.729244 0.654419
vt 0.169761 0.421806
vt 0.420711 0.855760
vt 0.378263 0.234749
vt 0.425123 0.266316
vt 0.464517 0.842652
vt 0.083247 0.892465
vt 0.083247 0.105283
vt 0.921650 0.105283
vt 0.921650 0.892465
vt 0.916753 0.892634
vt 0.088144 0.892634
vt 0.088144 0.117525
vt 0.916753 0.117525
vt 0.376031 0.910936
vt 0.376031 0.092248
vt 0.445468 0.092248
vt 0.445468 0.910936
vt 0.929827 0.327892
vt 0.929827 0.410426
vt 0.074374 0.410426
vt 0.074374 0.327892
vt 0.195497 0.385491
vt 0.228361 0.346915
vt 0.698605 0.542426
vt 0.714731 0.601370
vt 0.464517 0.842652
vt 0.425123 0.266316
vt 0.477189 0.301391
vt 0.512867 0.823349
vt 0.187319 0.718506
vt 0.187319 0.279923
vt 0.722712 0.279923
vt 0.722712 0.718506
vt 0.854993 0.804132
vt 0.168718 0.804132
vt 0.168718 0.183381
vt 0.854993 0.183381
vt 0.445468 0.910936
vt 0.445468 0.092248
vt 0.512591 0.092248
vt 0.512591 0.910936
vt 0.887451 0.469873
vt 0.116750 0.469873
vt 0.116750 0.413525
vt 0.887451 0.413525
vt 0.683017 0.485447
vt 0.698605 0.542426
vt 0.228361 0.346915
vt 0.265430 0.311829
vt 0.512867 0.823349
vt 0.477189 0.301391
vt 0.527521 0.335296
vt 0.559203 0.798806
vt 0.192850 0.765369
vt 0.192850 0.204360
vt 0.813077 0.204360
vt 0.813077 0.765369
vt 0.784033 0.755966
vt 0.239964 0.755966
vt 0.239964 0.201787
vt 0.784033 0.201787
vn -0.680597 0.688741 0.249848
vn -0.680597 0.688741 0.249848
vn -0.680597 0.688741 0.249848
vn -0.680597 0.688741 0.249848
vn 0.926266 0.203570 -0.317160
vn 0.926266 0.203570 -0.317160
vn 0.926266 0.203570 -0.317160
vn 0.926266 0.203570 -0.317160
vn 0.312759 0.007005 0.949807
vn 0.312759 0.007005 0.949807
vn 0.312759 0.007005 0.949807
vn 0.312759 0.007005 0.949807
vn -0.313237 0.005136 -0.949661
vn -0.313237 0.005136 -0.949661
vn -0.313237 0.005136 -0.949661
vn -0.313237 0.005136 -0.949661
vn 0.019469 -0.999790 -0.006420
vn 0.019469 -0.999790 -0.006420
vn 0.019469 -0.999790 -0.006420
vn 0.019469 -0.999790 -0.006420
vn -0.043355 0.997488 0.056012
vn -0.043355 0.997488 0.056012
vn -0.043355 0.997488 0.056012
vn -0.043355 0.997488 0.056012
vn 0.185774 0.672613 0.716296
vn 0.185774 0.672613 0.716296
vn 0.185774 0.672613 0.716296
vn 0.185774 0.672613 0.716296
vn -0.225361 0.144637 -0.963479
vn -0.225361 0.144637 -0.963479
vn -0.225361 0.144637 -0.963479
vn -0.225361 0.144637 -0.963479
vn 0.972696 -0.022630 -0.230977
vn 0.972696 -0.022630 -0.230977
vn 0.972696 -0.022630 -0.230977
vn 0.972696 -0.022630 -0.230977
vn -0.972697 0.022714 0.230965
vn -0.972697 0.022714 0.230965
vn -0.972697 0.022714 0.230965
vn -0.972697 0.022714 0.230965
vn -0.004229 -0.996764 0.080277
vn -0.004229 -0.996764 0.080277
vn -0.004229 -0.996764 0.080277
vn -0.004229 -0.996764 0.080277
vn 0.004197 0.996763 -0.080286
vn 0.004197 0.996763 -0.080286
vn 0.004197 0.996763 -0.080286
vn 0.004197 0.996763 -0.080286
vn -0.209591 0.629010 -0.748610
vn -0.209591 0.629010 -0.748610
vn -0.209591 0.629010 -0.748610
vn -0.209591 0.629010 -0.748610
vn 0.291024 0.287471 0.912505
vn 0.291024 0.287471 0.912505
vn 0.291024 0.287471 0.912505
vn 0.291024 0.287471 0.912505
vn -0.955142 0.032096 0.294404
vn -0.955142 0.032096 0.294404
vn -0.955142 0.032096 0.294404
vn -0.955142 0.032096 0.294404
vn 0.955134 -0.032026 -0.294439
vn 0.955134 -0.032026 -0.294439
vn 0.955134 -0.032026 -0.294439
vn 0.955134 -0.032026 -0.294439
vn -0.036477 -0.999290 -0.009463
vn -0.036477 -0.999290 -0.009463
vn -0.036477 -0.999290 -0.009463
vn -0.036477 -0.999290 -0.009463
vn 0.036519 0.999288 0.009491
vn 0.036519 0.999288 0.009491
vn 0.036519 0.999288 0.009491
vn 0.036519 0.999288 0.009491
vn -0.544327 0.629998 0.553905
vn -0.544327 0.629998 0.553905
vn -0.544327 0.629998 0.553905
vn -0.544327 0.629998 0.553905
vn 0.686142 0.386292 -0.616431
vn 0.686142 0.386292 -0.616431
vn 0.686142 0.386292 -0.616431
vn 0.686142 0.386292 -0.616431
vn 0.683049 -0.050390 0.728633
vn 0.683049 -0.050390 0.728633
vn 0.683049 -0.050390 0.728633
vn 0.683049 -0.050390 0.728633
vn -0.683062 0.050728 -0.728596
vn -0.683062 0.050728 -0.728596
vn -0.683062 0.050728 -0.728596
vn -0.683062 0.050728 -0.728596
vn -0.050288 -0.998493 -0.021962
vn -0.050288 -0.998493 -0.021962
vn -0.050288 -0.998493 -0.021962
vn -0.050288 -0.998493 -0.021962
vn 0.050312 0.998492 0.021983
vn 0.050312 0.998492 0.021983
vn 0.050312 0.998492 0.021983
vn 0.050312 0.998492 0.021983
s off
f 3/5/1 4/7/2 8/15/3 7/13/4
f 6/12/5 5/19/6 1/1/7 2/22/8
f 5/10/9 8/17/10 4/8/11 1/23/12
f 2/3/13 3/21/14 7/14/15 6/11/16
f 2/4/17 1/2/18 4/24/19 3/6/20
f 6/20/21 7/18/22 8/16/23 5/9/24
f 11/25/25 12/26/26 16/27/27 15/28/28
f 14/29/29 13/30/30 9/31/31 10/32/32
f 13/33/33 16/34/34 12/35/35 9/36/36
f 10/37/37 11/38/38 15/39/39 14/40/40
f 10/41/41 9/42/42 12/43/43 11/44/44
f 14/45/45 15/46/46 16/47/47 13/48/48
f 19/49/49 20/50/50 24/51/51 23/52/52
f 18/53/53 22/54/54 21/55/55 17/56/56
f 17/57/57 21/58/58 24/59/59 20/60/60
f 18/61/61 19/62/62 23/63/63 22/64/64
f 18/65/65 17/66/66 20/67/67 19/68/68
f 22/69/69 23/70/70 24/71/71 21/72/72
f 27/73/73 28/74/74 32/75/75 31/76/76
f 30/77/77 29/78/78 25/79/79 26/80/80
f 32/81/81 28/82/82 25/83/83 29/84/84
f 26/85/85 27/86/86 31/87/87 30/88/88
f 26/89/89 25/90/90 28/91/91 27/92/92
f 30/93/93 31/94/94 32/95/95 29/96/96
