# This file uses centimeters as units for non-parametric coordinates.

v 0.035598 0.032640 0.010835
v 0.035890 0.037577 0.005392
v 0.036209 0.039617 -0.000546
v 0.036537 0.038200 -0.006671
v 0.036825 0.034000 -0.012035
v 0.037017 0.027661 -0.015616
v 0.037072 0.020415 -0.016638
v 0.036939 0.014506 -0.014161
v 0.036642 0.011759 -0.008628
v 0.036226 0.010921 -0.000878
v 0.035784 0.012016 0.007378
v 0.035443 0.015580 0.013734
v 0.035293 0.020900 0.016523
v 0.035369 0.026792 0.015108
v -0.026388 0.035266 0.011739
v -0.026034 0.040950 0.005151
v -0.025645 0.043424 -0.002101
v -0.025244 0.041692 -0.009587
v -0.024892 0.036560 -0.016141
v -0.024658 0.028813 -0.020518
v -0.024589 0.020089 -0.021791
v -0.024750 0.013054 -0.018799
v -0.025112 0.009768 -0.012049
v -0.025619 0.008817 -0.002592
v -0.026160 0.010222 0.007486
v -0.026578 0.014403 0.015285
v -0.026760 0.021017 0.018672
v -0.026666 0.028338 0.016921
v 0.029427 0.037248 0.016585
v 0.029873 0.044791 0.008269
v 0.030360 0.047909 -0.000802
v 0.030862 0.045744 -0.010161
v 0.031301 0.039327 -0.018356
v 0.031595 0.029642 -0.023827
v 0.031676 0.018252 -0.025331
v 0.031471 0.009071 -0.021519
v 0.031018 0.004864 -0.013062
v 0.030385 0.003824 -0.001266
v 0.029709 0.005580 0.011333
v 0.029185 0.010674 0.021109
v 0.028958 0.018961 0.025340
v 0.029074 0.027993 0.023173
v 0.017465 0.039917 0.020128
v 0.017995 0.048878 0.010248
v 0.018573 0.052582 -0.000529
v 0.019169 0.050010 -0.011648
v 0.019691 0.042387 -0.021384
v 0.020040 0.030881 -0.027884
v 0.020135 0.017217 -0.029646
v 0.019887 0.005871 -0.025037
v 0.019347 0.000682 -0.014956
v 0.018596 -0.000408 -0.000967
v 0.017794 0.001678 0.014001
v 0.017169 0.007597 0.025639
v 0.016901 0.017559 0.030645
v 0.017043 0.028670 0.028001
v 0.004225 0.040741 0.021657
v 0.004773 0.050010 0.011437
v 0.005371 0.053842 0.000289
v 0.005988 0.051181 -0.011213
v 0.006528 0.043296 -0.021283
v 0.006889 0.031393 -0.028007
v 0.006986 0.017260 -0.029829
v 0.006729 0.005354 -0.025031
v 0.006170 0.000014 -0.014607
v 0.005394 -0.001084 -0.000143
v 0.004564 0.001074 0.015340
v 0.003918 0.007169 0.027384
v 0.003640 0.017437 0.032568
v 0.003788 0.029048 0.029811
v -0.009131 0.040218 0.020740
v -0.008605 0.049125 0.010920
v -0.008030 0.052807 0.000207
v -0.007437 0.050250 -0.010845
v -0.006918 0.042673 -0.020522
v -0.006572 0.031236 -0.026983
v -0.006478 0.017655 -0.028735
v -0.006724 0.006382 -0.024154
v -0.007261 0.001244 -0.014137
v -0.008007 0.000156 -0.000232
v -0.008805 0.002230 0.014646
v -0.009425 0.008117 0.026213
v -0.009692 0.017968 0.031198
v -0.009551 0.029027 0.028567
v -0.020386 0.037747 0.015889
v -0.019934 0.045391 0.007461
v -0.019441 0.048551 -0.001733
v -0.018932 0.046357 -0.011218
v -0.018487 0.039854 -0.019524
v -0.018190 0.030038 -0.025069
v -0.018108 0.018529 -0.026599
v -0.018316 0.009135 -0.022720
v -0.018775 0.004871 -0.014149
v -0.019416 0.003827 -0.002195
v -0.020101 0.005607 0.010575
v -0.020633 0.010761 0.020484
v -0.020863 0.019141 0.024775
v -0.020744 0.028435 0.022553
v -0.028408 0.024431 -0.002162
v 0.037731 0.023599 -0.000305
vt 0.482740 0.961462
vt 0.482834 0.961462
vt 0.482928 0.961462
vt 0.483021 0.961462
vt 0.483115 0.961462
vt 0.483209 0.961462
vt 0.483303 0.961462
vt 0.483397 0.961462
vt 0.483491 0.961462
vt 0.483585 0.961462
vt 0.483679 0.961462
vt 0.483773 0.961462
vt 0.483867 0.961462
vt 0.483961 0.961462
vt 0.484055 0.961462
vt 0.482740 0.963440
vt 0.482834 0.963440
vt 0.482928 0.963440
vt 0.483021 0.963440
vt 0.483115 0.963440
vt 0.483209 0.963440
vt 0.483303 0.963440
vt 0.483397 0.963440
vt 0.483491 0.963440
vt 0.483585 0.963440
vt 0.483679 0.963440
vt 0.483773 0.963440
vt 0.483867 0.963440
vt 0.483961 0.963440
vt 0.484055 0.963440
vt 0.484055 0.961792
vt 0.482740 0.961792
vt 0.482834 0.961792
vt 0.482928 0.961792
vt 0.483021 0.961792
vt 0.483115 0.961792
vt 0.483209 0.961792
vt 0.483303 0.961792
vt 0.483397 0.961792
vt 0.483491 0.961792
vt 0.483585 0.961792
vt 0.483679 0.961792
vt 0.483773 0.961792
vt 0.483867 0.961792
vt 0.483961 0.961792
vt 0.484055 0.962121
vt 0.482740 0.962121
vt 0.482834 0.962121
vt 0.482928 0.962121
vt 0.483021 0.962121
vt 0.483115 0.962121
vt 0.483209 0.962121
vt 0.483303 0.962121
vt 0.483397 0.962121
vt 0.483491 0.962121
vt 0.483585 0.962121
vt 0.483679 0.962121
vt 0.483773 0.962121
vt 0.483867 0.962121
vt 0.483961 0.962121
vt 0.484055 0.962451
vt 0.482740 0.962451
vt 0.482834 0.962451
vt 0.482928 0.962451
vt 0.483021 0.962451
vt 0.483115 0.962451
vt 0.483209 0.962451
vt 0.483303 0.962451
vt 0.483397 0.962451
vt 0.483491 0.962451
vt 0.483585 0.962451
vt 0.483679 0.962451
vt 0.483773 0.962451
vt 0.483867 0.962451
vt 0.483961 0.962451
vt 0.484055 0.962781
vt 0.482740 0.962781
vt 0.482834 0.962781
vt 0.482928 0.962781
vt 0.483021 0.962781
vt 0.483115 0.962781
vt 0.483209 0.962781
vt 0.483303 0.962781
vt 0.483397 0.962781
vt 0.483491 0.962781
vt 0.483585 0.962781
vt 0.483679 0.962781
vt 0.483773 0.962781
vt 0.483867 0.962781
vt 0.483961 0.962781
vt 0.484055 0.963110
vt 0.482740 0.963110
vt 0.482834 0.963110
vt 0.482928 0.963110
vt 0.483021 0.963110
vt 0.483115 0.963110
vt 0.483209 0.963110
vt 0.483303 0.963110
vt 0.483397 0.963110
vt 0.483491 0.963110
vt 0.483585 0.963110
vt 0.483679 0.963110
vt 0.483773 0.963110
vt 0.483867 0.963110
vt 0.483961 0.963110
vt 0.483162 0.963440
vt 0.483162 0.961462
vn -0.485847 0.595429 0.639857
vn -0.476437 0.764581 0.434079
vn -0.853383 0.464744 0.236115
vn -0.859937 0.368119 0.353549
vn -0.445820 0.895054 0.011103
vn -0.847007 0.531308 -0.017061
vn -0.389676 0.814663 -0.429508
vn -0.837409 0.471297 -0.276811
vn -0.346532 0.592458 -0.727261
vn -0.827816 0.340260 -0.446031
vn -0.324076 0.289026 -0.900799
vn -0.825929 0.168486 -0.538009
vn -0.333179 -0.104072 -0.937102
vn -0.826935 -0.050819 -0.559997
vn -0.379195 -0.605478 -0.699720
vn -0.835541 -0.349231 -0.424157
vn -0.409610 -0.875605 -0.255999
vn -0.834686 -0.521414 -0.177275
vn -0.424088 -0.905621 0.000261
vn -0.835336 -0.548889 -0.030587
vn -0.462295 -0.856756 0.228588
vn -0.847479 -0.519190 0.110553
vn -0.542186 -0.629443 0.556629
vn -0.878860 -0.369151 0.302215
vn -0.576902 -0.100230 0.810641
vn -0.890762 -0.047475 0.451984
vn -0.518873 0.378952 0.766268
vn -0.868846 0.243396 0.431120
vn 0.872630 0.302715 0.383250
vn 0.877153 0.384696 0.287422
vn 0.513233 0.721216 0.465230
vn 0.504180 0.560084 0.657350
vn 0.895365 0.439361 0.072685
vn 0.534053 0.842941 0.065104
vn 0.908713 0.391576 -0.144598
vn 0.539197 0.765159 -0.351849
vn 0.914885 0.284331 -0.286602
vn 0.537309 0.556527 -0.633700
vn 0.920710 0.141016 -0.363879
vn 0.541006 0.270398 -0.796365
vn 0.924985 -0.041948 -0.377680
vn 0.553041 -0.096096 -0.827594
vn 0.917876 -0.295720 -0.264677
vn 0.558529 -0.565363 -0.606968
vn 0.887376 -0.456482 -0.064709
vn 0.524479 -0.829123 -0.193589
vn 0.872381 -0.485309 0.058533
vn 0.502836 -0.862963 0.049520
vn 0.870345 -0.458019 0.180881
vn 0.511895 -0.814930 0.271758
vn 0.884169 -0.319284 0.341032
vn 0.550512 -0.591977 0.588643
vn 0.886291 -0.044627 0.460973
vn 0.555677 -0.089864 0.826527
vn 0.873106 0.201857 0.443780
vn 0.515739 0.359806 0.777530
vn 0.226463 0.827420 0.513897
vn 0.227011 0.637673 0.736098
vn 0.219993 0.973914 0.055633
vn 0.198611 0.883099 -0.425075
vn 0.179213 0.639091 -0.747960
vn 0.168340 0.307636 -0.936494
vn 0.170186 -0.115419 -0.978629
vn 0.184147 -0.655494 -0.732406
vn 0.186158 -0.951698 -0.244165
vn 0.186796 -0.981552 0.040779
vn 0.203632 -0.934362 0.292406
vn 0.244162 -0.696674 0.674559
vn 0.262334 -0.113476 0.958282
vn 0.237909 0.406300 0.882224
vn 0.021122 0.850744 0.525155
vn 0.024467 0.657468 0.753085
vn 0.010357 0.998304 0.057281
vn -0.004369 0.900476 -0.434884
vn -0.017023 0.649132 -0.760485
vn -0.027414 0.312525 -0.949514
vn -0.035115 -0.114162 -0.992841
vn -0.036367 -0.665104 -0.745865
vn -0.027041 -0.967671 -0.250761
vn -0.019734 -0.999159 0.035938
vn -0.012527 -0.956236 0.292327
vn 0.000801 -0.718956 0.695055
vn 0.016806 -0.113053 0.993447
vn 0.024101 0.420570 0.906940
vn -0.224094 0.833164 0.505588
vn -0.235110 0.646033 0.726199
vn -0.200609 0.978301 0.051806
vn -0.164180 0.887362 -0.430854
vn -0.136489 0.643081 -0.753537
vn -0.122889 0.311490 -0.942270
vn -0.129550 -0.113204 -0.985090
vn -0.160312 -0.658656 -0.735168
vn -0.179758 -0.951303 -0.250420
vn -0.191082 -0.981182 0.027758
vn -0.218161 -0.934642 0.280801
vn -0.268521 -0.695090 0.666893
vn -0.286368 -0.108705 0.951933
vn -0.253838 0.411975 0.875125
vn -0.998524 -0.006184 -0.053968
vn 0.998556 -0.004912 0.053490
s 1
f 85/92/1 86/93/2 16/17/3 15/16/4
f 86/93/2 87/94/5 17/18/6 16/17/3
f 87/94/5 88/95/7 18/19/8 17/18/6
f 88/95/7 89/96/9 19/20/10 18/19/8
f 89/96/9 90/97/11 20/21/12 19/20/10
f 90/97/11 91/98/13 21/22/14 20/21/12
f 91/98/13 92/99/15 22/23/16 21/22/14
f 92/99/15 93/100/17 23/24/18 22/23/16
f 93/100/17 94/101/19 24/25/20 23/24/18
f 94/101/19 95/102/21 25/26/22 24/25/20
f 95/102/21 96/103/23 26/27/24 25/26/22
f 96/103/23 97/104/25 27/28/26 26/27/24
f 97/104/25 98/105/27 28/29/28 27/28/26
f 98/105/27 85/91/1 15/30/4 28/29/28
f 1/1/29 2/2/30 30/33/31 29/32/32
f 2/2/30 3/3/33 31/34/34 30/33/31
f 3/3/33 4/4/35 32/35/36 31/34/34
f 4/4/35 5/5/37 33/36/38 32/35/36
f 5/5/37 6/6/39 34/37/40 33/36/38
f 6/6/39 7/7/41 35/38/42 34/37/40
f 7/7/41 8/8/43 36/39/44 35/38/42
f 8/8/43 9/9/45 37/40/46 36/39/44
f 9/9/45 10/10/47 38/41/48 37/40/46
f 10/10/47 11/11/49 39/42/50 38/41/48
f 11/11/49 12/12/51 40/43/52 39/42/50
f 12/12/51 13/13/53 41/44/54 40/43/52
f 13/13/53 14/14/55 42/45/56 41/44/54
f 14/14/55 1/15/29 29/31/32 42/45/56
f 29/32/32 30/33/31 44/48/57 43/47/58
f 30/33/31 31/34/34 45/49/59 44/48/57
f 31/34/34 32/35/36 46/50/60 45/49/59
f 32/35/36 33/36/38 47/51/61 46/50/60
f 33/36/38 34/37/40 48/52/62 47/51/61
f 34/37/40 35/38/42 49/53/63 48/52/62
f 35/38/42 36/39/44 50/54/64 49/53/63
f 36/39/44 37/40/46 51/55/65 50/54/64
f 37/40/46 38/41/48 52/56/66 51/55/65
f 38/41/48 39/42/50 53/57/67 52/56/66
f 39/42/50 40/43/52 54/58/68 53/57/67
f 40/43/52 41/44/54 55/59/69 54/58/68
f 41/44/54 42/45/56 56/60/70 55/59/69
f 42/45/56 29/31/32 43/46/58 56/60/70
f 43/47/58 44/48/57 58/63/71 57/62/72
f 44/48/57 45/49/59 59/64/73 58/63/71
f 45/49/59 46/50/60 60/65/74 59/64/73
f 46/50/60 47/51/61 61/66/75 60/65/74
f 47/51/61 48/52/62 62/67/76 61/66/75
f 48/52/62 49/53/63 63/68/77 62/67/76
f 49/53/63 50/54/64 64/69/78 63/68/77
f 50/54/64 51/55/65 65/70/79 64/69/78
f 51/55/65 52/56/66 66/71/80 65/70/79
f 52/56/66 53/57/67 67/72/81 66/71/80
f 53/57/67 54/58/68 68/73/82 67/72/81
f 54/58/68 55/59/69 69/74/83 68/73/82
f 55/59/69 56/60/70 70/75/84 69/74/83
f 56/60/70 43/46/58 57/61/72 70/75/84
f 57/62/72 58/63/71 72/78/85 71/77/86
f 58/63/71 59/64/73 73/79/87 72/78/85
f 59/64/73 60/65/74 74/80/88 73/79/87
f 60/65/74 61/66/75 75/81/89 74/80/88
f 61/66/75 62/67/76 76/82/90 75/81/89
f 62/67/76 63/68/77 77/83/91 76/82/90
f 63/68/77 64/69/78 78/84/92 77/83/91
f 64/69/78 65/70/79 79/85/93 78/84/92
f 65/70/79 66/71/80 80/86/94 79/85/93
f 66/71/80 67/72/81 81/87/95 80/86/94
f 67/72/81 68/73/82 82/88/96 81/87/95
f 68/73/82 69/74/83 83/89/97 82/88/96
f 69/74/83 70/75/84 84/90/98 83/89/97
f 70/75/84 57/61/72 71/76/86 84/90/98
f 71/77/86 72/78/85 86/93/2 85/92/1
f 72/78/85 73/79/87 87/94/5 86/93/2
f 73/79/87 74/80/88 88/95/7 87/94/5
f 74/80/88 75/81/89 89/96/9 88/95/7
f 75/81/89 76/82/90 90/97/11 89/96/9
f 76/82/90 77/83/91 91/98/13 90/97/11
f 77/83/91 78/84/92 92/99/15 91/98/13
f 78/84/92 79/85/93 93/100/17 92/99/15
f 79/85/93 80/86/94 94/101/19 93/100/17
f 80/86/94 81/87/95 95/102/21 94/101/19
f 81/87/95 82/88/96 96/103/23 95/102/21
f 82/88/96 83/89/97 97/104/25 96/103/23
f 83/89/97 84/90/98 98/105/27 97/104/25
f 84/90/98 71/76/86 85/91/1 98/105/27
f 24/25/20 99/106/99 23/24/18
f 16/17/3 17/18/6 99/106/99
f 99/106/99 17/18/6 18/19/8
f 99/106/99 18/19/8 19/20/10
f 99/106/99 19/20/10 20/21/12
f 99/106/99 20/21/12 21/22/14
f 99/106/99 21/22/14 22/23/16
f 99/106/99 22/23/16 23/24/18
f 25/26/22 99/106/99 24/25/20
f 26/27/24 99/106/99 25/26/22
f 27/28/26 99/106/99 26/27/24
f 28/29/28 99/106/99 27/28/26
f 15/16/4 99/106/99 28/29/28
f 16/17/3 99/106/99 15/16/4
f 8/8/43 100/107/100 9/9/45
f 2/2/30 1/15/29 100/107/100
f 100/107/100 1/15/29 14/14/55
f 100/107/100 14/14/55 13/13/53
f 100/107/100 13/13/53 12/12/51
f 100/107/100 12/12/51 11/11/49
f 100/107/100 11/11/49 10/10/47
f 100/107/100 10/10/47 9/9/45
f 7/7/41 100/107/100 8/8/43
f 6/6/39 100/107/100 7/7/41
f 5/5/37 100/107/100 6/6/39
f 4/4/35 100/107/100 5/5/37
f 3/3/33 100/107/100 4/4/35
f 2/2/30 100/107/100 3/3/33
