# This file uses centimeters as units for non-parametric coordinates.

v 0.853592 0.738297 0.000000
v 0.853588 0.738297 0.409119
v 0.830643 0.794464 0.000000
v 0.830639 0.794464 0.409119
v 0.464539 0.644905 0.000000
v 0.464539 0.644905 0.409119
v 0.487484 0.588734 0.000000
v 0.487484 0.588734 0.409119
v 0.801941 0.782745 0.030998
v 0.801937 0.782745 0.378113
v 0.493237 0.656631 0.378117
v 0.493237 0.656631 0.031002
v 0.818237 0.742851 0.030998
v 0.818233 0.742851 0.378113
v 0.509533 0.616737 0.378117
v 0.509533 0.616737 0.031002
vt 0.375000 0.000000
vt 0.625000 0.000000
vt 0.375000 0.250000
vt 0.625000 0.250000
vt 0.375000 0.500000
vt 0.625000 0.500000
vt 0.375000 0.750000
vt 0.625000 0.750000
vt 0.375000 1.000000
vt 0.625000 1.000000
vt 0.875000 0.000000
vt 0.875000 0.250000
vt 0.125000 0.000000
vt 0.125000 0.250000
vt 0.375000 0.250000
vt 0.625000 0.250000
vt 0.625000 0.500000
vt 0.375000 0.500000
vt 0.375000 0.250000
vt 0.625000 0.250000
vt 0.625000 0.500000
vt 0.375000 0.500000
vn 0.925711 0.378231 0.000009
vn 0.925711 0.378231 0.000009
vn 0.925711 0.378231 0.000009
vn 0.925711 0.378231 0.000009
vn -0.378187 0.925729 -0.000002
vn -0.378187 0.925729 -0.000002
vn -0.378187 0.925729 -0.000002
vn -0.378187 0.925729 -0.000002
vn -0.925742 -0.378156 0.000000
vn -0.925742 -0.378156 0.000000
vn -0.925742 -0.378156 0.000000
vn -0.925742 -0.378156 0.000000
vn 0.378183 -0.925731 0.000002
vn 0.378183 -0.925731 0.000002
vn 0.378183 -0.925731 0.000002
vn 0.378183 -0.925731 0.000002
vn -0.000000 0.000000 1.000000
vn -0.000000 0.000000 1.000000
vn -0.000000 0.000000 1.000000
vn -0.000000 0.000000 1.000000
vn 0.000000 0.000000 -1.000000
vn 0.000000 0.000000 -1.000000
vn 0.000000 0.000000 -1.000000
vn 0.000000 0.000000 -1.000000
vn -0.378089 0.925769 -0.000069
vn -0.378089 0.925769 -0.000069
vn -0.378091 0.925769 0.000065
vn -0.378091 0.925769 0.000065
vn -0.378220 0.925716 0.000067
vn -0.378220 0.925716 0.000067
vn -0.378218 0.925717 -0.000067
vn -0.378218 0.925717 -0.000067
vn -0.925741 -0.378157 -0.000010
vn -0.925741 -0.378157 -0.000010
vn -0.925741 -0.378157 -0.000010
vn -0.925741 -0.378157 -0.000010
vn -0.000011 -0.000004 -1.000000
vn -0.000011 -0.000004 -1.000000
vn -0.000011 -0.000004 -1.000000
vn -0.000011 -0.000004 -1.000000
vn 0.925742 0.378157 0.000000
vn 0.925742 0.378157 0.000000
vn 0.925742 0.378157 0.000000
vn 0.925742 0.378157 0.000000
vn 0.000011 0.000004 1.000000
vn 0.000011 0.000004 1.000000
vn 0.000011 0.000004 1.000000
vn 0.000011 0.000004 1.000000
s off
f 1/1/1 3/3/2 4/4/3 2/2/4
f 13/19/5 16/22/6 15/21/7 14/20/8
f 5/5/9 7/7/10 8/8/11 6/6/12
f 7/7/13 1/9/14 2/10/15 8/8/16
f 2/2/17 4/4/18 6/12/19 8/11/20
f 7/13/21 5/14/22 3/3/23 1/1/24
s 1
f 3/3/25 9/15/26 10/16/27 4/4/28
f 4/4/28 10/16/27 11/17/29 6/6/30
f 6/6/30 11/17/29 12/18/31 5/5/32
f 5/5/32 12/18/31 9/15/26 3/3/25
s off
f 9/15/33 13/19/34 14/20/35 10/16/36
f 10/16/37 14/20/38 15/21/39 11/17/40
f 11/17/41 15/21/42 16/22/43 12/18/44
f 12/18/45 16/22/46 13/19/47 9/15/48
