# This file uses centimeters as units for non-parametric coordinates.

v 0.853592 0.689362 0.000000
v 0.853588 0.689362 -0.409119
v 0.830643 0.745537 0.000000
v 0.830639 0.745537 -0.409119
v 0.464539 0.595970 0.000000
v 0.464539 0.595970 -0.409119
v 0.487484 0.539799 0.000000
v 0.487484 0.539799 -0.409119
v 0.801941 0.733810 -0.030998
v 0.801937 0.733810 -0.378113
v 0.493237 0.607697 -0.378117
v 0.493237 0.607697 -0.031002
v 0.818237 0.693924 -0.030998
v 0.818233 0.693924 -0.378113
v 0.509533 0.567806 -0.378117
v 0.509533 0.567806 -0.031002
vt 0.375000 0.000000
vt 0.625000 0.000000
vt 0.375000 0.250000
vt 0.625000 0.250000
vt 0.375000 0.500000
vt 0.625000 0.500000
vt 0.375000 0.750000
vt 0.625000 0.750000
vt 0.375000 1.000000
vt 0.625000 1.000000
vt 0.875000 0.000000
vt 0.875000 0.250000
vt 0.125000 0.000000
vt 0.125000 0.250000
vt 0.375000 0.250000
vt 0.625000 0.250000
vt 0.625000 0.500000
vt 0.375000 0.500000
vt 0.375000 0.250000
vt 0.625000 0.250000
vt 0.625000 0.500000
vt 0.375000 0.500000
vn 0.925729 0.378187 -0.000009
vn 0.925729 0.378187 -0.000009
vn 0.925729 0.378187 -0.000009
vn 0.925729 0.378187 -0.000009
vn -0.378197 0.925725 0.000002
vn -0.378197 0.925725 0.000002
vn -0.378197 0.925725 0.000002
vn -0.378197 0.925725 0.000002
vn -0.925742 -0.378156 0.000000
vn -0.925742 -0.378156 0.000000
vn -0.925742 -0.378156 0.000000
vn -0.925742 -0.378156 0.000000
vn 0.378183 -0.925731 -0.000002
vn 0.378183 -0.925731 -0.000002
vn 0.378183 -0.925731 -0.000002
vn 0.378183 -0.925731 -0.000002
vn 0.000000 0.000000 -1.000000
vn 0.000000 0.000000 -1.000000
vn 0.000000 0.000000 -1.000000
vn 0.000000 0.000000 -1.000000
vn 0.000000 0.000000 1.000000
vn 0.000000 0.000000 1.000000
vn 0.000000 0.000000 1.000000
vn 0.000000 0.000000 1.000000
vn -0.378201 0.925724 0.000013
vn -0.378203 0.925723 -0.000010
vn -0.378203 0.925723 -0.000010
vn -0.378201 0.925724 0.000013
vn -0.378224 0.925714 -0.000012
vn -0.378224 0.925714 -0.000012
vn -0.378222 0.925715 0.000011
vn -0.378222 0.925715 0.000011
vn -0.925716 -0.378220 0.000010
vn -0.925716 -0.378219 0.000010
vn -0.925716 -0.378220 0.000010
vn -0.925716 -0.378219 0.000010
vn -0.000011 -0.000004 1.000000
vn -0.000011 -0.000004 1.000000
vn -0.000011 -0.000004 1.000000
vn -0.000011 -0.000004 1.000000
vn 0.925729 0.378188 0.000000
vn 0.925729 0.378188 0.000000
vn 0.925729 0.378188 0.000000
vn 0.925729 0.378188 0.000000
vn 0.000011 0.000004 -1.000000
vn 0.000011 0.000004 -1.000000
vn 0.000011 0.000004 -1.000000
vn 0.000011 0.000004 -1.000000
s off
f 1/1/1 2/2/2 4/4/3 3/3/4
f 13/19/5 14/20/6 15/21/7 16/22/8
f 5/5/9 6/6/10 8/8/11 7/7/12
f 7/7/13 8/8/14 2/10/15 1/9/16
f 2/2/17 8/11/18 6/12/19 4/4/20
f 7/13/21 1/1/22 3/3/23 5/14/24
s 1
f 3/3/25 4/4/26 10/16/27 9/15/28
f 4/4/26 6/6/29 11/17/30 10/16/27
f 6/6/29 5/5/31 12/18/32 11/17/30
f 5/5/31 3/3/25 9/15/28 12/18/32
s off
f 9/15/33 10/16/34 14/20/35 13/19/36
f 10/16/37 11/17/38 15/21/39 14/20/40
f 11/17/41 12/18/42 16/22/43 15/21/44
f 12/18/45 9/15/46 13/19/47 16/22/48
