# This file uses centimeters as units for non-parametric coordinates.

v -1.099998 0.837357 -0.462502
v -1.099998 0.837357 0.212500
v -0.500000 0.837357 -0.462502
v -0.500000 0.837357 0.212500
v -1.099998 0.787354 -0.462502
v -1.099998 0.787354 0.212500
v -0.500000 0.787354 0.212500
v -0.500000 0.787354 -0.462502
v -1.099998 -0.000000 -0.500000
v -1.099998 -0.000000 0.250000
v -1.099998 1.000000 -0.500000
v -1.099998 1.000000 0.250000
v -0.500000 1.000000 -0.500000
v -0.500000 1.000000 0.250000
v -0.500000 -0.000000 -0.500000
v -0.500000 -0.000000 0.250000
v -0.500000 0.949997 -0.462502
v -0.500000 0.949997 0.212500
v -0.500000 -0.000000 0.212500
v -1.099998 -0.000000 0.212500
v -1.099998 1.000000 0.212500
v -0.500000 1.000000 0.212500
v -0.500000 1.000000 -0.462502
v -1.099998 1.000000 -0.462502
v -1.099998 -0.000000 -0.462502
v -0.500000 -0.000000 -0.462502
v -1.050003 0.949997 0.212500
v -1.054398 -0.000000 0.212500
v -1.054398 -0.000000 -0.462502
v -1.050003 0.949997 -0.462502
v -1.054398 -0.000000 -0.500000
v -1.054398 1.000000 -0.500000
v -1.054398 1.000000 -0.462502
v -1.054398 1.000000 0.212500
v -1.054398 1.000000 0.250000
v -1.054398 -0.000000 0.250000
v -1.099998 0.949997 -0.500000
v -1.099998 0.949997 -0.462502
v -1.099998 0.949997 0.212500
v -1.099998 0.949997 0.250000
v -1.054398 0.949997 0.250000
v -0.500000 0.949997 0.250000
v -0.500000 0.949997 -0.500000
v -1.054398 0.949997 -0.500000
v -0.529999 1.000000 0.212500
v -0.800003 1.000000 -0.125000
v -1.054398 1.000000 -0.442997
v -1.070000 1.000000 -0.462502
v -1.070000 1.000000 0.212500
v -1.054398 1.000000 0.192997
v -0.529999 1.000000 -0.462502
vt 0.375000 0.250000
vt 0.625000 0.250000
vt 0.375000 0.500000
vt 0.625000 0.500000
vt 0.875000 0.250000
vt 0.125000 0.250000
vt 0.375000 0.213141
vt 0.625000 0.213141
vt 0.625000 0.536860
vt 0.875000 0.213141
vt 0.125000 0.213141
vt 0.375000 0.536860
vt 0.399671 0.250000
vt 0.403255 0.213141
vt 0.611330 0.213141
vt 0.610866 0.250000
vt 0.604935 0.269001
vt 0.504836 0.375000
vt 0.405471 0.269001
vt 0.644001 0.250000
vt 0.644001 0.213141
vt 0.875000 0.213141
vt 0.875000 0.250000
vt 0.125000 0.213141
vt 0.355999 0.213141
vt 0.355999 0.250000
vt 0.125000 0.250000
vt 0.382023 0.512230
vt 0.395505 0.500000
vt 0.613300 0.500000
vt 0.621319 0.512412
vt 0.375000 0.500000
vt 0.625000 0.500000
vt 0.618954 0.750000
vt 0.411930 0.750000
vt 0.625000 0.213141
vt 0.625000 0.250000
vt 0.625000 0.500000
vt 0.613178 0.487500
vt 0.611051 0.269001
vt 0.625000 0.269001
vt 0.625000 0.536860
vt 0.375000 0.269001
vt 0.399355 0.269001
vt 0.395713 0.487500
vt 0.375000 0.500000
vt 0.375000 0.213141
vt 0.375000 0.250000
vt 0.375000 0.536860
vt 0.611932 0.750000
vt 0.418112 0.750000
vt 0.399463 0.262500
vt 0.610988 0.262500
vt 0.375000 0.000000
vt 0.423979 0.000000
vt 0.614013 0.000000
vt 0.625000 0.000000
vt 0.644001 0.000000
vt 0.875000 0.000000
vt 0.625000 0.750000
vt 0.375000 0.750000
vt 0.125000 0.000000
vt 0.355999 0.000000
vn -1.000000 0.000000 0.000000
vn -1.000000 0.000000 0.000000
vn -1.000000 0.000000 0.000000
vn -1.000000 0.000000 0.000000
vn 0.000000 0.000000 1.000000
vn 0.000000 0.000000 1.000000
vn 0.000000 0.000000 1.000000
vn 0.000000 0.000000 1.000000
vn 0.000000 0.000000 -1.000000
vn 0.000000 0.000000 -1.000000
vn 0.000000 0.000000 -1.000000
vn 0.000000 0.000000 -1.000000
vn 1.000000 0.000000 0.000000
vn 1.000000 0.000000 0.000000
vn 1.000000 0.000000 0.000000
vn 1.000000 0.000000 0.000000
vn 0.000000 1.000000 0.000000
vn 0.000000 1.000000 0.000000
vn 0.000000 1.000000 0.000000
vn 0.000000 1.000000 0.000000
vn 0.000000 -1.000000 0.000000
vn 0.000000 -1.000000 0.000000
vn 0.000000 -1.000000 0.000000
vn 0.000000 -1.000000 0.000000
vn -1.000000 0.000000 0.000000
vn -1.000000 0.000000 0.000000
vn -1.000000 0.000000 0.000000
vn -1.000000 0.000000 0.000000
vn 0.000000 1.000000 0.000000
vn 0.000000 1.000000 0.000000
vn 0.000000 1.000000 0.000000
vn 0.000000 0.000000 1.000000
vn 0.000000 0.000000 1.000000
vn 0.000000 0.000000 1.000000
vn 0.000000 0.000000 1.000000
vn 0.000000 0.000000 -1.000000
vn 0.000000 0.000000 -1.000000
vn 0.000000 0.000000 -1.000000
vn 0.000000 0.000000 -1.000000
vn 1.000000 0.000000 0.000000
vn 1.000000 0.000000 0.000000
vn 1.000000 0.000000 0.000000
vn 1.000000 0.000000 0.000000
vn 0.999989 -0.004626 0.000000
vn 0.999989 -0.004626 0.000000
vn 0.999989 -0.004626 0.000000
vn 0.999989 -0.004626 0.000000
vn -1.000000 0.000000 0.000000
vn -1.000000 0.000000 0.000000
vn 0.000000 1.000000 0.000000
vn 0.000000 1.000000 0.000000
vn 0.000000 1.000000 0.000000
vn 0.000000 1.000000 0.000000
vn 1.000000 0.000000 0.000000
vn 1.000000 0.000000 0.000000
vn 0.000000 1.000000 0.000000
vn 0.000000 1.000000 0.000000
vn 0.000000 1.000000 0.000000
vn 0.000000 1.000000 0.000000
vn -1.000000 0.000000 0.000000
vn -1.000000 0.000000 0.000000
vn 1.000000 0.000000 0.000000
vn 1.000000 0.000000 0.000000
vn 0.000000 0.000000 -1.000000
vn 0.000000 0.000000 -1.000000
vn 0.000000 0.000000 -1.000000
vn 0.000000 0.000000 -1.000000
vn 0.000000 0.000000 1.000000
vn 0.000000 0.000000 1.000000
vn 0.000000 0.000000 1.000000
vn 0.000000 0.000000 1.000000
vn 0.000000 -1.000000 0.000000
vn 0.000000 -1.000000 0.000000
vn 0.000000 -1.000000 0.000000
vn 0.000000 -1.000000 0.000000
vn 0.000000 0.000000 -1.000000
vn 0.000000 0.000000 -1.000000
vn 0.000000 1.000000 0.000000
vn 0.000000 1.000000 0.000000
vn 0.000000 1.000000 0.000000
vn 0.000000 1.000000 0.000000
vn 0.000000 1.000000 0.000000
vn 0.000000 1.000000 0.000000
vn 0.000000 0.000000 1.000000
vn 0.000000 0.000000 1.000000
vn -1.000000 0.000000 0.000000
vn -1.000000 0.000000 0.000000
vn -1.000000 0.000000 0.000000
vn -1.000000 0.000000 0.000000
vn 0.000000 0.000000 1.000000
vn 0.000000 0.000000 1.000000
vn 0.000000 0.000000 1.000000
vn 1.000000 0.000000 0.000000
vn 1.000000 0.000000 0.000000
vn 1.000000 0.000000 0.000000
vn 1.000000 0.000000 0.000000
vn 0.000000 0.000000 -1.000000
vn 0.000000 0.000000 -1.000000
vn 0.000000 0.000000 -1.000000
vn 0.000000 1.000000 0.000000
vn 0.000000 1.000000 0.000000
s off
f 2/2/1 1/1/2 5/7/3 6/8/4
f 6/8/5 7/10/6 4/5/7 2/2/8
f 1/1/9 3/6/10 8/11/11 5/7/12
f 3/3/13 4/4/14 7/9/15 8/12/16
f 2/2/17 4/4/18 3/6/19 1/1/20
f 6/8/21 5/7/22 8/12/23 7/10/24
s 1
f 24/13/25 38/14/26 39/15/27 21/16/28
s 2
f 50/17/29 46/18/30 47/19/31
s 3
f 35/20/32 41/21/33 42/22/34 14/23/35
s 4
f 43/24/36 44/25/37 32/26/38 13/27/39
s 5
f 17/28/40 23/29/41 22/30/42 18/31/43
s off
f 30/32/44 27/33/45 28/34/46 29/35/47
s 1
f 21/16/28 39/15/27 40/36/48 12/37/49
s 2
f 14/38/50 45/39/51 34/40/52 35/41/53
s 5
f 18/31/43 22/30/42 14/38/54 42/42/55
s 2
f 32/43/56 33/44/57 51/45/58 13/46/59
s 1
f 37/47/60 38/14/26 24/13/25 11/48/61
s 5
f 17/28/40 43/49/62 13/46/63 23/29/41
s off
f 27/33/64 18/31/65 19/50/66 28/34/67
f 17/28/68 30/32/69 29/35/70 26/51/71
f 17/28/72 18/31/73 27/33/74 30/32/75
s 4
f 32/26/38 44/25/37 37/47/76 11/48/77
s 2
f 11/48/78 24/13/79 48/52/80
f 49/53/81 50/17/29 47/19/31 48/52/80 24/13/79 21/16/82
f 12/37/83 49/53/81 21/16/82
s 3
f 40/36/84 41/21/33 35/20/32 12/37/85
s 1
f 9/54/86 25/55/87 38/14/26 37/47/60
f 39/15/27 38/14/26 25/55/87 20/56/88
f 40/36/48 39/15/27 20/56/88 10/57/89
s 3
f 10/57/90 36/58/91 41/21/33 40/36/84
f 42/22/34 41/21/33 36/58/91 16/59/92
s 5
f 18/31/43 42/42/55 16/60/93 19/50/94
f 43/49/62 17/28/40 26/51/95 15/61/96
s 4
f 15/62/97 31/63/98 44/25/37 43/24/36
f 37/47/76 44/25/37 31/63/98 9/54/99
s 2
f 22/30/100 45/39/51 14/38/50
f 46/18/30 45/39/51 22/30/100 23/29/101 51/45/58
f 46/18/30 51/45/58 33/44/57 47/19/31
f 48/52/80 47/19/31 33/44/57
f 11/48/78 48/52/80 33/44/57 32/43/56
f 35/41/53 34/40/52 49/53/81 12/37/83
f 34/40/52 50/17/29 49/53/81
f 45/39/51 46/18/30 50/17/29 34/40/52
f 13/46/59 51/45/58 23/29/101
v 1.099998 -0.000000 0.500000
v 1.099998 -0.000000 -0.500000
v 1.099998 0.847328 0.500000
v 1.099998 0.847328 -0.500000
v 0.500000 0.847328 0.500000
v 0.500000 0.847328 -0.500000
v 0.500000 -0.000000 0.500000
v 0.500000 -0.000000 -0.500000
v 0.500000 0.847328 0.450001
v 0.500000 0.847328 -0.450001
v 0.500000 -0.000000 -0.450001
v 1.099998 -0.000000 -0.450001
v 1.099998 0.847328 -0.450001
v 1.099998 0.847328 0.450001
v 1.099998 -0.000000 0.450001
v 0.500000 -0.000000 0.450001
v 1.054398 0.847328 -0.450001
v 1.054398 -0.000000 -0.450001
v 1.054398 -0.000000 0.450001
v 1.054398 0.847328 0.450001
v 1.054398 -0.000000 0.500000
v 1.054398 0.847328 0.500000
v 1.054398 0.847328 -0.500000
v 1.054398 -0.000000 -0.500000
vt 0.375000 0.000000
vt 0.625000 0.000000
vt 0.375000 0.250000
vt 0.625000 0.250000
vt 0.375000 0.500000
vt 0.625000 0.500000
vt 0.375000 0.750000
vt 0.625000 0.750000
vt 0.875000 0.000000
vt 0.875000 0.250000
vt 0.125000 0.000000
vt 0.125000 0.250000
vt 0.390775 0.498539
vt 0.616252 0.498629
vt 0.611932 0.750000
vt 0.614013 0.000000
vt 0.610866 0.250000
vt 0.399671 0.250000
vt 0.423979 0.000000
vt 0.418112 0.750000
vt 0.620397 0.487830
vt 0.618954 0.750000
vt 0.411930 0.750000
vt 0.380318 0.487780
vt 0.355999 0.000000
vt 0.355999 0.250000
vt 0.375000 0.269001
vt 0.394483 0.268982
vt 0.611848 0.269001
vt 0.625000 0.269001
vt 0.644001 0.250000
vt 0.644001 0.000000
vn 1.000000 0.000000 0.000000
vn 1.000000 0.000000 0.000000
vn 1.000000 0.000000 0.000000
vn 1.000000 0.000000 0.000000
vn 0.000000 0.000000 -1.000000
vn 0.000000 0.000000 -1.000000
vn 0.000000 0.000000 -1.000000
vn 0.000000 0.000000 -1.000000
vn 0.000000 0.000000 1.000000
vn 0.000000 0.000000 1.000000
vn 0.000000 0.000000 1.000000
vn 0.000000 0.000000 1.000000
vn -1.000000 0.000000 0.000000
vn -1.000000 0.000000 0.000000
vn -1.000000 0.000000 0.000000
vn -1.000000 0.000000 0.000000
vn 1.000000 0.000000 0.000000
vn 1.000000 0.000000 0.000000
vn 0.000000 1.000000 0.000000
vn 0.000000 1.000000 0.000000
vn 0.000000 1.000000 0.000000
vn 0.000000 1.000000 0.000000
vn -1.000000 0.000000 0.000000
vn -1.000000 0.000000 0.000000
vn -1.000000 0.000000 0.000000
vn -1.000000 0.000000 0.000000
vn 0.000000 1.000000 0.000000
vn 0.000000 1.000000 0.000000
vn 0.000000 1.000000 0.000000
vn 0.000000 1.000000 0.000000
vn 1.000000 0.000000 0.000000
vn 1.000000 0.000000 0.000000
vn -1.000000 0.000000 0.000000
vn -1.000000 0.000000 0.000000
vn -1.000000 0.000000 0.000000
vn -1.000000 0.000000 0.000000
vn 0.000000 0.000000 1.000000
vn 0.000000 0.000000 1.000000
vn 0.000000 0.000000 1.000000
vn 0.000000 0.000000 1.000000
vn 0.000000 0.000000 -1.000000
vn 0.000000 0.000000 -1.000000
vn 0.000000 0.000000 -1.000000
vn 0.000000 0.000000 -1.000000
vn 0.000000 0.000000 1.000000
vn 0.000000 0.000000 1.000000
vn 0.000000 1.000000 0.000000
vn 0.000000 1.000000 0.000000
vn 0.000000 1.000000 0.000000
vn 0.000000 1.000000 0.000000
vn 0.000000 0.000000 -1.000000
vn 0.000000 0.000000 -1.000000
s 1
f 64/80/102 65/81/103 66/82/104 63/79/105
s 2
f 57/73/106 74/94/107 75/95/108 59/72/109
s 3
f 73/89/110 56/75/111 58/74/112 72/88/113
s off
f 71/87/114 68/84/115 69/85/116 70/86/117
s 1
f 55/67/118 64/80/102 63/79/105 53/65/119
s 4
f 61/77/120 68/92/121 74/93/122 57/69/123
s off
f 61/77/124 57/69/125 59/71/126 62/78/127
s 4
f 73/90/128 71/91/129 60/76/130 56/68/131
s 1
f 65/81/103 54/66/132 52/64/133 66/82/104
s off
f 56/68/134 60/76/135 67/83/136 58/70/137
f 68/84/138 61/77/139 62/78/140 69/85/141
f 60/76/142 71/87/143 70/86/144 67/83/145
s 3
f 52/64/146 54/66/147 73/89/110 72/88/113
s 4
f 54/66/148 65/81/149 71/91/129 73/90/128
f 68/92/121 71/91/129 65/81/149 64/80/150
f 74/93/122 68/92/121 64/80/150 55/67/151
s 2
f 74/94/107 55/67/152 53/65/153 75/95/108
v -0.555473 -0.000000 1.099998
v 0.500000 -0.000000 1.099998
v -0.555473 0.949997 1.099998
v 0.500000 0.949997 1.099998
v -0.555473 0.949997 0.250000
v 0.500000 0.949997 0.500000
v -0.555473 -0.000000 0.250000
v 0.500000 -0.000000 0.500000
v -0.505474 0.949997 0.250000
v 0.450001 0.949997 0.500000
v 0.450001 -0.000000 0.500000
v 0.450001 -0.000000 1.099998
v 0.450001 0.949997 1.099998
v -0.505474 0.949997 1.099998
v -0.505474 -0.000000 1.099998
v -0.505474 -0.000000 0.250000
v 0.450001 0.949997 1.054398
v 0.450001 -0.000000 1.054398
v -0.505474 -0.000000 1.054398
v -0.505474 0.949997 1.054398
v -0.555473 -0.000000 1.054398
v -0.555473 0.949997 1.054398
v 0.500000 0.949997 1.054398
v 0.500000 -0.000000 1.054398
vt 0.375000 0.000000
vt 0.625000 0.000000
vt 0.375000 0.250000
vt 0.625000 0.250000
vt 0.375000 0.500000
vt 0.625000 0.500000
vt 0.375000 0.750000
vt 0.625000 0.750000
vt 0.875000 0.000000
vt 0.875000 0.250000
vt 0.125000 0.000000
vt 0.125000 0.250000
vt 0.390775 0.498539
vt 0.616252 0.498629
vt 0.611932 0.750000
vt 0.614013 0.000000
vt 0.610866 0.250000
vt 0.399671 0.250000
vt 0.423979 0.000000
vt 0.418112 0.750000
vt 0.620397 0.487830
vt 0.618954 0.750000
vt 0.411930 0.750000
vt 0.380318 0.487780
vt 0.355999 0.000000
vt 0.355999 0.250000
vt 0.375000 0.269001
vt 0.394483 0.268982
vt 0.611848 0.269001
vt 0.625000 0.269001
vt 0.644001 0.250000
vt 0.644001 0.000000
vn 0.000000 0.000000 1.000000
vn 0.000000 0.000000 1.000000
vn 0.000000 0.000000 1.000000
vn 0.000000 0.000000 1.000000
vn 1.000000 0.000000 0.000000
vn 1.000000 0.000000 0.000000
vn 1.000000 0.000000 0.000000
vn 1.000000 0.000000 0.000000
vn -1.000000 0.000000 0.000000
vn -1.000000 0.000000 0.000000
vn -1.000000 0.000000 0.000000
vn -1.000000 0.000000 0.000000
vn 0.000000 0.000000 -1.000000
vn 0.000000 0.000000 -1.000000
vn 0.000000 0.000000 -1.000000
vn 0.000000 0.000000 -1.000000
vn 0.000000 0.000000 1.000000
vn 0.000000 0.000000 1.000000
vn 0.000000 1.000000 0.000000
vn 0.000000 1.000000 0.000000
vn 0.000000 1.000000 0.000000
vn 0.000000 1.000000 0.000000
vn 0.000000 0.000000 -1.000000
vn 0.000000 0.000000 -1.000000
vn 0.000000 0.000000 -1.000000
vn 0.000000 0.000000 -1.000000
vn 0.000000 1.000000 0.000000
vn 0.000000 1.000000 0.000000
vn 0.000000 1.000000 0.000000
vn 0.000000 1.000000 0.000000
vn 0.000000 0.000000 1.000000
vn 0.000000 0.000000 1.000000
vn 0.000000 0.000000 -1.000000
vn 0.000000 0.000000 -1.000000
vn 0.000000 0.000000 -1.000000
vn 0.000000 0.000000 -1.000000
vn -1.000000 0.000000 0.000000
vn -1.000000 0.000000 0.000000
vn -1.000000 0.000000 0.000000
vn -1.000000 0.000000 0.000000
vn 1.000000 0.000000 0.000000
vn 1.000000 0.000000 0.000000
vn 1.000000 0.000000 0.000000
vn 1.000000 0.000000 0.000000
vn -1.000000 0.000000 0.000000
vn -1.000000 0.000000 0.000000
vn 0.000000 1.000000 0.000000
vn 0.000000 1.000000 0.000000
vn 0.000000 1.000000 0.000000
vn 0.000000 1.000000 0.000000
vn 1.000000 0.000000 0.000000
vn 1.000000 0.000000 0.000000
s 1
f 88/112/154 89/113/155 90/114/156 87/111/157
s 2
f 81/105/158 98/126/159 99/127/160 83/104/161
s 3
f 97/121/162 80/107/163 82/106/164 96/120/165
s off
f 95/119/166 92/116/167 93/117/168 94/118/169
s 1
f 79/99/170 88/112/154 87/111/157 77/97/171
s 4
f 85/109/172 92/124/173 98/125/174 81/101/175
s off
f 85/109/176 81/101/177 83/103/178 86/110/179
s 4
f 97/122/180 95/123/181 84/108/182 80/100/183
s 1
f 89/113/155 78/98/184 76/96/185 90/114/156
s off
f 80/100/186 84/108/187 91/115/188 82/102/189
f 92/116/190 85/109/191 86/110/192 93/117/193
f 84/108/194 95/119/195 94/118/196 91/115/197
s 3
f 76/96/198 78/98/199 97/121/162 96/120/165
s 4
f 78/98/200 89/113/201 95/123/181 97/122/180
f 92/124/173 95/123/181 89/113/201 88/112/202
f 98/125/174 92/124/173 88/112/202 79/99/203
s 2
f 98/126/159 79/99/204 77/97/205 99/127/160
