# This file uses centimeters as units for non-parametric coordinates.

v 0.061134 1.064034 -1.285851
v 0.065247 1.050003 -1.281723
v 0.061134 1.035965 -1.285851
v 0.051208 1.030151 -1.295753
v 0.041283 1.035965 -1.305687
v 0.037170 1.050003 -1.309799
v 0.041283 1.064034 -1.305695
v 0.051208 1.069855 -1.295753
v -0.031960 1.064034 -1.192741
v -0.027847 1.050003 -1.188644
v -0.031960 1.035965 -1.192741
v -0.041883 1.030151 -1.202675
v -0.051809 1.035965 -1.212608
v -0.055922 1.050003 -1.216713
v -0.051809 1.064034 -1.212601
v -0.041883 1.069855 -1.202675
v 0.126961 1.064034 -1.238495
v 0.122849 1.050003 -1.234383
v 0.126961 1.035965 -1.238495
v 0.136887 1.030151 -1.248413
v 0.146812 1.035965 -1.258347
v 0.150921 1.050003 -1.262451
v 0.146812 1.064034 -1.258347
v 0.136887 1.069855 -1.248413
v 0.085445 1.064034 -1.279999
v 0.081337 1.050003 -1.275894
v 0.085445 1.035965 -1.279999
v 0.095375 1.030151 -1.289932
v 0.105301 1.035965 -1.299850
v 0.109409 1.050003 -1.303970
v 0.105301 1.064034 -1.299843
v 0.095375 1.069855 -1.289932
v 0.070858 1.050003 -1.282669
v 0.071571 1.035965 -1.288559
v 0.073292 1.030144 -1.302750
v 0.075012 1.035965 -1.316940
v 0.075726 1.050003 -1.322830
v 0.075012 1.064041 -1.316940
v 0.073292 1.069855 -1.302750
v 0.071571 1.064041 -1.288559
v -0.041883 1.064438 -1.202675
v -0.034664 1.060211 -1.195450
v -0.031675 1.050003 -1.192459
v -0.034664 1.039787 -1.195450
v -0.041883 1.035561 -1.202675
v -0.049105 1.039787 -1.209892
v -0.052095 1.050003 -1.212891
v -0.049105 1.060211 -1.209892
v 0.049736 1.064438 -1.294296
v 0.056953 1.060211 -1.287079
v 0.059944 1.050003 -1.284073
v 0.056953 1.039787 -1.287079
v 0.049736 1.035561 -1.294296
v 0.042515 1.039787 -1.301514
v 0.039524 1.050003 -1.304504
v 0.042515 1.060211 -1.301514
v 0.052521 1.050003 -1.297073
v 0.243950 1.064034 -1.103031
v 0.239838 1.050003 -1.107136
v 0.243950 1.035965 -1.103031
v 0.253876 1.030151 -1.093102
v 0.263802 1.035965 -1.083172
v 0.267910 1.050003 -1.079063
v 0.263802 1.064034 -1.083172
v 0.253876 1.069855 -1.093102
v 0.150856 1.064034 -1.009933
v 0.146746 1.050003 -1.014046
v 0.150856 1.035965 -1.009933
v 0.160782 1.030151 -1.000004
v 0.170708 1.035965 -0.990082
v 0.174818 1.050003 -0.985970
v 0.170708 1.064034 -0.990086
v 0.160782 1.069855 -1.000004
v 0.196598 1.064034 -1.168858
v 0.192486 1.050003 -1.164738
v 0.196598 1.035965 -1.168858
v 0.206524 1.030151 -1.178780
v 0.216450 1.035965 -1.188702
v 0.220562 1.050003 -1.192822
v 0.216450 1.064034 -1.188705
v 0.206524 1.069855 -1.178780
v 0.238110 1.064034 -1.127346
v 0.234001 1.050003 -1.123226
v 0.238110 1.035965 -1.127346
v 0.248035 1.030151 -1.137272
v 0.257961 1.035965 -1.147194
v 0.262074 1.050003 -1.151306
v 0.257965 1.064034 -1.147190
v 0.248035 1.069855 -1.137272
v 0.240776 1.050003 -1.112747
v 0.246655 1.035965 -1.113468
v 0.260853 1.030144 -1.115181
v 0.275051 1.035965 -1.116901
v 0.280933 1.050003 -1.117626
v 0.275051 1.064041 -1.116901
v 0.260853 1.069855 -1.115181
v 0.246655 1.064041 -1.113468
v 0.160782 1.064438 -1.000004
v 0.153563 1.060211 -1.007225
v 0.150572 1.050003 -1.010216
v 0.153563 1.039787 -1.007225
v 0.160782 1.035561 -1.000004
v 0.168001 1.039787 -0.992790
v 0.170992 1.050003 -0.989799
v 0.168001 1.060211 -0.992794
v 0.252399 1.064438 -1.091629
v 0.245178 1.060211 -1.098843
v 0.242191 1.050003 -1.101833
v 0.245178 1.039787 -1.098843
v 0.252399 1.035561 -1.091629
v 0.259621 1.039787 -1.084404
v 0.262611 1.050003 -1.081417
v 0.259621 1.060211 -1.084404
v 0.255188 1.050003 -1.094410
v 0.165688 0.000000 -1.277214
v -0.400002 0.000000 -0.711533
v 0.165688 2.100006 -1.277214
v -0.400002 2.100006 -0.711533
v 0.235325 2.100006 -1.207577
v -0.330360 2.100006 -0.641888
v 0.235325 0.000000 -1.207577
v -0.330360 0.000000 -0.641888
v 0.165688 1.320190 -1.277214
v -0.400002 1.320190 -0.711533
v -0.330360 1.320190 -0.641888
v 0.235325 1.320190 -1.207577
v 0.065277 1.495331 -1.176804
v -0.299591 1.495331 -0.811943
v -0.299591 1.925446 -0.811943
v 0.065277 1.925446 -1.176804
v 0.134914 1.925446 -1.107170
v -0.229952 1.925446 -0.742302
v -0.229952 1.495331 -0.742302
v 0.134914 1.495331 -1.107170
v 0.162025 1.972580 -1.134277
v -0.257063 1.972580 -0.715195
v -0.257063 1.448044 -0.715195
v 0.162025 1.448044 -1.134277
v 0.179352 1.972580 -1.116955
v -0.239735 1.972580 -0.697868
v -0.212626 1.925446 -0.724979
v 0.152241 1.925446 -1.089844
v -0.239735 1.448044 -0.697868
v -0.212626 1.495331 -0.724979
v 0.179352 1.448044 -1.116955
v 0.152241 1.495331 -1.089844
vt 0.375000 0.312500
vt 0.406250 0.312500
vt 0.437500 0.312500
vt 0.468750 0.312500
vt 0.500000 0.312500
vt 0.531250 0.312500
vt 0.562500 0.312500
vt 0.593750 0.312500
vt 0.625000 0.312500
vt 0.375000 0.688440
vt 0.406250 0.688440
vt 0.437500 0.688440
vt 0.468750 0.688440
vt 0.500000 0.688440
vt 0.531250 0.688440
vt 0.562500 0.688440
vt 0.593750 0.688440
vt 0.625000 0.688440
vt 0.610485 0.733265
vt 0.500000 0.687500
vt 0.389515 0.733265
vt 0.343750 0.843750
vt 0.389515 0.954235
vt 0.500000 1.000000
vt 0.610485 0.954235
vt 0.656250 0.843750
vt 0.375000 0.312500
vt 0.406250 0.312500
vt 0.406250 0.688440
vt 0.375000 0.688440
vt 0.437500 0.312500
vt 0.437500 0.688440
vt 0.468750 0.312500
vt 0.468750 0.688440
vt 0.500000 0.312500
vt 0.500000 0.688440
vt 0.531250 0.312500
vt 0.531250 0.688440
vt 0.562500 0.312500
vt 0.562500 0.688440
vt 0.593750 0.312500
vt 0.593750 0.688440
vt 0.625000 0.312500
vt 0.625000 0.688440
vt 0.406250 0.500470
vt 0.437500 0.500470
vt 0.468750 0.500470
vt 0.500000 0.500470
vt 0.531250 0.500470
vt 0.562500 0.500470
vt 0.593750 0.500470
vt 0.375000 0.500470
vt 0.625000 0.500470
vt 0.656250 0.843750
vt 0.610485 0.954235
vt 0.500000 1.000000
vt 0.389515 0.954235
vt 0.343750 0.843750
vt 0.389515 0.733265
vt 0.500000 0.687500
vt 0.610485 0.733265
vt 0.656250 0.843750
vt 0.610485 0.954235
vt 0.500000 1.000000
vt 0.389515 0.954235
vt 0.343750 0.843750
vt 0.389515 0.733265
vt 0.500000 0.687500
vt 0.610485 0.733265
vt 0.500000 0.843750
vt 0.375000 0.312500
vt 0.406250 0.312500
vt 0.406250 0.688440
vt 0.375000 0.688440
vt 0.437500 0.312500
vt 0.437500 0.688440
vt 0.468750 0.312500
vt 0.468750 0.688440
vt 0.500000 0.312500
vt 0.500000 0.688440
vt 0.531250 0.312500
vt 0.531250 0.688440
vt 0.562500 0.312500
vt 0.562500 0.688440
vt 0.593750 0.312500
vt 0.593750 0.688440
vt 0.625000 0.312500
vt 0.625000 0.688440
vt 0.375000 0.312500
vt 0.406250 0.312500
vt 0.406250 0.688440
vt 0.375000 0.688440
vt 0.437500 0.312500
vt 0.437500 0.688440
vt 0.468750 0.312500
vt 0.468750 0.688440
vt 0.500000 0.312500
vt 0.500000 0.688440
vt 0.531250 0.312500
vt 0.531250 0.688440
vt 0.562500 0.312500
vt 0.562500 0.688440
vt 0.593750 0.312500
vt 0.593750 0.688440
vt 0.625000 0.312500
vt 0.625000 0.688440
vt 0.375000 0.500470
vt 0.406250 0.500470
vt 0.593750 0.500470
vt 0.625000 0.500470
vt 0.562500 0.500470
vt 0.531250 0.500470
vt 0.500000 0.500470
vt 0.468750 0.500470
vt 0.437500 0.500470
vt 0.656250 0.843750
vt 0.610485 0.954235
vt 0.610485 0.954235
vt 0.656250 0.843750
vt 0.500000 1.000000
vt 0.500000 1.000000
vt 0.389515 0.954235
vt 0.389515 0.954235
vt 0.343750 0.843750
vt 0.343750 0.843750
vt 0.389515 0.733265
vt 0.389515 0.733265
vt 0.500000 0.687500
vt 0.500000 0.687500
vt 0.610485 0.733265
vt 0.610485 0.733265
vt 0.610485 0.954235
vt 0.656250 0.843750
vt 0.500000 1.000000
vt 0.389515 0.954235
vt 0.343750 0.843750
vt 0.389515 0.733265
vt 0.500000 0.687500
vt 0.610485 0.733265
vt 0.500000 0.843750
vt 0.375000 0.250000
vt 0.625000 0.250000
vt 0.625000 0.500000
vt 0.375000 0.500000
vt 0.375000 0.750000
vt 0.625000 0.750000
vt 0.625000 1.000000
vt 0.375000 1.000000
vt 0.625000 0.125000
vt 0.875000 0.125000
vt 0.875000 0.250000
vt 0.125000 0.125000
vt 0.375000 0.125000
vt 0.125000 0.250000
vt 0.375000 0.000000
vt 0.625000 0.000000
vt 0.875000 0.000000
vt 0.375000 0.625000
vt 0.625000 0.625000
vt 0.125000 0.000000
vt 0.625000 0.125000
vt 0.375000 0.125000
vt 0.625000 0.250000
vt 0.375000 0.250000
vt 0.375000 0.500000
vt 0.625000 0.500000
vt 0.625000 0.500000
vt 0.375000 0.500000
vt 0.625000 0.625000
vt 0.625000 0.625000
vt 0.375000 0.625000
vt 0.375000 0.625000
vt 0.625000 0.500000
vt 0.625000 0.625000
vt 0.375000 0.500000
vt 0.375000 0.625000
vt 0.625000 0.500000
vt 0.375000 0.500000
vt 0.625000 0.625000
vt 0.375000 0.625000
vn 0.469118 0.721488 0.509296
vn 0.500052 0.707034 0.500051
vn 0.707107 -0.000000 0.707107
vn 0.681320 0.000000 0.731985
vn 0.500053 -0.707034 0.500051
vn 0.469119 -0.721491 0.509292
vn 0.000086 -1.000000 0.000063
vn -0.010920 -0.999423 -0.032152
vn -0.499931 -0.707164 -0.499989
vn -0.459819 -0.688920 -0.560317
vn -0.707085 0.000056 -0.707128
vn -0.638317 0.000010 -0.769774
vn -0.499945 0.707174 -0.499960
vn -0.459826 0.688912 -0.560321
vn 0.000041 1.000000 0.000032
vn -0.010946 0.999423 -0.032163
vn -0.499952 0.707136 0.500007
vn -0.462610 0.723197 0.512814
vn -0.674086 0.000001 0.738653
vn -0.707058 0.000000 0.707156
vn -0.462616 -0.723197 0.512808
vn -0.499951 -0.707137 0.500005
vn 0.020267 -0.999112 -0.036950
vn -0.000016 -1.000000 0.000019
vn 0.462164 -0.681908 -0.566927
vn 0.500016 -0.707085 -0.500015
vn 0.632510 0.000083 -0.774552
vn 0.707091 0.000086 -0.707123
vn 0.462164 0.681948 -0.566879
vn 0.500000 0.707073 -0.500048
vn 0.020254 0.999112 -0.036944
vn -0.000030 1.000000 0.000022
vn -0.284146 0.000000 0.958781
vn -0.131211 0.814574 0.565025
vn 0.011092 0.984163 -0.176922
vn 0.069722 0.623223 -0.778930
vn 0.088548 -0.000006 -0.996072
vn 0.069636 -0.623122 -0.779019
vn 0.011050 -0.984165 -0.176909
vn -0.131249 -0.814491 0.565135
vn -0.707279 0.000099 0.706935
vn -0.707279 0.000099 0.706935
vn -0.707008 -0.000083 0.707206
vn -0.707007 -0.000083 0.707206
vn -0.706567 -0.000000 0.707647
vn -0.706567 0.000000 0.707647
vn -0.707009 0.000083 0.707204
vn -0.707009 0.000083 0.707205
vn -0.707423 -0.000309 0.706791
vn -0.707423 -0.000309 0.706791
vn -0.707426 -0.000458 0.706787
vn -0.707426 -0.000457 0.706787
vn -0.707307 -0.000198 0.706906
vn -0.707307 -0.000198 0.706906
vn -0.707133 0.000049 0.707080
vn -0.707133 0.000049 0.707080
vn -0.000019 -1.000000 -0.000010
vn -0.000027 -1.000000 -0.000018
vn -0.499771 -0.707448 -0.499747
vn -0.499878 -0.707296 -0.499854
vn -0.707119 -0.000000 -0.707095
vn -0.707119 -0.000000 -0.707095
vn -0.499901 0.707259 -0.499883
vn -0.500009 0.707108 -0.499990
vn -0.000027 1.000000 -0.000020
vn -0.000019 1.000000 -0.000012
vn 0.499990 0.707117 0.499996
vn 0.499989 0.707119 0.499994
vn 0.707100 0.000000 0.707113
vn 0.707100 0.000000 0.707113
vn 0.499858 -0.707304 0.499863
vn 0.499856 -0.707307 0.499861
vn -0.496356 0.000012 0.868119
vn -0.550748 0.185741 0.813743
vn -0.707198 -0.000016 0.707015
vn -0.813904 -0.185611 0.550554
vn -0.868401 0.000012 0.495862
vn -0.813889 0.185527 0.550604
vn -0.682146 0.262741 0.682382
vn -0.550700 -0.185822 0.813757
vn -0.682121 -0.262870 0.682356
vn -0.509201 0.721632 -0.469001
vn -0.732019 0.000001 -0.681284
vn -0.707110 0.000000 -0.707104
vn -0.499977 0.707147 -0.499967
vn -0.509197 -0.721635 -0.469001
vn -0.499976 -0.707147 -0.499967
vn 0.032213 -0.999421 0.010978
vn -0.000002 -1.000000 0.000003
vn 0.560373 -0.688825 0.459894
vn 0.500017 -0.707080 0.500021
vn 0.769781 0.000035 0.638308
vn 0.707100 0.000022 0.707114
vn 0.560358 0.688834 0.459899
vn 0.500011 0.707083 0.500022
vn 0.032208 0.999421 0.010977
vn -0.000022 1.000000 -0.000013
vn -0.499934 0.707186 0.499954
vn -0.707092 0.000000 0.707122
vn -0.738683 0.000001 0.674053
vn -0.512769 0.723277 0.462535
vn -0.499933 -0.707185 0.499956
vn -0.512764 -0.723276 0.462542
vn -0.000048 -1.000000 0.000041
vn 0.036963 -0.999111 -0.020296
vn 0.499991 -0.707111 -0.500003
vn 0.566931 -0.681931 -0.462125
vn 0.707114 -0.000011 -0.707099
vn 0.774509 -0.000026 -0.632562
vn 0.500006 0.707103 -0.499999
vn 0.566930 0.681944 -0.462106
vn -0.000018 1.000000 0.000018
vn 0.036968 0.999110 -0.020306
vn -0.565091 0.814514 0.131302
vn -0.958838 0.000000 0.283955
vn 0.176801 0.984184 -0.011132
vn 0.779035 0.623108 -0.069575
vn 0.996052 -0.000021 -0.088774
vn 0.779116 -0.623004 -0.069600
vn 0.176800 -0.984184 -0.011141
vn -0.565203 -0.814430 0.131337
vn -0.707043 -0.000118 0.707171
vn -0.707316 0.000087 0.706897
vn -0.707316 0.000087 0.706897
vn -0.707043 -0.000118 0.707171
vn -0.707383 0.000000 0.706830
vn -0.707383 0.000000 0.706830
vn -0.707315 -0.000087 0.706898
vn -0.707315 -0.000086 0.706898
vn -0.707113 0.000078 0.707101
vn -0.707113 0.000078 0.707101
vn -0.707182 0.000165 0.707031
vn -0.707182 0.000165 0.707031
vn -0.707416 0.000094 0.706797
vn -0.707416 0.000094 0.706797
vn -0.707142 -0.000110 0.707071
vn -0.707142 -0.000111 0.707071
vn 0.000045 -1.000000 0.000033
vn 0.499953 -0.707180 0.499943
vn 0.499947 -0.707189 0.499936
vn -0.000009 -1.000000 -0.000021
vn 0.707106 0.000000 0.707107
vn 0.707106 0.000000 0.707107
vn 0.500085 0.706992 0.500077
vn 0.500078 0.707001 0.500071
vn 0.000019 1.000000 0.000007
vn -0.000012 1.000000 -0.000024
vn -0.500032 0.707050 -0.500049
vn -0.500061 0.707008 -0.500079
vn -0.707089 -0.000032 -0.707124
vn -0.707089 -0.000064 -0.707124
vn -0.499895 -0.707240 -0.499916
vn -0.499928 -0.707193 -0.499949
vn -0.868274 0.000012 0.496084
vn -0.707050 -0.000016 0.707164
vn -0.813775 0.186150 0.550562
vn -0.550310 -0.186186 0.813937
vn -0.495970 0.000011 0.868339
vn -0.550357 0.186105 0.813924
vn -0.682083 0.263079 0.682314
vn -0.813790 -0.186233 0.550511
vn -0.682067 -0.263206 0.682281
vn 0.000000 1.000000 -0.000001
vn 0.000000 1.000000 -0.000001
vn 0.000000 1.000000 -0.000001
vn 0.000000 1.000000 -0.000001
vn 0.000000 -1.000000 0.000000
vn 0.000000 -1.000000 0.000000
vn 0.000000 -1.000000 0.000000
vn 0.000000 -1.000000 0.000000
vn -0.707126 0.000000 0.707087
vn -0.707126 0.000000 0.707087
vn -0.707126 0.000000 0.707087
vn -0.707126 0.000000 0.707087
vn 0.707107 0.000000 -0.707107
vn 0.707107 0.000000 -0.707107
vn 0.707107 0.000000 -0.707107
vn 0.707107 0.000000 -0.707107
vn -0.707102 0.000000 -0.707112
vn -0.707102 0.000000 -0.707112
vn -0.707102 0.000000 -0.707111
vn -0.707102 0.000000 -0.707111
vn -0.707126 0.000000 0.707087
vn -0.707126 0.000000 0.707087
vn 0.707109 0.000001 0.707105
vn 0.707110 0.000001 0.707103
vn 0.707109 0.000000 0.707104
vn 0.707109 0.000000 0.707104
vn 0.707107 0.000000 -0.707107
vn 0.707107 0.000000 -0.707107
vn -0.707103 0.000000 -0.707110
vn -0.707104 0.000000 -0.707110
vn -0.707103 -0.000000 -0.707110
vn -0.707104 -0.000000 -0.707110
vn -0.707103 -0.000000 -0.707110
vn -0.707104 -0.000000 -0.707110
vn 0.707106 -0.000009 0.707108
vn 0.707114 -0.000009 0.707099
vn 0.707117 -0.000008 0.707097
vn 0.707106 -0.000008 0.707108
vn 0.707115 0.000009 0.707099
vn 0.707117 0.000008 0.707096
vn 0.707106 0.000009 0.707107
vn 0.707107 0.000008 0.707107
vn 0.707116 0.000000 -0.707097
vn 0.707116 0.000000 -0.707097
vn 0.707099 0.000000 -0.707115
vn 0.707099 0.000000 -0.707115
vn 0.000000 -1.000000 -0.000001
vn 0.000000 -1.000000 -0.000001
vn 0.000000 -1.000000 -0.000001
vn 0.000000 -1.000000 -0.000001
vn -0.707087 0.000000 0.707126
vn -0.707087 0.000000 0.707126
vn -0.707091 0.000000 0.707122
vn -0.707091 0.000000 0.707122
vn 0.000000 1.000000 -0.000000
vn 0.000000 1.000000 -0.000000
vn 0.000000 1.000000 -0.000000
vn 0.000000 1.000000 -0.000000
vn 0.707106 -0.000017 0.707107
vn 0.707123 -0.000017 0.707090
vn 0.707127 -0.000014 0.707086
vn 0.707106 -0.000014 0.707107
vn 0.707127 0.000014 0.707086
vn 0.707107 0.000014 0.707107
vn 0.000000 1.000000 0.000001
vn 0.000000 1.000000 0.000001
vn 0.000000 1.000000 0.000001
vn 0.000000 1.000000 0.000001
vn 0.000000 -1.000000 -0.000000
vn 0.000000 -1.000000 -0.000000
vn -0.707068 0.000000 0.707145
vn -0.707068 0.000000 0.707145
vn -0.707068 0.000000 0.707145
vn -0.707068 0.000000 0.707145
vn 0.707030 0.000000 -0.707184
vn 0.707030 0.000000 -0.707184
vn 0.000000 -1.000000 0.000001
vn 0.000000 -1.000000 0.000001
vn 0.000000 -1.000000 0.000001
vn 0.000000 -1.000000 0.000001
vn 0.000000 1.000000 -0.000001
vn 0.000000 1.000000 -0.000001
vn 0.707029 0.000000 -0.707184
vn 0.707029 0.000000 -0.707184
vn 0.707029 0.000000 -0.707184
vn 0.707029 0.000000 -0.707184
vn -0.707106 0.000000 0.707107
vn -0.707106 0.000000 0.707107
s 1
f 1/1/1 9/10/2 10/11/3 2/2/4
f 2/2/4 10/11/3 11/12/5 3/3/6
f 3/3/6 11/12/5 12/13/7 4/4/8
f 4/4/8 12/13/7 13/14/9 5/5/10
f 5/5/10 13/14/9 14/15/11 6/6/12
f 6/6/12 14/15/11 15/16/13 7/7/14
f 7/7/14 15/16/13 16/17/15 8/8/16
f 8/8/16 16/17/15 9/18/2 1/9/1
f 17/27/17 25/30/18 26/29/19 18/28/20
f 18/28/20 26/29/19 27/32/21 19/31/22
f 19/31/22 27/32/21 28/34/23 20/33/24
f 20/33/24 28/34/23 29/36/25 21/35/26
f 21/35/26 29/36/25 30/38/27 22/37/28
f 22/37/28 30/38/27 31/40/29 23/39/30
f 23/39/30 31/40/29 32/42/31 24/41/32
f 24/41/32 32/42/31 25/44/18 17/43/17
f 2/2/4 33/45/33 40/52/34 1/1/1
f 1/9/1 40/53/34 39/51/35 8/8/16
f 8/8/16 39/51/35 38/50/36 7/7/14
f 7/7/14 38/50/36 37/49/37 6/6/12
f 6/6/12 37/49/37 36/48/38 5/5/10
f 5/5/10 36/48/38 35/47/39 4/4/8
f 4/4/8 35/47/39 34/46/40 3/3/6
f 3/3/6 34/46/40 33/45/33 2/2/4
f 34/46/40 27/32/21 26/29/19 33/45/33
f 35/47/39 28/34/23 27/32/21 34/46/40
f 36/48/38 29/36/25 28/34/23 35/47/39
f 37/49/37 30/38/27 29/36/25 36/48/38
f 38/50/36 31/40/29 30/38/27 37/49/37
f 39/51/35 32/42/31 31/40/29 38/50/36
f 40/53/34 25/44/18 32/42/31 39/51/35
f 33/45/33 26/29/19 25/30/18 40/52/34
s 3
f 16/26/41 41/54/42 42/55/43 9/25/44
f 9/25/44 42/55/43 43/56/45 10/24/46
f 10/24/46 43/56/45 44/57/47 11/23/48
f 11/23/48 44/57/47 45/58/49 12/22/50
f 12/22/50 45/58/49 46/59/51 13/21/52
f 13/21/52 46/59/51 47/60/53 14/20/54
f 14/20/54 47/60/53 48/61/55 15/19/56
f 15/19/56 48/61/55 41/54/42 16/26/41
s 4
f 41/54/57 49/62/58 50/63/59 42/55/60
f 42/55/60 50/63/59 51/64/61 43/56/62
f 43/56/62 51/64/61 52/65/63 44/57/64
f 44/57/64 52/65/63 53/66/65 45/58/66
f 45/58/66 53/66/65 54/67/67 46/59/68
f 46/59/68 54/67/67 55/68/69 47/60/70
f 47/60/70 55/68/69 56/69/71 48/61/72
f 48/61/72 56/69/71 49/62/58 41/54/57
s 5
f 55/68/73 54/67/74 57/70/75
f 50/63/76 57/70/75 51/64/77
f 57/70/75 52/65/78 51/64/77
f 57/70/75 53/66/79 52/65/78
f 57/70/75 54/67/74 53/66/79
f 56/69/80 55/68/73 57/70/75
f 49/62/81 56/69/80 57/70/75
f 50/63/76 49/62/81 57/70/75
s 7
f 58/71/82 59/72/83 67/73/84 66/74/85
f 59/72/83 60/75/86 68/76/87 67/73/84
f 60/75/86 61/77/88 69/78/89 68/76/87
f 61/77/88 62/79/90 70/80/91 69/78/89
f 62/79/90 63/81/92 71/82/93 70/80/91
f 63/81/92 64/83/94 72/84/95 71/82/93
f 64/83/94 65/85/96 73/86/97 72/84/95
f 65/85/96 58/87/82 66/88/85 73/86/97
f 74/89/98 75/90/99 83/91/100 82/92/101
f 75/90/99 76/93/102 84/94/103 83/91/100
f 76/93/102 77/95/104 85/96/105 84/94/103
f 77/95/104 78/97/106 86/98/107 85/96/105
f 78/97/106 79/99/108 87/100/109 86/98/107
f 79/99/108 80/101/110 88/102/111 87/100/109
f 80/101/110 81/103/112 89/104/113 88/102/111
f 81/103/112 74/105/98 82/106/101 89/104/113
f 59/72/83 58/71/82 97/107/114 90/108/115
f 58/87/82 65/85/96 96/109/116 97/110/114
f 65/85/96 64/83/94 95/111/117 96/109/116
f 64/83/94 63/81/92 94/112/118 95/111/117
f 63/81/92 62/79/90 93/113/119 94/112/118
f 62/79/90 61/77/88 92/114/120 93/113/119
f 61/77/88 60/75/86 91/115/121 92/114/120
f 60/75/86 59/72/83 90/108/115 91/115/121
f 91/115/121 90/108/115 83/91/100 84/94/103
f 92/114/120 91/115/121 84/94/103 85/96/105
f 93/113/119 92/114/120 85/96/105 86/98/107
f 94/112/118 93/113/119 86/98/107 87/100/109
f 95/111/117 94/112/118 87/100/109 88/102/111
f 96/109/116 95/111/117 88/102/111 89/104/113
f 97/110/114 96/109/116 89/104/113 82/106/101
f 90/108/115 97/107/114 82/92/101 83/91/100
s 9
f 73/116/122 66/117/123 99/118/124 98/119/125
f 66/117/123 67/120/126 100/121/127 99/118/124
f 67/120/126 68/122/128 101/123/129 100/121/127
f 68/122/128 69/124/130 102/125/131 101/123/129
f 69/124/130 70/126/132 103/127/133 102/125/131
f 70/126/132 71/128/134 104/129/135 103/127/133
f 71/128/134 72/130/136 105/131/137 104/129/135
f 72/130/136 73/116/122 98/119/125 105/131/137
s 10
f 98/119/138 99/118/139 107/132/140 106/133/141
f 99/118/139 100/121/142 108/134/143 107/132/140
f 100/121/142 101/123/144 109/135/145 108/134/143
f 101/123/144 102/125/146 110/136/147 109/135/145
f 102/125/146 103/127/148 111/137/149 110/136/147
f 103/127/148 104/129/150 112/138/151 111/137/149
f 104/129/150 105/131/152 113/139/153 112/138/151
f 105/131/152 98/119/138 106/133/141 113/139/153
s 11
f 112/138/154 114/140/155 111/137/156
f 107/132/157 108/134/158 114/140/155
f 114/140/155 108/134/158 109/135/159
f 114/140/155 109/135/159 110/136/160
f 114/140/155 110/136/160 111/137/156
f 113/139/161 114/140/155 112/138/154
f 106/133/162 114/140/155 113/139/161
f 107/132/157 114/140/155 106/133/162
s off
f 117/141/163 118/142/164 120/143/165 119/144/166
f 121/145/167 122/146/168 116/147/169 115/148/170
s 13
f 124/149/171 125/150/172 120/151/173 118/142/174
s 14
f 126/152/175 123/153/176 117/141/177 119/154/178
s 15
f 115/155/179 116/156/180 124/149/181 123/153/182
s 13
f 116/156/183 122/157/184 125/150/172 124/149/171
s 16
f 126/158/185 125/159/186 122/146/187 121/145/188
s 14
f 121/160/189 115/155/190 123/153/176 126/152/175
s 15
f 123/153/182 124/149/181 128/161/191 127/162/192
f 124/149/181 118/142/193 129/163/194 128/161/191
f 118/142/193 117/141/195 130/164/196 129/163/194
f 117/141/195 123/153/182 127/162/192 130/164/196
s 17
f 139/165/197 140/166/198 141/167/199 142/168/200
f 140/166/198 143/169/201 144/170/202 141/167/199
f 143/169/201 145/171/203 146/172/204 144/170/202
f 145/171/203 139/165/197 142/168/200 146/172/204
s 18
f 128/161/205 129/163/206 132/173/207 133/174/208
s 19
f 129/163/209 130/164/210 131/175/211 132/173/212
s 20
f 130/164/213 127/162/214 134/176/215 131/175/216
s 21
f 127/162/217 128/161/218 133/174/219 134/176/220
s 16
f 119/144/221 120/143/222 136/177/223 135/178/224
f 120/143/222 125/159/186 137/179/225 136/177/223
f 125/159/186 126/158/185 138/180/226 137/179/225
f 126/158/185 119/144/221 135/178/224 138/180/226
s off
f 135/178/227 136/177/228 140/166/229 139/165/230
s 19
f 132/173/212 131/175/211 142/168/231 141/167/232
s off
f 136/177/233 137/179/234 143/169/235 140/166/236
s 18
f 133/174/208 132/173/207 141/167/237 144/170/238
s off
f 137/179/239 138/180/240 145/171/241 143/169/242
s 21
f 134/176/220 133/174/219 144/170/243 146/172/244
s off
f 138/180/245 135/178/246 139/165/247 145/171/248
s 20
f 131/175/216 134/176/215 146/172/249 142/168/250
