# This file uses centimeters as units for non-parametric coordinates.

v -1.598648 -0.000000 1.610001
v 1.598648 -0.000000 1.610001
v -1.598648 0.000000 -1.078079
v 1.598648 0.000000 -1.078079
v -1.598648 -0.200001 1.610001
v 1.598648 -0.200001 1.610001
v 1.598648 -0.200001 -1.078079
v -1.598648 -0.200001 -1.078079
v 1.818054 -0.200001 1.829407
v 1.818054 -0.200001 -1.297485
v 1.818054 -0.367840 1.829407
v 1.818054 -0.367840 -1.297485
v -1.818054 -0.200001 1.829407
v -1.818054 -0.367840 1.829407
v -1.818054 -0.200001 -1.297485
v -1.818054 -0.367840 -1.297485
v 2.013397 -0.367840 2.024765
v 2.013397 -0.367840 -1.492844
v 2.013397 -0.554192 2.024765
v 2.013397 -0.554192 -1.492844
v -2.013397 -0.367840 2.024765
v -2.013397 -0.554192 2.024765
v -2.013397 -0.367840 -1.492844
v -2.013397 -0.554192 -1.492844
vt 0.000000 0.000000
vt 1.000000 0.000000
vt 0.000000 1.000000
vt 1.000000 1.000000
vt 0.000000 0.000000
vt 1.000000 0.000000
vt 1.000000 1.000000
vt 0.000000 1.000000
vt 0.000000 0.000000
vt 1.000000 0.000000
vt 1.000000 1.000000
vt 0.000000 1.000000
vt 1.000000 1.000000
vt 1.000000 0.000000
vt 1.000000 0.000000
vt 1.000000 1.000000
vt 0.000000 0.000000
vt 0.000000 0.000000
vt 0.000000 1.000000
vt 0.000000 1.000000
vt 1.000000 1.000000
vt 1.000000 0.000000
vt 1.000000 0.000000
vt 1.000000 1.000000
vt 0.000000 0.000000
vt 0.000000 0.000000
vt 0.000000 1.000000
vt 0.000000 1.000000
vn 0.000000 1.000000 0.000000
vn 0.000000 1.000000 0.000000
vn 0.000000 1.000000 0.000000
vn 0.000000 1.000000 0.000000
vn -1.000000 0.000000 0.000000
vn -1.000000 0.000000 0.000000
vn -1.000000 0.000000 0.000000
vn -1.000000 0.000000 0.000000
vn 0.000000 0.000000 1.000000
vn 0.000000 0.000000 1.000000
vn 0.000000 0.000000 1.000000
vn 0.000000 0.000000 1.000000
vn 1.000000 0.000000 0.000000
vn 1.000000 0.000000 0.000000
vn 1.000000 0.000000 0.000000
vn 1.000000 0.000000 0.000000
vn 0.000000 0.000000 -1.000000
vn 0.000000 0.000000 -1.000000
vn 0.000000 0.000000 -1.000000
vn 0.000000 0.000000 -1.000000
vn 1.000000 0.000000 0.000000
vn 1.000000 0.000000 0.000000
vn 1.000000 0.000000 0.000000
vn 1.000000 0.000000 0.000000
vn 0.000000 0.000000 1.000000
vn 0.000000 0.000000 1.000000
vn 0.000000 0.000000 1.000000
vn 0.000000 0.000000 1.000000
vn -1.000000 0.000000 0.000000
vn -1.000000 0.000000 0.000000
vn -1.000000 0.000000 0.000000
vn -1.000000 0.000000 0.000000
vn 0.000000 0.000000 -1.000000
vn 0.000000 0.000000 -1.000000
vn 0.000000 0.000000 -1.000000
vn 0.000000 0.000000 -1.000000
vn 0.000000 1.000000 0.000000
vn 0.000000 1.000000 -0.000000
vn 0.000000 1.000000 -0.000000
vn 0.000000 1.000000 0.000000
vn 0.000000 1.000000 -0.000000
vn 0.000000 1.000000 -0.000000
vn 0.000000 1.000000 0.000000
vn 0.000000 1.000000 0.000000
vn 1.000000 0.000000 0.000000
vn 1.000000 0.000000 0.000000
vn 1.000000 0.000000 0.000000
vn 1.000000 0.000000 0.000000
vn 0.000000 0.000000 1.000000
vn 0.000000 0.000000 1.000000
vn 0.000000 0.000000 1.000000
vn 0.000000 0.000000 1.000000
vn -1.000000 0.000000 0.000000
vn -1.000000 0.000000 0.000000
vn -1.000000 0.000000 0.000000
vn -1.000000 0.000000 0.000000
vn 0.000000 0.000000 -1.000000
vn 0.000000 0.000000 -1.000000
vn 0.000000 0.000000 -1.000000
vn 0.000000 0.000000 -1.000000
vn 0.000000 1.000000 -0.000000
vn 0.000000 1.000000 0.000000
vn 0.000000 1.000000 0.000000
vn 0.000000 1.000000 -0.000000
vn 0.000000 1.000000 0.000000
vn 0.000000 1.000000 0.000000
vn 0.000000 -1.000000 0.000000
vn 0.000000 -1.000000 0.000000
vn 0.000000 -1.000000 0.000000
vn 0.000000 -1.000000 0.000000
vn 0.000000 1.000000 -0.000000
vn 0.000000 1.000000 -0.000000
s off
f 1/5/1 2/6/2 4/7/3 3/8/4
f 5/9/5 1/1/6 3/3/7 8/12/8
f 6/10/9 2/2/10 1/1/11 5/9/12
f 6/10/13 7/11/14 4/4/15 2/2/16
f 7/11/17 8/12/18 3/3/19 4/4/20
f 10/13/21 9/14/22 11/15/23 12/16/24
f 9/14/25 13/17/26 14/18/27 11/15/28
f 13/17/29 15/19/30 16/20/31 14/18/32
f 15/19/33 10/13/34 12/16/35 16/20/36
s 1
f 7/11/37 6/10/38 9/14/39 10/13/40
f 6/10/38 5/9/41 13/17/42 9/14/39
f 5/9/41 8/12/43 15/19/44 13/17/42
f 8/12/43 7/11/37 10/13/40 15/19/44
s off
f 18/21/45 17/22/46 19/23/47 20/24/48
f 17/22/49 21/25/50 22/26/51 19/23/52
f 21/25/53 23/27/54 24/28/55 22/26/56
f 23/27/57 18/21/58 20/24/59 24/28/60
s 2
f 12/16/61 11/15/62 17/22/63 18/21/64
f 11/15/62 14/18/65 21/25/66 17/22/63
s off
f 20/24/67 19/23/68 22/26/69 24/28/70
s 2
f 14/18/65 16/20/71 23/27/72 21/25/66
f 16/20/71 12/16/61 18/21/64 23/27/72
