# This file uses centimeters as units for non-parametric coordinates.

v -0.473579 2.498917 -0.139331
v -0.448505 2.498917 -0.164404
v -0.507832 2.498917 -0.130153
v -0.542084 2.498917 -0.139331
v -0.567158 2.498917 -0.164404
v -0.576332 2.498917 -0.198656
v -0.567158 2.498917 -0.232908
v -0.542084 2.498917 -0.257982
v -0.507832 2.498917 -0.267162
v -0.473579 2.498917 -0.257982
v -0.448505 2.498917 -0.232908
v -0.439327 2.498917 -0.198656
v -0.507832 2.498917 -0.198656
vt 0.635316 0.234375
vt 0.578125 0.291566
vt 0.500000 0.312500
vt 0.421875 0.291566
vt 0.364684 0.234375
vt 0.343750 0.156250
vt 0.364684 0.078125
vt 0.421875 0.020934
vt 0.500000 0.000000
vt 0.578125 0.020934
vt 0.635316 0.078125
vt 0.656250 0.156250
vt 0.500000 0.156250
vn 0.000000 -1.000000 0.000003
vn 0.000000 -1.000000 -0.000001
vn 0.000000 -1.000000 0.000003
vn 0.000000 -1.000000 -0.000002
vn 0.000000 -1.000000 -0.000006
vn 0.000000 -1.000000 0.000000
vn 0.000000 -1.000000 -0.000006
vn 0.000000 -1.000000 -0.000006
vn 0.000000 -1.000000 0.000000
vn 0.000000 -1.000000 0.000000
vn 0.000000 -1.000000 0.000003
vn 0.000000 -1.000000 -0.000002
vn 0.000000 -1.000000 0.000000
s 1
f 8/8/1 13/13/2 7/7/3
f 2/1/4 1/2/5 13/13/2
f 13/13/2 1/2/5 3/3/6
f 13/13/2 3/3/6 4/4/7
f 13/13/2 4/4/7 5/5/8
f 13/13/2 5/5/8 6/6/9
f 13/13/2 6/6/9 7/7/3
f 9/9/10 13/13/2 8/8/1
f 10/10/11 13/13/2 9/9/10
f 11/11/12 13/13/2 10/10/11
f 12/12/13 13/13/2 11/11/12
f 2/1/4 13/13/2 12/12/13
v -0.473579 2.498917 0.793598
v -0.448505 2.498917 0.768524
v -0.507832 2.498917 0.802772
v -0.542084 2.498917 0.793598
v -0.567158 2.498917 0.768524
v -0.576332 2.498917 0.734270
v -0.567158 2.498917 0.700024
v -0.542084 2.498917 0.674942
v -0.507832 2.498917 0.665760
v -0.473579 2.498917 0.674942
v -0.448505 2.498917 0.700024
v -0.439327 2.498917 0.734270
v -0.507832 2.498917 0.734270
vt 0.635316 0.234375
vt 0.578125 0.291566
vt 0.500000 0.312500
vt 0.421875 0.291566
vt 0.364684 0.234375
vt 0.343750 0.156250
vt 0.364684 0.078125
vt 0.421875 0.020934
vt 0.500000 0.000000
vt 0.578125 0.020934
vt 0.635316 0.078125
vt 0.656250 0.156250
vt 0.500000 0.156250
vn 0.000000 -1.000000 0.000003
vn 0.000000 -1.000000 -0.000001
vn 0.000000 -1.000000 0.000003
vn 0.000000 -1.000000 -0.000002
vn 0.000000 -1.000000 -0.000006
vn 0.000000 -1.000000 0.000000
vn 0.000000 -1.000000 -0.000006
vn 0.000000 -1.000000 -0.000006
vn 0.000000 -1.000000 0.000000
vn 0.000000 -1.000000 0.000000
vn 0.000000 -1.000000 0.000003
vn 0.000000 -1.000000 -0.000002
vn 0.000000 -1.000000 0.000000
s 1
f 21/21/14 26/26/15 20/20/16
f 15/14/17 14/15/18 26/26/15
f 26/26/15 14/15/18 16/16/19
f 26/26/15 16/16/19 17/17/20
f 26/26/15 17/17/20 18/18/21
f 26/26/15 18/18/21 19/19/22
f 26/26/15 19/19/22 20/20/16
f 22/22/23 26/26/15 21/21/14
f 23/23/24 26/26/15 22/22/23
f 24/24/25 26/26/15 23/23/24
f 25/25/26 26/26/15 24/24/25
f 15/14/17 26/26/15 25/25/26
v 0.586159 2.498917 -0.139331
v 0.611233 2.498917 -0.164404
v 0.551907 2.498917 -0.130153
v 0.517658 2.498917 -0.139331
v 0.492584 2.498917 -0.164404
v 0.483406 2.498917 -0.198656
v 0.492584 2.498917 -0.232908
v 0.517658 2.498917 -0.257982
v 0.551907 2.498917 -0.267162
v 0.586159 2.498917 -0.257982
v 0.611233 2.498917 -0.232908
v 0.620411 2.498917 -0.198656
v 0.551907 2.498917 -0.198656
vt 0.635316 0.234375
vt 0.578125 0.291566
vt 0.500000 0.312500
vt 0.421875 0.291566
vt 0.364684 0.234375
vt 0.343750 0.156250
vt 0.364684 0.078125
vt 0.421875 0.020934
vt 0.500000 0.000000
vt 0.578125 0.020934
vt 0.635316 0.078125
vt 0.656250 0.156250
vt 0.500000 0.156250
vn 0.000000 -1.000000 0.000000
vn 0.000000 -1.000000 -0.000001
vn 0.000000 -1.000000 0.000000
vn 0.000000 -1.000000 -0.000002
vn 0.000000 -1.000000 -0.000006
vn 0.000000 -1.000000 0.000000
vn 0.000000 -1.000000 0.000000
vn 0.000000 -1.000000 0.000000
vn 0.000000 -1.000000 0.000000
vn 0.000000 -1.000000 0.000000
vn 0.000000 -1.000000 0.000003
vn 0.000000 -1.000000 -0.000002
vn 0.000000 -1.000000 0.000000
s 1
f 34/34/27 39/39/28 33/33/29
f 28/27/30 27/28/31 39/39/28
f 39/39/28 27/28/31 29/29/32
f 39/39/28 29/29/32 30/30/33
f 39/39/28 30/30/33 31/31/34
f 39/39/28 31/31/34 32/32/35
f 39/39/28 32/32/35 33/33/29
f 35/35/36 39/39/28 34/34/27
f 36/36/37 39/39/28 35/35/36
f 37/37/38 39/39/28 36/36/37
f 38/38/39 39/39/28 37/37/38
f 28/27/30 39/39/28 38/38/39
v 0.034252 2.546616 0.308559
v 0.059326 2.546616 0.283485
v 0.000000 2.546616 0.317737
v -0.034252 2.546616 0.308559
v -0.059326 2.546616 0.283485
v -0.068504 2.546616 0.249233
v -0.059326 2.546616 0.214983
v -0.034252 2.546616 0.189909
v 0.000000 2.546616 0.180729
v 0.034252 2.546616 0.189909
v 0.059326 2.546616 0.214983
v 0.068504 2.546616 0.249233
v 0.000000 2.546616 0.249233
vt 0.635316 0.234375
vt 0.578125 0.291566
vt 0.500000 0.312500
vt 0.421875 0.291566
vt 0.364684 0.234375
vt 0.343750 0.156250
vt 0.364684 0.078125
vt 0.421875 0.020934
vt 0.500000 0.000000
vt 0.578125 0.020934
vt 0.635316 0.078125
vt 0.656250 0.156250
vt 0.500000 0.156250
vn 0.000000 -1.000000 0.000000
vn 0.000000 -1.000000 0.000000
vn 0.000000 -1.000000 0.000000
vn 0.000000 -1.000000 0.000002
vn 0.000000 -1.000000 0.000000
vn 0.000000 -1.000000 0.000000
vn 0.000000 -1.000000 0.000000
vn 0.000000 -1.000000 0.000000
vn 0.000000 -1.000000 0.000000
vn 0.000000 -1.000000 0.000000
vn 0.000000 -1.000000 0.000000
vn 0.000000 -1.000000 -0.000002
vn 0.000000 -1.000000 0.000000
s 1
f 47/47/40 52/52/41 46/46/42
f 41/40/43 40/41/44 52/52/41
f 52/52/41 40/41/44 42/42/45
f 52/52/41 42/42/45 43/43/46
f 52/52/41 43/43/46 44/44/47
f 52/52/41 44/44/47 45/45/48
f 52/52/41 45/45/48 46/46/42
f 48/48/49 52/52/41 47/47/40
f 49/49/50 52/52/41 48/48/49
f 50/50/51 52/52/41 49/49/50
f 51/51/52 52/52/41 50/50/51
f 41/40/43 52/52/41 51/51/52
