# This file uses centimeters as units for non-parametric coordinates.

v 0.026035 0.000000 -0.010780
v 0.019920 0.000000 -0.019920
v 0.010780 0.000000 -0.026031
v -0.000004 0.000000 -0.028175
v -0.010780 0.000000 -0.026031
v -0.019917 0.000000 -0.019920
v -0.026031 0.000000 -0.010780
v -0.028179 0.000000 0.000000
v -0.026031 0.000000 0.010780
v -0.019924 0.000000 0.019920
v -0.010784 0.000000 0.026024
v -0.000004 0.000000 0.028175
v 0.010784 0.000000 0.026024
v 0.019924 0.000000 0.019920
v 0.026035 0.000000 0.010780
v 0.028175 0.000000 0.000000
v 0.004066 0.202469 -0.001686
v 0.003113 0.202469 -0.003113
v 0.001686 0.202469 -0.004066
v 0.000000 0.202469 -0.004402
v -0.001686 0.202469 -0.004066
v -0.003113 0.202469 -0.003113
v -0.004063 0.202469 -0.001686
v -0.004402 0.202469 0.000000
v -0.004063 0.202469 0.001686
v -0.003117 0.202469 0.003113
v -0.001690 0.202469 0.004066
v 0.000000 0.202469 0.004402
v 0.001690 0.202469 0.004066
v 0.003113 0.202469 0.003113
v 0.004066 0.202469 0.001686
v 0.004402 0.202469 0.000000
v -0.000004 0.000000 0.000000
v 0.026035 0.152672 -0.010780
v 0.019920 0.152672 -0.019920
v 0.010780 0.152672 -0.026031
v -0.000004 0.152672 -0.028175
v -0.010780 0.152672 -0.026031
v -0.019917 0.152672 -0.019920
v -0.026031 0.152672 -0.010780
v -0.028179 0.152672 0.000000
v -0.026031 0.152672 0.010780
v -0.019924 0.152672 0.019920
v -0.010784 0.152672 0.026024
v -0.000004 0.152672 0.028175
v 0.010784 0.152672 0.026024
v 0.019924 0.152672 0.019920
v 0.026035 0.152672 0.010780
v 0.028175 0.152672 0.000000
v 0.017052 0.168495 -0.007065
v 0.013046 0.168495 -0.013046
v 0.007065 0.168495 -0.017052
v -0.000004 0.168495 -0.018456
v -0.007065 0.168495 -0.017052
v -0.013046 0.168495 -0.013046
v -0.017048 0.168495 -0.007065
v -0.018459 0.168495 0.000000
v -0.017048 0.168495 0.007057
v -0.013046 0.168495 0.013046
v -0.007069 0.168495 0.017044
v -0.000004 0.168495 0.018456
v 0.007069 0.168495 0.017044
v 0.013046 0.168495 0.013046
v 0.017052 0.168495 0.007057
v 0.018456 0.168495 0.000000
v 0.005905 0.170357 -0.002449
v 0.004520 0.170357 -0.004517
v 0.002438 0.170357 -0.005905
v 0.000000 0.170357 -0.006393
v -0.002441 0.170357 -0.005905
v -0.004517 0.170357 -0.004517
v -0.005901 0.170357 -0.002449
v -0.006390 0.170357 0.000000
v -0.005901 0.170357 0.002441
v -0.004517 0.170357 0.004517
v -0.002441 0.170357 0.005905
v 0.000000 0.170357 0.006386
v 0.002438 0.170357 0.005905
v 0.004520 0.170357 0.004517
v 0.005905 0.170357 0.002441
v 0.006386 0.170357 0.000000
v 0.017307 0.154869 -0.007164
v 0.013248 0.154869 -0.013245
v 0.007168 0.154869 -0.017303
v -0.000004 0.154869 -0.018730
v -0.007160 0.154869 -0.017303
v -0.013241 0.154869 -0.013245
v -0.017303 0.154869 -0.007164
v -0.018726 0.154869 0.000000
v -0.017303 0.154869 0.007164
v -0.013245 0.154869 0.013237
v -0.007164 0.154869 0.017296
v -0.000004 0.154869 0.018723
v 0.007164 0.154869 0.017296
v 0.013245 0.154869 0.013237
v 0.017307 0.154869 0.007164
v 0.018723 0.154869 0.000000
v 0.024422 0.076332 -0.010117
v 0.018692 0.076332 -0.018692
v 0.010117 0.076332 -0.024422
v -0.000004 0.076332 -0.026436
v -0.010117 0.076332 -0.024422
v -0.018692 0.076332 -0.018692
v -0.024418 0.076332 -0.010117
v -0.026436 0.076332 0.000000
v -0.024418 0.076332 0.010117
v -0.018688 0.076332 0.018692
v -0.010113 0.076332 0.024422
v -0.000004 0.076332 0.026436
v 0.010113 0.076332 0.024422
v 0.018688 0.076332 0.018692
v 0.024422 0.076332 0.010117
v 0.026440 0.076332 0.000000
v 0.002388 0.202469 -0.002396
v 0.001297 0.202469 -0.003128
v 0.000000 0.202469 -0.003387
v -0.001297 0.202469 -0.003128
v -0.002392 0.202469 -0.002396
v -0.003132 0.202469 -0.001297
v -0.003380 0.202469 0.000000
v -0.003132 0.202469 0.001289
v -0.002392 0.202469 0.002388
v -0.001301 0.202469 0.003120
v 0.000000 0.202469 0.003380
v 0.001301 0.202469 0.003120
v 0.002388 0.202469 0.002388
v 0.003124 0.202469 0.001289
v 0.003380 0.202469 0.000000
v 0.003124 0.202469 -0.001297
v 0.002388 0.178925 -0.002396
v 0.001297 0.178925 -0.003128
v 0.000000 0.178925 -0.003387
v -0.001297 0.178925 -0.003128
v -0.002392 0.178925 -0.002396
v -0.003132 0.178925 -0.001297
v -0.003380 0.178925 0.000000
v -0.003132 0.178925 0.001289
v -0.002392 0.178925 0.002388
v -0.001301 0.178925 0.003120
v 0.000000 0.178925 0.003380
v 0.001301 0.178925 0.003120
v 0.002388 0.178925 0.002388
v 0.003124 0.178925 0.001289
v 0.003380 0.178925 0.000000
v 0.003124 0.178925 -0.001297
vt 0.644356 0.096456
vt 0.610485 0.045765
vt 0.559794 0.011894
vt 0.500000 0.000000
vt 0.440206 0.011894
vt 0.389515 0.045765
vt 0.355644 0.096456
vt 0.343750 0.156250
vt 0.355644 0.216044
vt 0.389515 0.266735
vt 0.440206 0.300606
vt 0.500000 0.312500
vt 0.559794 0.300606
vt 0.610485 0.266735
vt 0.644356 0.216044
vt 0.656250 0.156250
vt 0.375000 0.312500
vt 0.390625 0.312500
vt 0.406250 0.312500
vt 0.421875 0.312500
vt 0.437500 0.312500
vt 0.453125 0.312500
vt 0.468750 0.312500
vt 0.484375 0.312500
vt 0.500000 0.312500
vt 0.515625 0.312500
vt 0.531250 0.312500
vt 0.546875 0.312500
vt 0.562500 0.312500
vt 0.578125 0.312500
vt 0.593750 0.312500
vt 0.609375 0.312500
vt 0.625000 0.312500
vt 0.375000 0.688440
vt 0.390625 0.688440
vt 0.406250 0.688440
vt 0.421875 0.688440
vt 0.437500 0.688440
vt 0.453125 0.688440
vt 0.468750 0.688440
vt 0.484375 0.688440
vt 0.500000 0.688440
vt 0.515625 0.688440
vt 0.531250 0.688440
vt 0.546875 0.688440
vt 0.562500 0.688440
vt 0.578125 0.688440
vt 0.593750 0.688440
vt 0.609375 0.688440
vt 0.625000 0.688440
vt 0.500000 0.150000
vt 0.625000 0.500470
vt 0.375000 0.500470
vt 0.390625 0.500470
vt 0.406250 0.500470
vt 0.421875 0.500470
vt 0.437500 0.500470
vt 0.453125 0.500470
vt 0.468750 0.500470
vt 0.484375 0.500470
vt 0.500000 0.500470
vt 0.515625 0.500470
vt 0.531250 0.500470
vt 0.546875 0.500470
vt 0.562500 0.500470
vt 0.578125 0.500470
vt 0.593750 0.500470
vt 0.609375 0.500470
vt 0.625000 0.594455
vt 0.375000 0.594455
vt 0.390625 0.594455
vt 0.406250 0.594455
vt 0.421875 0.594455
vt 0.437500 0.594455
vt 0.453125 0.594455
vt 0.468750 0.594455
vt 0.484375 0.594455
vt 0.500000 0.594455
vt 0.515625 0.594455
vt 0.531250 0.594455
vt 0.546875 0.594455
vt 0.562500 0.594455
vt 0.578125 0.594455
vt 0.593750 0.594455
vt 0.609375 0.594455
vt 0.625000 0.641447
vt 0.375000 0.641447
vt 0.390625 0.641447
vt 0.406250 0.641447
vt 0.421875 0.641447
vt 0.437500 0.641447
vt 0.453125 0.641447
vt 0.468750 0.641447
vt 0.484375 0.641447
vt 0.500000 0.641447
vt 0.515625 0.641447
vt 0.531250 0.641447
vt 0.546875 0.641447
vt 0.562500 0.641447
vt 0.578125 0.641447
vt 0.593750 0.641447
vt 0.609375 0.641447
vt 0.625000 0.547462
vt 0.375000 0.547462
vt 0.390625 0.547462
vt 0.406250 0.547462
vt 0.421875 0.547462
vt 0.437500 0.547462
vt 0.453125 0.547462
vt 0.468750 0.547462
vt 0.484375 0.547462
vt 0.500000 0.547462
vt 0.515625 0.547462
vt 0.531250 0.547462
vt 0.546875 0.547462
vt 0.562500 0.547462
vt 0.578125 0.547462
vt 0.593750 0.547462
vt 0.609375 0.547462
vt 0.625000 0.406485
vt 0.375000 0.406485
vt 0.390625 0.406485
vt 0.406250 0.406485
vt 0.421875 0.406485
vt 0.437500 0.406485
vt 0.453125 0.406485
vt 0.468750 0.406485
vt 0.484375 0.406485
vt 0.500000 0.406485
vt 0.515625 0.406485
vt 0.531250 0.406485
vt 0.546875 0.406485
vt 0.562500 0.406485
vt 0.578125 0.406485
vt 0.593750 0.406485
vt 0.609375 0.406485
vt 0.390625 0.688440
vt 0.406250 0.688440
vt 0.421875 0.688440
vt 0.437500 0.688440
vt 0.453125 0.688440
vt 0.468750 0.688440
vt 0.484375 0.688440
vt 0.500000 0.688440
vt 0.515625 0.688440
vt 0.531250 0.688440
vt 0.546875 0.688440
vt 0.562500 0.688440
vt 0.578125 0.688440
vt 0.593750 0.688440
vt 0.609375 0.688440
vt 0.375000 0.688440
vt 0.390625 0.688440
vt 0.406250 0.688440
vt 0.421875 0.688440
vt 0.437500 0.688440
vt 0.453125 0.688440
vt 0.468750 0.688440
vt 0.484375 0.688440
vt 0.500000 0.688440
vt 0.515625 0.688440
vt 0.531250 0.688440
vt 0.546875 0.688440
vt 0.562500 0.688440
vt 0.578125 0.688440
vt 0.593750 0.688440
vt 0.609375 0.688440
vt 0.375000 0.688440
vn 0.922341 0.061815 -0.381400
vn 0.705077 0.061784 -0.706434
vn 0.705057 0.061784 -0.706454
vn 0.922347 0.061815 -0.381387
vn 0.382374 0.061776 -0.921940
vn 0.382442 0.061776 -0.921912
vn -0.000001 0.061858 -0.998085
vn -0.000000 0.061858 -0.998085
vn -0.382544 0.061789 -0.921869
vn -0.382593 0.061789 -0.921849
vn -0.705758 0.061757 -0.705756
vn -0.705762 0.061757 -0.705752
vn -0.922021 0.061798 -0.382176
vn -0.922021 0.061798 -0.382176
vn -0.998087 0.061825 -0.000002
vn -0.998087 0.061825 0.000000
vn -0.922197 0.061715 0.381764
vn -0.922181 0.061715 0.381803
vn -0.706441 0.061676 0.705080
vn -0.706469 0.061676 0.705051
vn -0.381594 0.061703 0.922268
vn -0.381656 0.061703 0.922243
vn -0.000001 0.061705 0.998094
vn -0.000000 0.061705 0.998094
vn 0.381586 0.061709 0.922271
vn 0.381673 0.061709 0.922235
vn 0.705766 0.061737 0.705749
vn 0.705754 0.061737 0.705762
vn 0.922353 0.061761 0.381379
vn 0.922339 0.061761 0.381413
vn 0.998093 0.061733 -0.000002
vn 0.998093 0.061733 -0.000000
vn 0.000000 -1.000000 0.000000
vn 0.000000 -1.000000 0.000000
vn 0.000000 -1.000000 0.000000
vn 0.000000 -1.000000 0.000000
vn 0.000000 -1.000000 0.000000
vn 0.000000 -1.000000 0.000000
vn 0.000000 -1.000000 0.000000
vn 0.000000 -1.000000 0.000000
vn 0.000000 -1.000000 0.000000
vn 0.000000 -1.000000 0.000000
vn 0.000000 -1.000000 0.000000
vn 0.000000 -1.000000 0.000000
vn 0.000000 -1.000000 0.000000
vn 0.000000 -1.000000 0.000000
vn 0.000000 -1.000000 0.000000
vn 0.000000 -1.000000 0.000000
vn 0.000000 -1.000000 0.000000
vn 0.923801 0.000000 -0.382872
vn 0.707061 0.000000 -0.707152
vn 0.706878 -0.022782 -0.706969
vn 0.923567 -0.022795 -0.382759
vn 0.382727 0.000000 -0.923862
vn 0.382619 -0.022785 -0.923625
vn -0.000000 0.000000 -1.000000
vn 0.000000 -0.022796 -0.999740
vn -0.382888 0.000000 -0.923795
vn -0.382780 -0.022777 -0.923559
vn -0.707156 0.000000 -0.707058
vn -0.706966 -0.022765 -0.706881
vn -0.923769 0.000000 -0.382950
vn -0.923535 -0.022809 -0.382836
vn -1.000000 -0.000000 0.000000
vn -0.999739 -0.022847 0.000000
vn -0.923801 -0.000000 0.382872
vn -0.923566 -0.022840 0.382758
vn -0.707055 0.000000 0.707159
vn -0.706884 -0.022812 0.706962
vn -0.382841 0.000000 0.923814
vn -0.382763 -0.022770 0.923566
vn -0.000000 0.000000 1.000000
vn 0.000000 -0.022758 0.999741
vn 0.382712 0.000000 0.923868
vn 0.382634 -0.022770 0.923620
vn 0.706963 0.000000 0.707250
vn 0.706793 -0.022811 0.707053
vn 0.923801 0.000000 0.382872
vn 0.923566 -0.022816 0.382759
vn 1.000000 0.000000 0.000000
vn 0.999740 -0.022796 0.000000
vn 0.923796 0.020161 -0.382354
vn 0.706977 0.020380 -0.706942
vn 0.706943 0.020380 -0.706977
vn 0.923753 0.020161 -0.382457
vn 0.382596 0.020204 -0.923695
vn 0.382616 0.020204 -0.923687
vn 0.000001 0.020037 -0.999799
vn -0.000000 0.020037 -0.999799
vn -0.382821 0.020017 -0.923606
vn -0.382961 0.020017 -0.923548
vn -0.706947 0.020103 -0.706981
vn -0.706982 0.020103 -0.706946
vn -0.923609 0.020040 -0.382811
vn -0.923566 0.020040 -0.382916
vn -0.999802 0.019926 -0.000000
vn -0.999802 0.019926 0.000000
vn -0.923591 0.020127 0.382850
vn -0.923597 0.020127 0.382836
vn -0.707000 0.020084 0.706929
vn -0.706930 0.020084 0.706998
vn -0.382776 0.019797 0.923629
vn -0.382916 0.019797 0.923571
vn 0.000000 0.019731 0.999805
vn -0.000000 0.019731 0.999805
vn 0.382586 0.019797 0.923708
vn 0.382726 0.019797 0.923650
vn 0.706866 0.020084 0.707062
vn 0.706795 0.020083 0.707133
vn 0.923686 0.020130 0.382622
vn 0.923692 0.020130 0.382607
vn 0.999802 0.019922 0.000000
vn 0.999802 0.019922 0.000000
vn 0.140868 0.988308 -0.058336
vn 0.107805 0.988299 -0.107904
vn 0.107798 0.988299 -0.107910
vn 0.140868 0.988308 -0.058336
vn 0.058418 0.988305 -0.140854
vn 0.058400 0.988305 -0.140861
vn -0.000005 0.988304 -0.152495
vn 0.000008 0.988304 -0.152495
vn -0.058440 0.988307 -0.140835
vn -0.058445 0.988307 -0.140833
vn -0.107845 0.988300 -0.107852
vn -0.107845 0.988300 -0.107852
vn -0.140854 0.988306 -0.058415
vn -0.140842 0.988306 -0.058445
vn -0.152437 0.988313 -0.000002
vn -0.152437 0.988313 0.000005
vn -0.140869 0.988303 0.058426
vn -0.140862 0.988303 0.058443
vn -0.107886 0.988301 0.107802
vn -0.107897 0.988301 0.107791
vn -0.058401 0.988304 0.140869
vn -0.058367 0.988304 0.140883
vn -0.000005 0.988305 0.152491
vn 0.000008 0.988305 0.152491
vn 0.058380 0.988303 0.140885
vn 0.058322 0.988303 0.140909
vn 0.107846 0.988300 0.107854
vn 0.107850 0.988300 0.107850
vn 0.140883 0.988306 0.058347
vn 0.140888 0.988306 0.058335
vn 0.152483 0.988306 -0.000002
vn 0.152483 0.988306 0.000005
vn 0.209310 0.974003 -0.086646
vn 0.160250 0.973976 -0.160280
vn 0.160258 0.973977 -0.160272
vn 0.209320 0.974003 -0.086623
vn 0.086700 0.973986 -0.209367
vn 0.086712 0.973986 -0.209362
vn 0.000002 0.973998 -0.226555
vn -0.000005 0.973998 -0.226555
vn -0.086760 0.973996 -0.209295
vn -0.086743 0.973996 -0.209302
vn -0.160219 0.973988 -0.160242
vn -0.160215 0.973988 -0.160247
vn -0.209268 0.974004 -0.086738
vn -0.209266 0.974004 -0.086742
vn -0.226469 0.974018 0.000000
vn -0.226469 0.974019 0.000000
vn -0.209248 0.974012 0.086688
vn -0.209250 0.974012 0.086685
vn -0.160115 0.974013 0.160193
vn -0.160118 0.974013 0.160189
vn -0.086708 0.974014 0.209235
vn -0.086687 0.974014 0.209243
vn 0.000002 0.974024 0.226444
vn -0.000003 0.974024 0.226444
vn 0.086675 0.974014 0.209245
vn 0.086649 0.974014 0.209256
vn 0.160099 0.974011 0.160220
vn 0.160095 0.974011 0.160224
vn 0.209240 0.974018 0.086643
vn 0.209247 0.974018 0.086627
vn 0.226504 0.974010 0.000000
vn 0.226504 0.974010 0.000000
vn 0.923567 0.022798 -0.382759
vn 0.706878 0.022785 -0.706969
vn 0.382619 0.022787 -0.923625
vn 0.000000 0.022798 -0.999740
vn -0.382780 0.022780 -0.923559
vn -0.706966 0.022767 -0.706881
vn -0.923535 0.022811 -0.382836
vn -0.999739 0.022850 0.000000
vn -0.923566 0.022842 0.382758
vn -0.706884 0.022814 0.706962
vn -0.382763 0.022772 0.923566
vn 0.000000 0.022760 0.999741
vn 0.382634 0.022772 0.923619
vn 0.706793 0.022814 0.707053
vn 0.923566 0.022819 0.382759
vn 0.999740 0.022798 0.000000
vn 0.000000 1.000000 0.000000
vn 0.000000 1.000000 0.000000
vn 0.000000 1.000000 0.000000
vn 0.000000 1.000000 0.000000
vn 0.000000 1.000000 0.000000
vn 0.000000 1.000000 0.000000
vn 0.000000 1.000000 0.000000
vn 0.000000 1.000000 0.000000
vn 0.000000 1.000000 0.000000
vn 0.000000 1.000000 0.000000
vn 0.000000 1.000000 0.000000
vn 0.000000 1.000000 0.000000
vn 0.000000 1.000000 0.000000
vn 0.000000 1.000000 0.000000
vn 0.000000 1.000000 0.000000
vn 0.000000 1.000000 0.000000
vn 0.000000 1.000000 0.000000
vn 0.000000 1.000000 0.000000
vn 0.000000 1.000000 0.000000
vn 0.000000 1.000000 0.000000
vn 0.000000 1.000000 0.000000
vn 0.000000 1.000000 0.000000
vn 0.000000 1.000000 0.000000
vn 0.000000 1.000000 0.000000
vn 0.000000 1.000000 0.000000
vn 0.000000 1.000000 0.000000
vn 0.000000 1.000000 0.000000
vn 0.000000 1.000000 0.000000
vn 0.000000 1.000000 0.000000
vn 0.000000 1.000000 0.000000
vn 0.000000 1.000000 0.000000
vn 0.000000 1.000000 0.000000
vn 0.000000 1.000000 0.000000
vn 0.000000 1.000000 0.000000
vn 0.000000 1.000000 0.000000
vn 0.000000 1.000000 0.000000
vn 0.000000 1.000000 0.000000
vn 0.000000 1.000000 0.000000
vn 0.000000 1.000000 0.000000
vn 0.000000 1.000000 0.000000
vn 0.000000 1.000000 0.000000
vn 0.000000 1.000000 0.000000
vn 0.000000 1.000000 0.000000
vn 0.000000 1.000000 0.000000
vn 0.000000 1.000000 0.000000
vn 0.000000 1.000000 0.000000
vn 0.000000 1.000000 0.000000
vn 0.000000 1.000000 0.000000
vn -0.707844 0.000000 0.706369
vn -0.383568 0.000000 0.923513
vn -0.383568 0.000000 0.923513
vn -0.707844 0.000000 0.706369
vn 0.000000 0.000000 1.000000
vn 0.000000 0.000000 1.000000
vn 0.383046 0.000000 0.923729
vn 0.383046 0.000000 0.923729
vn 0.706371 0.000000 0.707842
vn 0.706371 0.000000 0.707842
vn 0.924465 0.000000 0.381268
vn 0.924465 0.000000 0.381268
vn 1.000000 0.000000 0.000000
vn 1.000000 0.000000 0.000000
vn 0.924035 0.000000 -0.382308
vn 0.924035 0.000000 -0.382308
vn 0.707107 0.000000 -0.707107
vn 0.707107 0.000000 -0.707107
vn 0.383046 0.000000 -0.923729
vn 0.383046 0.000000 -0.923729
vn 0.000000 0.000000 -1.000000
vn 0.000000 0.000000 -1.000000
vn -0.383568 0.000000 -0.923513
vn -0.383568 0.000000 -0.923513
vn -0.708582 0.000000 -0.705629
vn -0.708582 0.000000 -0.705629
vn -0.923513 0.000000 -0.383568
vn -0.923513 0.000000 -0.383568
vn -1.000000 0.000000 0.000000
vn -1.000000 0.000000 0.000000
vn -0.923945 0.000000 0.382525
vn -0.923945 0.000000 0.382525
s 1
f 66/87/1 67/88/2 18/35/3 17/34/4
f 67/88/2 68/89/5 19/36/6 18/35/3
f 68/89/5 69/90/7 20/37/8 19/36/6
f 69/90/7 70/91/9 21/38/10 20/37/8
f 70/91/9 71/92/11 22/39/12 21/38/10
f 71/92/11 72/93/13 23/40/14 22/39/12
f 72/93/13 73/94/15 24/41/16 23/40/14
f 73/94/15 74/95/17 25/42/18 24/41/16
f 74/95/17 75/96/19 26/43/20 25/42/18
f 75/96/19 76/97/21 27/44/22 26/43/20
f 76/97/21 77/98/23 28/45/24 27/44/22
f 77/98/23 78/99/25 29/46/26 28/45/24
f 78/99/25 79/100/27 30/47/28 29/46/26
f 79/100/27 80/101/29 31/48/30 30/47/28
f 80/101/29 81/102/31 32/49/32 31/48/30
f 81/102/31 66/86/1 17/50/4 32/49/32
s 2
f 2/2/33 1/1/34 33/51/35
f 3/3/36 2/2/33 33/51/35
f 4/4/37 3/3/36 33/51/35
f 5/5/38 4/4/37 33/51/35
f 6/6/39 5/5/38 33/51/35
f 7/7/40 6/6/39 33/51/35
f 8/8/41 7/7/40 33/51/35
f 9/9/42 8/8/41 33/51/35
f 10/10/43 9/9/42 33/51/35
f 11/11/44 10/10/43 33/51/35
f 12/12/45 11/11/44 33/51/35
f 13/13/46 12/12/45 33/51/35
f 14/14/47 13/13/46 33/51/35
f 15/15/48 14/14/47 33/51/35
f 16/16/49 15/15/48 33/51/35
f 1/1/34 16/16/49 33/51/35
s 3
f 98/121/50 99/122/51 35/54/52 34/53/53
f 99/122/51 100/123/54 36/55/55 35/54/52
f 100/123/54 101/124/56 37/56/57 36/55/55
f 101/124/56 102/125/58 38/57/59 37/56/57
f 102/125/58 103/126/60 39/58/61 38/57/59
f 103/126/60 104/127/62 40/59/63 39/58/61
f 104/127/62 105/128/64 41/60/65 40/59/63
f 105/128/64 106/129/66 42/61/67 41/60/65
f 106/129/66 107/130/68 43/62/69 42/61/67
f 107/130/68 108/131/70 44/63/71 43/62/69
f 108/131/70 109/132/72 45/64/73 44/63/71
f 109/132/72 110/133/74 46/65/75 45/64/73
f 110/133/74 111/134/76 47/66/77 46/65/75
f 111/134/76 112/135/78 48/67/79 47/66/77
f 112/135/78 113/136/80 49/68/81 48/67/79
f 113/136/80 98/120/50 34/52/53 49/68/81
s 4
f 82/104/82 83/105/83 51/71/84 50/70/85
f 83/105/83 84/106/86 52/72/87 51/71/84
f 84/106/86 85/107/88 53/73/89 52/72/87
f 85/107/88 86/108/90 54/74/91 53/73/89
f 86/108/90 87/109/92 55/75/93 54/74/91
f 87/109/92 88/110/94 56/76/95 55/75/93
f 88/110/94 89/111/96 57/77/97 56/76/95
f 89/111/96 90/112/98 58/78/99 57/77/97
f 90/112/98 91/113/100 59/79/101 58/78/99
f 91/113/100 92/114/102 60/80/103 59/79/101
f 92/114/102 93/115/104 61/81/105 60/80/103
f 93/115/104 94/116/106 62/82/107 61/81/105
f 94/116/106 95/117/108 63/83/109 62/82/107
f 95/117/108 96/118/110 64/84/111 63/83/109
f 96/118/110 97/119/112 65/85/113 64/84/111
f 97/119/112 82/103/82 50/69/85 65/85/113
s 5
f 50/70/114 51/71/115 67/88/116 66/87/117
f 51/71/115 52/72/118 68/89/119 67/88/116
f 52/72/118 53/73/120 69/90/121 68/89/119
f 53/73/120 54/74/122 70/91/123 69/90/121
f 54/74/122 55/75/124 71/92/125 70/91/123
f 55/75/124 56/76/126 72/93/127 71/92/125
f 56/76/126 57/77/128 73/94/129 72/93/127
f 57/77/128 58/78/130 74/95/131 73/94/129
f 58/78/130 59/79/132 75/96/133 74/95/131
f 59/79/132 60/80/134 76/97/135 75/96/133
f 60/80/134 61/81/136 77/98/137 76/97/135
f 61/81/136 62/82/138 78/99/139 77/98/137
f 62/82/138 63/83/140 79/100/141 78/99/139
f 63/83/140 64/84/142 80/101/143 79/100/141
f 64/84/142 65/85/144 81/102/145 80/101/143
f 65/85/144 50/69/114 66/86/117 81/102/145
s 6
f 34/53/146 35/54/147 83/105/148 82/104/149
f 35/54/147 36/55/150 84/106/151 83/105/148
f 36/55/150 37/56/152 85/107/153 84/106/151
f 37/56/152 38/57/154 86/108/155 85/107/153
f 38/57/154 39/58/156 87/109/157 86/108/155
f 39/58/156 40/59/158 88/110/159 87/109/157
f 40/59/158 41/60/160 89/111/161 88/110/159
f 41/60/160 42/61/162 90/112/163 89/111/161
f 42/61/162 43/62/164 91/113/165 90/112/163
f 43/62/164 44/63/166 92/114/167 91/113/165
f 44/63/166 45/64/168 93/115/169 92/114/167
f 45/64/168 46/65/170 94/116/171 93/115/169
f 46/65/170 47/66/172 95/117/173 94/116/171
f 47/66/172 48/67/174 96/118/175 95/117/173
f 48/67/174 49/68/176 97/119/177 96/118/175
f 49/68/176 34/52/146 82/103/149 97/119/177
s 3
f 1/17/178 2/18/179 99/122/51 98/121/50
f 2/18/179 3/19/180 100/123/54 99/122/51
f 3/19/180 4/20/181 101/124/56 100/123/54
f 4/20/181 5/21/182 102/125/58 101/124/56
f 5/21/182 6/22/183 103/126/60 102/125/58
f 6/22/183 7/23/184 104/127/62 103/126/60
f 7/23/184 8/24/185 105/128/64 104/127/62
f 8/24/185 9/25/186 106/129/66 105/128/64
f 9/25/186 10/26/187 107/130/68 106/129/66
f 10/26/187 11/27/188 108/131/70 107/130/68
f 11/27/188 12/28/189 109/132/72 108/131/70
f 12/28/189 13/29/190 110/133/74 109/132/72
f 13/29/190 14/30/191 111/134/76 110/133/74
f 14/30/191 15/31/192 112/135/78 111/134/76
f 15/31/192 16/32/193 113/136/80 112/135/78
f 16/32/193 1/33/178 98/120/50 113/136/80
s off
f 130/153/194 131/154/195 132/155/196 133/156/197 134/157/198 135/158/199 136/159/200 137/160/201 138/161/202 139/162/203 140/163/204 141/164/205 142/165/206 143/166/207 144/167/208 145/168/209
s 7
f 18/35/210 19/36/211 115/138/212 114/137/213
f 19/36/211 20/37/214 116/139/215 115/138/212
f 20/37/214 21/38/216 117/140/217 116/139/215
f 21/38/216 22/39/218 118/141/219 117/140/217
f 22/39/218 23/40/220 119/142/221 118/141/219
f 23/40/220 24/41/222 120/143/223 119/142/221
f 24/41/222 25/42/224 121/144/225 120/143/223
f 25/42/224 26/43/226 122/145/227 121/144/225
f 26/43/226 27/44/228 123/146/229 122/145/227
f 27/44/228 28/45/230 124/147/231 123/146/229
f 28/45/230 29/46/232 125/148/233 124/147/231
f 29/46/232 30/47/234 126/149/235 125/148/233
f 30/47/234 31/48/236 127/150/237 126/149/235
f 31/48/236 32/49/238 128/151/239 127/150/237
f 32/49/238 17/34/240 129/152/241 128/151/239
f 17/34/240 18/35/210 114/137/213 129/152/241
s 8
f 114/137/242 115/138/243 131/154/244 130/153/245
f 115/138/243 116/139/246 132/155/247 131/154/244
f 116/139/246 117/140/248 133/156/249 132/155/247
f 117/140/248 118/141/250 134/157/251 133/156/249
f 118/141/250 119/142/252 135/158/253 134/157/251
f 119/142/252 120/143/254 136/159/255 135/158/253
f 120/143/254 121/144/256 137/160/257 136/159/255
f 121/144/256 122/145/258 138/161/259 137/160/257
f 122/145/258 123/146/260 139/162/261 138/161/259
f 123/146/260 124/147/262 140/163/263 139/162/261
f 124/147/262 125/148/264 141/164/265 140/163/263
f 125/148/264 126/149/266 142/165/267 141/164/265
f 126/149/266 127/150/268 143/166/269 142/165/267
f 127/150/268 128/151/270 144/167/271 143/166/269
f 128/151/270 129/152/272 145/168/273 144/167/271
f 129/152/272 114/137/242 130/153/245 145/168/273
