# This file uses centimeters as units for non-parametric coordinates.

v 0.840286 1.379318 0.783310
v 0.830833 1.379318 0.769165
v 0.816689 1.379318 0.759712
v 0.800003 1.379318 0.756393
v 0.783310 1.379318 0.759712
v 0.769165 1.379318 0.769165
v 0.759712 1.379318 0.783310
v 0.756393 1.379318 0.800003
v 0.759712 1.379318 0.816689
v 0.769165 1.379318 0.830833
v 0.783310 1.379318 0.840286
v 0.800003 1.379318 0.843605
v 0.816689 1.379318 0.840286
v 0.830833 1.379318 0.830833
v 0.840286 1.379318 0.816689
v 0.843605 1.379318 0.800003
v 0.876305 2.038910 0.768394
v 0.858398 2.038910 0.741600
v 0.831604 2.038910 0.723694
v 0.800003 2.038910 0.717407
v 0.768394 2.038910 0.723694
v 0.741600 2.038910 0.741600
v 0.723694 2.038910 0.768394
v 0.717407 2.038910 0.800003
v 0.723694 2.038910 0.831604
v 0.741600 2.038910 0.858398
v 0.768394 2.038910 0.876305
v 0.800003 2.038910 0.882591
v 0.831604 2.038910 0.876305
v 0.858398 2.038910 0.858398
v 0.876305 2.038910 0.831604
v 0.882591 2.038910 0.800003
v 0.800003 1.379318 0.800003
v 0.800003 2.038910 0.800003
v 0.928360 1.423828 0.746826
v 0.898247 1.423828 0.701752
v 0.853172 1.423828 0.671638
v 0.800003 1.423828 0.661057
v 0.746826 1.423828 0.671638
v 0.701752 1.423828 0.701752
v 0.671638 1.423828 0.746826
v 0.661057 1.423828 0.800003
v 0.671638 1.423828 0.853172
v 0.701752 1.423828 0.898247
v 0.746826 1.423828 0.928368
v 0.800003 1.423828 0.938942
v 0.853172 1.423828 0.928368
v 0.898247 1.423828 0.898247
v 0.928360 1.423828 0.853172
v 0.938942 1.423828 0.800003
v 0.983185 1.913055 0.724121
v 0.998276 1.913055 0.800003
v 0.983185 1.913055 0.875877
v 0.940201 1.913055 0.940201
v 0.875877 1.913055 0.983185
v 0.800003 1.913055 0.998276
v 0.724121 1.913055 0.983185
v 0.659798 1.913055 0.940201
v 0.616814 1.913055 0.875877
v 0.601719 1.913055 0.800003
v 0.616814 1.913055 0.724121
v 0.659798 1.913055 0.659798
v 0.724121 1.913055 0.616814
v 0.800003 1.913055 0.601719
v 0.875877 1.913055 0.616814
v 0.940201 1.913055 0.659798
v 0.962921 1.995499 0.732513
v 0.976341 1.995499 0.800003
v 0.962921 1.995499 0.867485
v 0.924690 1.995499 0.924690
v 0.867485 1.995499 0.962921
v 0.800003 1.995499 0.976341
v 0.732513 1.995499 0.962921
v 0.675308 1.995499 0.924690
v 0.637077 1.995499 0.867485
v 0.623657 1.995499 0.800003
v 0.637077 1.995499 0.732513
v 0.675308 1.995499 0.675308
v 0.732513 1.995499 0.637081
v 0.800003 1.995499 0.623657
v 0.867485 1.995499 0.637081
v 0.924690 1.995499 0.675308
v 0.822723 0.987053 0.777275
v 0.800003 0.987053 0.767860
v 0.777275 0.987053 0.777275
v 0.767860 0.987053 0.800003
v 0.777275 0.987053 0.822723
v 0.800003 0.987053 0.832138
v 0.822723 0.987053 0.822723
v 0.832138 0.987053 0.800003
v 0.822723 2.246765 0.777275
v 0.800003 2.246765 0.767860
v 0.777275 2.246765 0.777275
v 0.767860 2.246765 0.800003
v 0.777275 2.246765 0.822723
v 0.800003 2.246765 0.832138
v 0.822723 2.246765 0.822723
v 0.832138 2.246765 0.800003
v 0.809395 1.002625 0.790604
v 0.800003 1.002625 0.786713
v 0.790604 1.002625 0.790604
v 0.786713 1.002625 0.800003
v 0.790604 1.002625 0.809395
v 0.800003 1.002625 0.813293
v 0.809395 1.002625 0.809395
v 0.813293 1.002625 0.800003
v 0.809395 2.233276 0.790604
v 0.800003 2.233276 0.786713
v 0.790604 2.233276 0.790604
v 0.786713 2.233276 0.800003
v 0.790604 2.233276 0.809395
v 0.800003 2.233276 0.813293
v 0.809395 2.233276 0.809395
v 0.813293 2.233276 0.800003
vt 0.644356 0.096456
vt 0.610485 0.045765
vt 0.559794 0.011894
vt 0.500000 0.000000
vt 0.440206 0.011894
vt 0.389515 0.045765
vt 0.355644 0.096456
vt 0.343750 0.156250
vt 0.355644 0.216044
vt 0.389515 0.266735
vt 0.440206 0.300606
vt 0.500000 0.312500
vt 0.559794 0.300606
vt 0.610485 0.266735
vt 0.644356 0.216044
vt 0.656250 0.156250
vt 0.375000 0.312500
vt 0.390625 0.312500
vt 0.406250 0.312500
vt 0.421875 0.312500
vt 0.437500 0.312500
vt 0.453125 0.312500
vt 0.468750 0.312500
vt 0.484375 0.312500
vt 0.500000 0.312500
vt 0.515625 0.312500
vt 0.531250 0.312500
vt 0.546875 0.312500
vt 0.562500 0.312500
vt 0.578125 0.312500
vt 0.593750 0.312500
vt 0.609375 0.312500
vt 0.625000 0.312500
vt 0.375000 0.688440
vt 0.390625 0.688440
vt 0.406250 0.688440
vt 0.421875 0.688440
vt 0.437500 0.688440
vt 0.453125 0.688440
vt 0.468750 0.688440
vt 0.484375 0.688440
vt 0.500000 0.688440
vt 0.515625 0.688440
vt 0.531250 0.688440
vt 0.546875 0.688440
vt 0.562500 0.688440
vt 0.578125 0.688440
vt 0.593750 0.688440
vt 0.609375 0.688440
vt 0.625000 0.688440
vt 0.644356 0.783956
vt 0.610485 0.733265
vt 0.559794 0.699394
vt 0.500000 0.687500
vt 0.440206 0.699394
vt 0.389515 0.733265
vt 0.355644 0.783956
vt 0.343750 0.843750
vt 0.355644 0.903544
vt 0.389515 0.954235
vt 0.440206 0.988106
vt 0.500000 1.000000
vt 0.559794 0.988106
vt 0.610485 0.954235
vt 0.644356 0.903544
vt 0.656250 0.843750
vt 0.500000 0.150000
vt 0.500000 0.837500
vt 0.625000 0.500470
vt 0.375000 0.500470
vt 0.390625 0.500470
vt 0.406250 0.500470
vt 0.421875 0.500470
vt 0.437500 0.500470
vt 0.453125 0.500470
vt 0.468750 0.500470
vt 0.484375 0.500470
vt 0.500000 0.500470
vt 0.515625 0.500470
vt 0.531250 0.500470
vt 0.546875 0.500470
vt 0.562500 0.500470
vt 0.578125 0.500470
vt 0.593750 0.500470
vt 0.609375 0.500470
vt 0.625000 0.641447
vt 0.375000 0.641447
vt 0.609375 0.641447
vt 0.593750 0.641447
vt 0.578125 0.641447
vt 0.562500 0.641447
vt 0.546875 0.641447
vt 0.531250 0.641447
vt 0.515625 0.641447
vt 0.500000 0.641447
vt 0.484375 0.641447
vt 0.468750 0.641447
vt 0.453125 0.641447
vt 0.437500 0.641447
vt 0.421875 0.641447
vt 0.406250 0.641447
vt 0.390625 0.641447
vt 0.625000 0.664944
vt 0.375000 0.664944
vt 0.609375 0.664944
vt 0.593750 0.664944
vt 0.578125 0.664944
vt 0.562500 0.664944
vt 0.546875 0.664944
vt 0.531250 0.664944
vt 0.515625 0.664944
vt 0.500000 0.664944
vt 0.484375 0.664944
vt 0.468750 0.664944
vt 0.453125 0.664944
vt 0.437500 0.664944
vt 0.421875 0.664944
vt 0.406250 0.664944
vt 0.390625 0.664944
vt 0.375000 0.312500
vt 0.406250 0.312500
vt 0.406250 0.688440
vt 0.375000 0.688440
vt 0.437500 0.312500
vt 0.437500 0.688440
vt 0.468750 0.312500
vt 0.468750 0.688440
vt 0.500000 0.312500
vt 0.500000 0.688440
vt 0.531250 0.312500
vt 0.531250 0.688440
vt 0.562500 0.312500
vt 0.562500 0.688440
vt 0.593750 0.312500
vt 0.593750 0.688440
vt 0.625000 0.312500
vt 0.625000 0.688440
vt 0.625000 0.317199
vt 0.375000 0.317199
vt 0.406250 0.317199
vt 0.437500 0.317199
vt 0.468750 0.317199
vt 0.500000 0.317199
vt 0.531250 0.317199
vt 0.562500 0.317199
vt 0.593750 0.317199
vt 0.625000 0.683741
vt 0.375000 0.683741
vt 0.406250 0.683741
vt 0.437500 0.683741
vt 0.468750 0.683741
vt 0.500000 0.683741
vt 0.531250 0.683741
vt 0.562500 0.683741
vt 0.593750 0.683741
vn 0.922162 -0.060985 -0.381965
vn 0.905121 -0.200504 -0.374907
vn 0.692750 -0.200490 -0.692749
vn 0.705790 -0.060981 -0.705792
vn 0.374940 -0.200502 -0.905107
vn 0.381997 -0.060981 -0.922149
vn 0.000000 -0.200503 -0.979693
vn -0.000000 -0.060984 -0.998139
vn -0.374918 -0.200505 -0.905115
vn -0.381977 -0.060982 -0.922158
vn -0.692750 -0.200490 -0.692749
vn -0.705790 -0.060981 -0.705792
vn -0.905115 -0.200505 -0.374918
vn -0.922157 -0.060984 -0.381977
vn -0.979693 -0.200503 0.000000
vn -0.998139 -0.060988 -0.000000
vn -0.905107 -0.200502 0.374940
vn -0.922149 -0.060984 0.381998
vn -0.692765 -0.200492 0.692734
vn -0.705804 -0.060980 0.705778
vn -0.374906 -0.200496 0.905122
vn -0.381966 -0.060980 0.922162
vn 0.000000 -0.200500 0.979694
vn -0.000000 -0.060980 0.998139
vn 0.374928 -0.200493 0.905114
vn 0.381986 -0.060980 0.922154
vn 0.692765 -0.200492 0.692734
vn 0.705804 -0.060980 0.705778
vn 0.905112 -0.200501 0.374928
vn 0.922154 -0.060984 0.381985
vn 0.979694 -0.200499 0.000000
vn 0.998139 -0.060987 -0.000000
vn 0.279298 -0.918687 -0.279297
vn 0.364935 -0.918682 -0.151149
vn 0.000000 -1.000000 0.000001
vn 0.151165 -0.918682 -0.364927
vn 0.000002 -0.918688 -0.394985
vn -0.151147 -0.918684 -0.364930
vn -0.279296 -0.918688 -0.279296
vn -0.364931 -0.918684 -0.151146
vn -0.394985 -0.918688 0.000003
vn -0.364928 -0.918682 0.151166
vn -0.279309 -0.918687 0.279286
vn -0.151143 -0.918690 0.364918
vn 0.000002 -0.918688 0.394984
vn 0.151161 -0.918688 0.364915
vn 0.279311 -0.918686 0.279289
vn 0.364932 -0.918680 0.151167
vn 0.394989 -0.918686 0.000001
vn 0.327633 0.935007 -0.135714
vn 0.250755 0.935008 -0.250764
vn 0.000000 1.000000 0.000000
vn 0.135725 0.935005 -0.327634
vn 0.000001 0.935005 -0.354636
vn -0.135714 0.935007 -0.327634
vn -0.250753 0.935009 -0.250760
vn -0.327628 0.935009 -0.135712
vn -0.354632 0.935006 0.000001
vn -0.327627 0.935008 0.135724
vn -0.250758 0.935008 0.250760
vn -0.135714 0.935007 0.327634
vn 0.000001 0.935004 0.354637
vn 0.135725 0.935006 0.327631
vn 0.250761 0.935007 0.250761
vn 0.327631 0.935006 0.135725
vn 0.354637 0.935004 0.000001
vn 0.750774 0.582774 -0.310987
vn 0.812630 0.582780 -0.000000
vn 0.750769 0.582771 0.311004
vn 0.574611 0.582791 0.574610
vn 0.311004 0.582771 0.750769
vn -0.000000 0.582779 0.812631
vn -0.310986 0.582774 0.750774
vn -0.574611 0.582790 0.574611
vn -0.750764 0.582774 0.311010
vn -0.812624 0.582789 -0.000000
vn -0.750769 0.582778 -0.310992
vn -0.574606 0.582789 -0.574617
vn -0.310992 0.582786 -0.750763
vn -0.000000 0.582787 -0.812625
vn 0.311009 0.582782 -0.750758
vn 0.574605 0.582789 -0.574618
vn 0.411543 -0.813201 -0.411506
vn 0.000014 -0.813249 -0.581916
vn -0.000009 -0.813249 -0.581916
vn 0.411551 -0.813201 -0.411497
vn -0.411475 -0.813254 -0.411469
vn -0.411475 -0.813253 -0.411469
vn -0.581914 -0.813250 0.000017
vn -0.581914 -0.813250 -0.000007
vn -0.411503 -0.813203 0.411542
vn -0.411494 -0.813203 0.411550
vn 0.000015 -0.813216 0.581962
vn -0.000008 -0.813216 0.581962
vn 0.411571 -0.813151 0.411575
vn 0.411571 -0.813151 0.411575
vn 0.581962 -0.813216 0.000017
vn 0.581962 -0.813216 -0.000007
vn 0.450403 0.770929 -0.450339
vn -0.000009 0.770983 -0.636856
vn 0.000015 0.770983 -0.636856
vn 0.450395 0.770929 -0.450347
vn -0.450323 0.770985 -0.450323
vn -0.450323 0.770985 -0.450323
vn -0.636855 0.770983 -0.000008
vn -0.636855 0.770983 0.000016
vn -0.450338 0.770929 0.450404
vn -0.450347 0.770929 0.450395
vn -0.000009 0.770946 0.636901
vn 0.000015 0.770946 0.636901
vn 0.450418 0.770873 0.450420
vn 0.450418 0.770873 0.450420
vn 0.636902 0.770945 -0.000008
vn 0.636902 0.770945 0.000016
vn 0.707107 0.000000 -0.707107
vn -0.000000 0.000000 -1.000000
vn -0.000000 0.000000 -1.000000
vn 0.707107 0.000000 -0.707107
vn -0.707107 0.000000 -0.707107
vn -0.707107 0.000000 -0.707107
vn -1.000000 0.000000 0.000000
vn -1.000000 0.000000 0.000000
vn -0.707106 0.000000 0.707108
vn -0.707106 0.000000 0.707108
vn 0.000000 0.000000 1.000000
vn 0.000000 0.000000 1.000000
vn 0.707106 0.000000 0.707108
vn 0.707106 0.000000 0.707108
vn 1.000000 0.000000 0.000000
vn 1.000000 0.000000 0.000000
s 1
f 51/87/1 35/70/2 36/71/3 66/102/4
f 36/71/3 37/72/5 65/101/6 66/102/4
f 37/72/5 38/73/7 64/100/8 65/101/6
f 38/73/7 39/74/9 63/99/10 64/100/8
f 39/74/9 40/75/11 62/98/12 63/99/10
f 40/75/11 41/76/13 61/97/14 62/98/12
f 41/76/13 42/77/15 60/96/16 61/97/14
f 42/77/15 43/78/17 59/95/18 60/96/16
f 43/78/17 44/79/19 58/94/20 59/95/18
f 44/79/19 45/80/21 57/93/22 58/94/20
f 45/80/21 46/81/23 56/92/24 57/93/22
f 46/81/23 47/82/25 55/91/26 56/92/24
f 47/82/25 48/83/27 54/90/28 55/91/26
f 48/83/27 49/84/29 53/89/30 54/90/28
f 49/84/29 50/85/31 52/88/32 53/89/30
f 50/85/31 35/69/2 51/86/1 52/88/32
f 2/2/33 1/1/34 33/67/35
f 3/3/36 2/2/33 33/67/35
f 4/4/37 3/3/36 33/67/35
f 5/5/38 4/4/37 33/67/35
f 6/6/39 5/5/38 33/67/35
f 7/7/40 6/6/39 33/67/35
f 8/8/41 7/7/40 33/67/35
f 9/9/42 8/8/41 33/67/35
f 10/10/43 9/9/42 33/67/35
f 11/11/44 10/10/43 33/67/35
f 12/12/45 11/11/44 33/67/35
f 13/13/46 12/12/45 33/67/35
f 14/14/47 13/13/46 33/67/35
f 15/15/48 14/14/47 33/67/35
f 16/16/49 15/15/48 33/67/35
f 1/1/34 16/16/49 33/67/35
f 17/65/50 18/64/51 34/68/52
f 18/64/51 19/63/53 34/68/52
f 19/63/53 20/62/54 34/68/52
f 20/62/54 21/61/55 34/68/52
f 21/61/55 22/60/56 34/68/52
f 22/60/56 23/59/57 34/68/52
f 23/59/57 24/58/58 34/68/52
f 24/58/58 25/57/59 34/68/52
f 25/57/59 26/56/60 34/68/52
f 26/56/60 27/55/61 34/68/52
f 27/55/61 28/54/62 34/68/52
f 28/54/62 29/53/63 34/68/52
f 29/53/63 30/52/64 34/68/52
f 30/52/64 31/51/65 34/68/52
f 31/51/65 32/66/66 34/68/52
f 32/66/66 17/65/50 34/68/52
f 1/17/34 2/18/33 36/71/3 35/70/2
f 2/18/33 3/19/36 37/72/5 36/71/3
f 3/19/36 4/20/37 38/73/7 37/72/5
f 4/20/37 5/21/38 39/74/9 38/73/7
f 5/21/38 6/22/39 40/75/11 39/74/9
f 6/22/39 7/23/40 41/76/13 40/75/11
f 7/23/40 8/24/41 42/77/15 41/76/13
f 8/24/41 9/25/42 43/78/17 42/77/15
f 9/25/42 10/26/43 44/79/19 43/78/17
f 10/26/43 11/27/44 45/80/21 44/79/19
f 11/27/44 12/28/45 46/81/23 45/80/21
f 12/28/45 13/29/46 47/82/25 46/81/23
f 13/29/46 14/30/47 48/83/27 47/82/25
f 14/30/47 15/31/48 49/84/29 48/83/27
f 15/31/48 16/32/49 50/85/31 49/84/29
f 16/32/49 1/33/34 35/69/2 50/85/31
f 52/88/32 51/86/1 67/103/67 68/105/68
f 53/89/30 52/88/32 68/105/68 69/106/69
f 54/90/28 53/89/30 69/106/69 70/107/70
f 55/91/26 54/90/28 70/107/70 71/108/71
f 56/92/24 55/91/26 71/108/71 72/109/72
f 57/93/22 56/92/24 72/109/72 73/110/73
f 58/94/20 57/93/22 73/110/73 74/111/74
f 59/95/18 58/94/20 74/111/74 75/112/75
f 60/96/16 59/95/18 75/112/75 76/113/76
f 61/97/14 60/96/16 76/113/76 77/114/77
f 62/98/12 61/97/14 77/114/77 78/115/78
f 63/99/10 62/98/12 78/115/78 79/116/79
f 64/100/8 63/99/10 79/116/79 80/117/80
f 65/101/6 64/100/8 80/117/80 81/118/81
f 66/102/4 65/101/6 81/118/81 82/119/82
f 51/87/1 66/102/4 82/119/82 67/104/67
f 68/105/68 67/103/67 17/50/50 32/49/66
f 69/106/69 68/105/68 32/49/66 31/48/65
f 70/107/70 69/106/69 31/48/65 30/47/64
f 71/108/71 70/107/70 30/47/64 29/46/63
f 72/109/72 71/108/71 29/46/63 28/45/62
f 73/110/73 72/109/72 28/45/62 27/44/61
f 74/111/74 73/110/73 27/44/61 26/43/60
f 75/112/75 74/111/74 26/43/60 25/42/59
f 76/113/76 75/112/75 25/42/59 24/41/58
f 77/114/77 76/113/76 24/41/58 23/40/57
f 78/115/78 77/114/77 23/40/57 22/39/56
f 79/116/79 78/115/78 22/39/56 21/38/55
f 80/117/80 79/116/79 21/38/55 20/37/54
f 81/118/81 80/117/80 20/37/54 19/36/53
f 82/119/82 81/118/81 19/36/53 18/35/51
f 67/104/67 82/119/82 18/35/51 17/34/50
s 3
f 107/148/83 108/149/84 92/122/85 91/123/86
f 108/149/84 109/150/87 93/125/88 92/122/85
f 109/150/87 110/151/89 94/127/90 93/125/88
f 110/151/89 111/152/91 95/129/92 94/127/90
f 111/152/91 112/153/93 96/131/94 95/129/92
f 112/153/93 113/154/95 97/133/96 96/131/94
f 113/154/95 114/155/97 98/135/98 97/133/96
f 114/155/97 107/147/83 91/137/86 98/135/98
s 4
f 83/120/99 84/121/100 100/140/101 99/139/102
f 84/121/100 85/124/103 101/141/104 100/140/101
f 85/124/103 86/126/105 102/142/106 101/141/104
f 86/126/105 87/128/107 103/143/108 102/142/106
f 87/128/107 88/130/109 104/144/110 103/143/108
f 88/130/109 89/132/111 105/145/112 104/144/110
f 89/132/111 90/134/113 106/146/114 105/145/112
f 90/134/113 83/136/99 99/138/102 106/146/114
s 5
f 99/139/115 100/140/116 108/149/117 107/148/118
f 100/140/116 101/141/119 109/150/120 108/149/117
f 101/141/119 102/142/121 110/151/122 109/150/120
f 102/142/121 103/143/123 111/152/124 110/151/122
f 103/143/123 104/144/125 112/153/126 111/152/124
f 104/144/125 105/145/127 113/154/128 112/153/126
f 105/145/127 106/146/129 114/155/130 113/154/128
f 106/146/129 99/138/115 107/147/118 114/155/130
