# This file uses centimeters as units for non-parametric coordinates.

v 1.657068 0.189117 -0.956711
v 0.956709 0.189117 -1.657066
v 0.000000 0.189117 -1.913414
v -0.956709 0.189117 -1.657066
v -1.657068 0.189117 -0.956711
v -1.913418 0.189117 0.000000
v -1.657068 0.189117 0.956711
v -0.956709 0.189117 1.657066
v 0.000000 0.189117 1.913414
v 0.956709 0.189117 1.657066
v 1.657068 0.189117 0.956711
v 1.913418 0.189117 0.000000
v 3.061863 0.934891 -1.767769
v 1.767767 0.934891 -3.061859
v 0.000000 0.934891 -3.535538
v -1.767767 0.934891 -3.061859
v -3.061863 0.934891 -1.767769
v -3.535534 0.934891 0.000000
v -3.061863 0.934891 1.767769
v -1.767767 0.934891 3.061859
v 0.000000 0.934891 3.535538
v 1.767767 0.934891 3.061859
v 3.061863 0.934891 1.767769
v 3.535534 0.934891 0.000000
v 4.000515 2.324249 -2.309700
v 2.309698 2.324249 -4.000519
v 0.000000 2.324249 -4.619400
v -2.309698 2.324249 -4.000519
v -4.000515 2.324249 -2.309700
v -4.619398 2.324249 0.000000
v -4.000515 2.324249 2.309700
v -2.309698 2.324249 4.000519
v 0.000000 2.324249 4.619400
v 2.309698 2.324249 4.000519
v 4.000515 2.324249 2.309700
v 4.619398 2.324249 0.000000
v 4.330128 3.954880 -2.500000
v 2.500000 3.954880 -4.330124
v 0.000000 3.954880 -5.000000
v -2.500000 3.954880 -4.330124
v -4.330128 3.954880 -2.500000
v -5.000000 3.954880 0.000000
v -4.330128 3.954880 2.500000
v -2.500000 3.954880 4.330124
v 0.000000 3.954880 5.000000
v 2.500000 3.954880 4.330124
v 4.330128 3.954880 2.500000
v 5.000000 3.954880 0.000000
v 4.000515 5.338333 -2.309700
v 2.309698 5.338333 -4.000519
v 0.000000 5.338333 -4.619400
v -2.309698 5.338333 -4.000519
v -4.000515 5.338333 -2.309700
v -4.619398 5.338333 0.000000
v -4.000515 5.338333 2.309700
v -2.309698 5.338333 4.000519
v 0.000000 5.338333 4.619400
v 2.309698 5.338333 4.000519
v 4.000515 5.338333 2.309700
v 4.619398 5.338333 0.000000
v 3.061863 6.194145 -1.767769
v 1.767767 6.194145 -3.061859
v 0.000000 6.194145 -3.535538
v -1.767767 6.194145 -3.061859
v -3.061863 6.194145 -1.767769
v -3.535534 6.194145 0.000000
v -3.061863 6.194145 1.767769
v -1.767767 6.194145 3.061859
v 0.000000 6.194145 3.535538
v 1.767767 6.194145 3.061859
v 3.061863 6.194145 1.767769
v 3.535534 6.194145 0.000000
v 1.657068 6.558456 -0.956711
v 0.956709 6.558456 -1.657066
v 0.000000 6.558456 -1.913414
v -0.956709 6.558456 -1.657066
v -1.657068 6.558456 -0.956711
v -1.913418 6.558456 0.000000
v -1.657068 6.558456 0.956711
v -0.956709 6.558456 1.657066
v 0.000000 6.558456 1.913414
v 0.956709 6.558456 1.657066
v 1.657068 6.558456 0.956711
v 1.913418 6.558456 0.000000
v 0.000000 0.000000 0.000000
v 0.000000 5.904167 0.000000
v 0.170824 5.843521 -0.170822
v 0.000000 5.843521 -0.241585
v -0.170824 5.843521 -0.170822
v -0.241581 5.843521 0.000000
v -0.170824 5.843521 0.170822
v 0.000000 5.843521 0.241585
v 0.170824 5.843521 0.170822
v 0.241581 5.843521 0.000000
v 0.314304 8.217789 -0.424133
v -0.098906 8.311966 -0.619568
v -0.506044 8.480370 -0.465660
v -0.668617 8.624344 -0.052559
v -0.491390 8.659554 0.377739
v -0.078182 8.565376 0.573181
v 0.328959 8.396973 0.419273
v 0.491529 8.252991 0.006180
v -0.088543 8.438667 -0.023193
v 0.094015 7.108231 -0.141838
v -0.128433 7.108231 -0.233978
v -0.350883 7.108231 -0.141838
v -0.443026 7.108231 0.080620
v -0.350883 7.108231 0.303070
v -0.128433 7.108231 0.395210
v 0.094015 7.108231 0.303070
v 0.186159 7.108231 0.080620
v 1.629747 6.893646 -1.629745
v 0.000000 6.893646 -2.304810
v -1.629747 6.893646 -1.629745
v -2.304811 6.893646 0.000000
v -1.629747 6.893646 1.629745
v 0.000000 6.893646 2.304810
v 1.629747 6.893646 1.629745
v 2.304811 6.893646 0.000000
v 0.000000 5.848305 0.000000
v 0.480528 6.893646 -1.160103
v -0.480528 6.893646 -1.160103
v -1.160101 6.893646 -0.480530
v -1.160101 6.893646 0.480530
v -0.480528 6.893646 1.160103
v 0.480528 6.893646 1.160103
v 1.160101 6.893646 0.480530
v 1.160101 6.893646 -0.480530
v 0.744965 6.570564 -0.744965
v 0.219652 6.570564 -0.530281
v 0.000000 6.570564 -1.053535
v -0.219652 6.570564 -0.530281
v -0.744965 6.570564 -0.744965
v -0.530289 6.570564 -0.219650
v -1.053539 6.570564 0.000000
v -0.530289 6.570564 0.219650
v -0.744965 6.570564 0.744965
v -0.219652 6.570564 0.530281
v 0.000000 6.570564 1.053535
v 0.219652 6.570564 0.530281
v 0.744965 6.570564 0.744965
v 0.530289 6.570564 0.219650
v 1.053539 6.570564 0.000000
v 0.530289 6.570564 -0.219650
vt 0.016488 0.760895
vt 0.019108 0.760828
vt 0.021444 0.759742
vt 0.016488 0.760895
vt 0.019108 0.760828
vt 0.021444 0.759742
vt 0.016488 0.760895
vt 0.019108 0.760828
vt 0.021444 0.759742
vt 0.016488 0.760895
vt 0.019108 0.760828
vt 0.021444 0.759742
vt 0.015529 0.765097
vt 0.020141 0.765060
vt 0.011198 0.763912
vt 0.015529 0.765097
vt 0.020141 0.765060
vt 0.011198 0.763912
vt 0.015529 0.765097
vt 0.020141 0.765060
vt 0.011198 0.763912
vt 0.015529 0.765097
vt 0.020141 0.765060
vt 0.011198 0.763912
vt 0.014938 0.769202
vt 0.020723 0.769190
vt 0.009205 0.768480
vt 0.014938 0.769202
vt 0.020723 0.769190
vt 0.009205 0.768480
vt 0.014938 0.769202
vt 0.020723 0.769190
vt 0.009205 0.768480
vt 0.014938 0.769202
vt 0.020723 0.769190
vt 0.009205 0.768480
vt 0.014782 0.773105
vt 0.020861 0.773105
vt 0.008555 0.773228
vt 0.014782 0.773105
vt 0.020862 0.773105
vt 0.008555 0.773228
vt 0.014782 0.773105
vt 0.020861 0.773105
vt 0.008555 0.773228
vt 0.014782 0.773105
vt 0.020861 0.773105
vt 0.008555 0.773228
vt 0.014994 0.776449
vt 0.020631 0.776445
vt 0.009244 0.777335
vt 0.014995 0.776449
vt 0.020631 0.776445
vt 0.009244 0.777335
vt 0.014994 0.776449
vt 0.020631 0.776445
vt 0.009244 0.777335
vt 0.014994 0.776449
vt 0.020631 0.776445
vt 0.009244 0.777335
vt 0.015497 0.779661
vt 0.020090 0.779626
vt 0.011068 0.780966
vt 0.015497 0.779661
vt 0.020090 0.779626
vt 0.011068 0.780966
vt 0.015497 0.779661
vt 0.020090 0.779626
vt 0.011068 0.780966
vt 0.015497 0.779661
vt 0.020090 0.779626
vt 0.011068 0.780966
vt 0.016495 0.783603
vt 0.019145 0.783529
vt 0.014148 0.784684
vt 0.016495 0.783603
vt 0.019145 0.783529
vt 0.014148 0.784684
vt 0.016495 0.783603
vt 0.019145 0.783529
vt 0.014148 0.784684
vt 0.016495 0.783603
vt 0.019145 0.783529
vt 0.014148 0.784684
vt 0.017660 0.756195
vt 0.017982 0.788491
vt 0.988303 0.970350
vt 0.983728 0.971931
vt 0.985009 0.975388
vt 0.989801 0.974126
vt 0.984361 0.971677
vt 0.985694 0.975092
vt 0.984989 0.971388
vt 0.986305 0.974870
vt 0.985660 0.971167
vt 0.986848 0.974608
vt 0.986332 0.970971
vt 0.987403 0.974378
vt 0.986999 0.970794
vt 0.987997 0.974164
vt 0.987651 0.970607
vt 0.988759 0.974023
vt 0.987344 0.976052
vt 0.986496 0.967031
vt 0.982970 0.968325
vt 0.983491 0.968238
vt 0.984022 0.968115
vt 0.984556 0.967944
vt 0.985072 0.967739
vt 0.985559 0.967505
vt 0.986029 0.967263
vt 0.970921 0.988224
vt 0.969778 0.987428
vt 0.969932 0.985257
vt 0.968288 0.986683
vt 0.966965 0.986246
vt 0.967762 0.985103
vt 0.968506 0.983614
vt 0.968943 0.982291
vt 0.970086 0.983087
vt 0.971576 0.983832
vt 0.972899 0.984268
vt 0.972102 0.985412
vt 0.971358 0.986901
vt 0.968534 0.988054
vt 0.967135 0.983859
vt 0.971331 0.982460
vt 0.972729 0.986656
vt 0.971946 0.991298
vt 0.969656 0.989149
vt 0.967084 0.990953
vt 0.966985 0.987814
vt 0.963891 0.987271
vt 0.966040 0.984981
vt 0.964236 0.982409
vt 0.967376 0.982310
vt 0.967918 0.979216
vt 0.970209 0.981366
vt 0.972780 0.979562
vt 0.972880 0.982701
vt 0.975973 0.983244
vt 0.973824 0.985534
vt 0.975628 0.988105
vt 0.972488 0.988205
vt 0.021491 0.784472
vt 0.017982 0.788491
vt 0.017982 0.788491
vt 0.017982 0.788491
vt 0.021491 0.784472
vt 0.021491 0.784472
vt 0.021491 0.784472
vt 0.017660 0.756195
vt 0.017660 0.756195
vt 0.017660 0.756195
vt 0.014170 0.759947
vt 0.014170 0.759947
vt 0.014170 0.759947
vt 0.014170 0.759947
vt 0.024390 0.780877
vt 0.024390 0.780877
vt 0.024390 0.780877
vt 0.024390 0.780877
vt 0.026225 0.777411
vt 0.026225 0.777411
vt 0.026225 0.777411
vt 0.026225 0.777411
vt 0.027047 0.773370
vt 0.027047 0.773370
vt 0.027047 0.773370
vt 0.027047 0.773370
vt 0.026567 0.768545
vt 0.026567 0.768545
vt 0.026567 0.768545
vt 0.026567 0.768545
vt 0.024605 0.763805
vt 0.024605 0.763805
vt 0.024605 0.763805
vt 0.024605 0.763805
vt 0.983086 0.972080
vt 0.984162 0.975958
vt 0.982455 0.968405
vn 0.305098 -0.935888 -0.176149
vn 0.176148 -0.935888 -0.305098
vn 0.339342 -0.734430 -0.587758
vn 0.587758 -0.734430 -0.339343
vn 0.000000 -0.935889 -0.352297
vn 0.000000 -0.734430 -0.678684
vn -0.176148 -0.935888 -0.305098
vn -0.339342 -0.734430 -0.587758
vn -0.305098 -0.935888 -0.176149
vn -0.587758 -0.734430 -0.339343
vn -0.352297 -0.935888 0.000000
vn -0.678685 -0.734430 0.000000
vn -0.305098 -0.935888 0.176149
vn -0.587758 -0.734430 0.339343
vn -0.176148 -0.935888 0.305098
vn -0.339342 -0.734430 0.587758
vn 0.000000 -0.935889 0.352297
vn 0.000000 -0.734430 0.678684
vn 0.176148 -0.935888 0.305098
vn 0.339342 -0.734430 0.587758
vn 0.305098 -0.935888 0.176149
vn 0.587758 -0.734430 0.339343
vn 0.352297 -0.935888 0.000000
vn 0.678685 -0.734430 -0.000000
vn 0.457022 -0.405614 -0.791586
vn 0.791586 -0.405614 -0.457022
vn 0.000000 -0.405614 -0.914045
vn -0.457022 -0.405614 -0.791586
vn -0.791586 -0.405614 -0.457022
vn -0.914044 -0.405614 0.000000
vn -0.791586 -0.405614 0.457022
vn -0.457022 -0.405614 0.791586
vn 0.000000 -0.405614 0.914045
vn 0.457022 -0.405614 0.791586
vn 0.791586 -0.405614 0.457022
vn 0.914044 -0.405614 0.000000
vn 0.500000 -0.000825 -0.866025
vn 0.866025 -0.000825 -0.500000
vn 0.000000 -0.000825 -1.000000
vn -0.500000 -0.000825 -0.866025
vn -0.866025 -0.000825 -0.500000
vn -1.000000 -0.000825 -0.000000
vn -0.866025 -0.000825 0.500000
vn -0.500000 -0.000825 0.866025
vn 0.000000 -0.000825 1.000000
vn 0.500000 -0.000825 0.866025
vn 0.866025 -0.000825 0.500000
vn 1.000000 -0.000825 0.000000
vn 0.433153 0.499511 -0.750244
vn 0.750244 0.499512 -0.433154
vn 0.000000 0.499511 -0.866307
vn -0.433153 0.499511 -0.750244
vn -0.750244 0.499512 -0.433154
vn -0.866307 0.499512 -0.000000
vn -0.750244 0.499512 0.433154
vn -0.433153 0.499511 0.750244
vn 0.000000 0.499511 0.866307
vn 0.433153 0.499511 0.750244
vn 0.750244 0.499512 0.433154
vn 0.866307 0.499512 0.000000
vn 0.240664 0.876541 -0.416841
vn 0.416842 0.876541 -0.240664
vn 0.000000 0.876541 -0.481327
vn -0.240664 0.876541 -0.416841
vn -0.416842 0.876541 -0.240664
vn -0.481328 0.876541 -0.000000
vn -0.416842 0.876541 0.240664
vn -0.240664 0.876541 0.416841
vn 0.000000 0.876541 0.481327
vn 0.240664 0.876541 0.416841
vn 0.416842 0.876541 0.240664
vn 0.481328 0.876541 0.000000
vn 0.046689 0.995631 -0.080869
vn 0.080869 0.995631 -0.046690
vn 0.000000 0.995631 -0.093379
vn -0.046689 0.995631 -0.080869
vn -0.080869 0.995631 -0.046690
vn -0.093379 0.995631 -0.000000
vn -0.080869 0.995631 0.046690
vn -0.046689 0.995631 0.080869
vn 0.000000 0.995631 0.093379
vn 0.046689 0.995631 0.080869
vn 0.080869 0.995631 0.046690
vn 0.093379 0.995631 0.000000
vn 0.000000 -1.000000 -0.000000
vn -0.000000 1.000000 -0.000000
vn 0.699451 -0.168237 -0.694597
vn -0.042390 -0.191582 -0.980561
vn -0.117187 -0.295633 -0.948087
vn 0.655467 -0.303384 -0.691607
vn -0.743560 -0.182225 -0.643360
vn -0.783060 -0.223264 -0.580492
vn -0.987746 -0.149421 0.045061
vn -0.987086 -0.143988 0.070199
vn -0.712580 -0.124641 0.690431
vn -0.738510 -0.102660 0.666382
vn -0.060588 -0.120011 0.990922
vn -0.139120 -0.114261 0.983662
vn 0.656305 -0.128315 0.743505
vn 0.590413 -0.174555 0.788000
vn 0.989094 -0.142626 0.036759
vn 0.965635 -0.250585 0.068972
vn 0.307811 0.929576 -0.202831
vn 0.307810 0.929575 -0.202840
vn 0.307815 0.929573 -0.202842
vn 0.307817 0.929573 -0.202839
vn 0.307816 0.929573 -0.202839
vn 0.307814 0.929572 -0.202845
vn 0.307812 0.929572 -0.202849
vn 0.307816 0.929570 -0.202853
vn 0.307820 0.929572 -0.202839
vn 0.710513 0.059222 -0.701187
vn 0.024677 0.008516 -0.999659
vn -0.685020 -0.080933 -0.724015
vn -0.987590 -0.156375 -0.014593
vn -0.692279 -0.171848 0.700870
vn 0.023625 -0.118189 0.992710
vn 0.726422 -0.027688 0.686691
vn 0.998875 0.044770 -0.015644
vn 0.224855 0.804180 0.550213
vn 0.278043 0.678093 0.680354
vn 0.329428 0.491638 0.806083
vn -0.329428 0.491638 0.806083
vn -0.278043 0.678093 0.680355
vn -0.224855 0.804180 0.550213
vn 0.550215 0.804179 -0.224853
vn 0.680353 0.678097 -0.278035
vn 0.806080 0.491651 -0.329415
vn 0.806080 0.491651 0.329415
vn 0.680353 0.678097 0.278035
vn 0.550215 0.804179 0.224853
vn -0.224855 0.804180 -0.550213
vn -0.278043 0.678093 -0.680354
vn -0.329428 0.491638 -0.806083
vn 0.329428 0.491638 -0.806083
vn 0.278043 0.678093 -0.680355
vn 0.224855 0.804180 -0.550213
vn -0.550215 0.804179 0.224853
vn -0.680353 0.678097 0.278035
vn -0.806080 0.491651 0.329415
vn -0.806080 0.491651 -0.329415
vn -0.680353 0.678097 -0.278035
vn -0.550215 0.804179 -0.224853
vn -0.802921 0.491645 0.337051
vn -0.677687 0.678095 0.284480
vn -0.548057 0.804179 0.230064
vn 0.548057 0.804179 0.230064
vn 0.677687 0.678094 0.284480
vn 0.802921 0.491645 0.337051
vn 0.337050 0.491645 0.802921
vn 0.284479 0.678096 0.677685
vn 0.230064 0.804180 0.548056
vn 0.230064 0.804180 -0.548056
vn 0.284479 0.678096 -0.677685
vn 0.337050 0.491645 -0.802921
vn 0.802921 0.491645 -0.337051
vn 0.677687 0.678095 -0.284480
vn 0.548057 0.804179 -0.230064
vn -0.548057 0.804179 -0.230064
vn -0.677687 0.678094 -0.284480
vn -0.802921 0.491645 -0.337051
vn -0.337050 0.491645 -0.802921
vn -0.284479 0.678096 -0.677685
vn -0.230064 0.804180 -0.548056
vn -0.230064 0.804180 0.548056
vn -0.284479 0.678096 0.677685
vn -0.337050 0.491645 0.802921
vn 0.209931 0.831892 0.513698
vn 0.209931 0.831892 0.513698
vn -0.511684 0.831891 0.214796
vn -0.511684 0.831891 0.214796
vn 0.511684 0.831891 0.214796
vn 0.511684 0.831891 0.214796
vn -0.209931 0.831892 0.513698
vn -0.209931 0.831892 0.513698
vn 0.513700 0.831890 -0.209931
vn 0.513700 0.831890 -0.209931
vn 0.214796 0.831891 0.511684
vn 0.214796 0.831891 0.511684
vn 0.214796 0.831891 -0.511684
vn 0.214796 0.831891 -0.511684
vn 0.513700 0.831890 0.209931
vn 0.513700 0.831890 0.209931
vn -0.209931 0.831892 -0.513698
vn -0.209931 0.831892 -0.513698
vn 0.511684 0.831891 -0.214796
vn 0.511684 0.831891 -0.214796
vn -0.511684 0.831891 -0.214796
vn -0.511684 0.831891 -0.214796
vn 0.209931 0.831892 -0.513698
vn 0.209931 0.831892 -0.513698
vn -0.513700 0.831890 0.209931
vn -0.513700 0.831890 0.209931
vn -0.214796 0.831891 -0.511684
vn -0.214796 0.831891 -0.511684
vn -0.214796 0.831891 0.511684
vn -0.214796 0.831891 0.511684
vn -0.513700 0.831890 -0.209931
vn -0.513700 0.831890 -0.209931
s 1
f 1/1/1 2/2/2 14/14/3 13/13/4
f 2/2/2 3/3/5 15/178/6 14/14/3
f 3/158/5 4/4/7 16/16/8 15/15/6
f 4/4/7 5/5/9 17/17/10 16/16/8
f 5/5/9 6/6/11 18/177/12 17/17/10
f 6/157/11 7/7/13 19/19/14 18/18/12
f 7/7/13 8/8/15 20/20/16 19/19/14
f 8/8/15 9/9/17 21/176/18 20/20/16
f 9/156/17 10/10/19 22/22/20 21/21/18
f 10/10/19 11/11/21 23/23/22 22/22/20
f 11/11/21 12/12/23 24/175/24 23/23/22
f 12/155/23 1/1/1 13/13/4 24/24/24
f 13/13/4 14/14/3 26/26/25 25/25/26
f 14/14/3 15/178/6 27/174/27 26/26/25
f 15/15/6 16/16/8 28/28/28 27/27/27
f 16/16/8 17/17/10 29/29/29 28/28/28
f 17/17/10 18/177/12 30/173/30 29/29/29
f 18/18/12 19/19/14 31/31/31 30/30/30
f 19/19/14 20/20/16 32/32/32 31/31/31
f 20/20/16 21/176/18 33/172/33 32/32/32
f 21/21/18 22/22/20 34/34/34 33/33/33
f 22/22/20 23/23/22 35/35/35 34/34/34
f 23/23/22 24/175/24 36/171/36 35/35/35
f 24/24/24 13/13/4 25/25/26 36/36/36
f 25/25/26 26/26/25 38/38/37 37/37/38
f 26/26/25 27/174/27 39/170/39 38/38/37
f 27/27/27 28/28/28 40/40/40 39/39/39
f 28/28/28 29/29/29 41/41/41 40/40/40
f 29/29/29 30/173/30 42/169/42 41/41/41
f 30/30/30 31/31/31 43/43/43 42/42/42
f 31/31/31 32/32/32 44/44/44 43/43/43
f 32/32/32 33/172/33 45/168/45 44/44/44
f 33/33/33 34/34/34 46/46/46 45/45/45
f 34/34/34 35/35/35 47/47/47 46/46/46
f 35/35/35 36/171/36 48/167/48 47/47/47
f 36/36/36 25/25/26 37/37/38 48/48/48
f 37/37/38 38/38/37 50/50/49 49/49/50
f 38/38/37 39/170/39 51/166/51 50/50/49
f 39/39/39 40/40/40 52/52/52 51/51/51
f 40/40/40 41/41/41 53/53/53 52/52/52
f 41/41/41 42/169/42 54/165/54 53/53/53
f 42/42/42 43/43/43 55/55/55 54/54/54
f 43/43/43 44/44/44 56/56/56 55/55/55
f 44/44/44 45/168/45 57/164/57 56/56/56
f 45/45/45 46/46/46 58/58/58 57/57/57
f 46/46/46 47/47/47 59/59/59 58/58/58
f 47/47/47 48/167/48 60/163/60 59/59/59
f 48/48/48 37/37/38 49/49/50 60/60/60
f 49/49/50 50/50/49 62/62/61 61/61/62
f 50/50/49 51/166/51 63/162/63 62/62/61
f 51/51/51 52/52/52 64/64/64 63/63/63
f 52/52/52 53/53/53 65/65/65 64/64/64
f 53/53/53 54/165/54 66/161/66 65/65/65
f 54/54/54 55/55/55 67/67/67 66/66/66
f 55/55/55 56/56/56 68/68/68 67/67/67
f 56/56/56 57/164/57 69/160/69 68/68/68
f 57/57/57 58/58/58 70/70/70 69/69/69
f 58/58/58 59/59/59 71/71/71 70/70/70
f 59/59/59 60/163/60 72/159/72 71/71/71
f 60/60/60 49/49/50 61/61/62 72/72/72
f 61/61/62 62/62/61 74/74/73 73/73/74
f 62/62/61 63/162/63 75/151/75 74/74/73
f 63/63/63 64/64/64 76/76/76 75/75/75
f 64/64/64 65/65/65 77/77/77 76/76/76
f 65/65/65 66/161/66 78/150/78 77/77/77
f 66/66/66 67/67/67 79/79/79 78/78/78
f 67/67/67 68/68/68 80/80/80 79/79/79
f 68/68/68 69/160/69 81/149/81 80/80/80
f 69/69/69 70/70/70 82/82/82 81/81/81
f 70/70/70 71/71/71 83/83/83 82/82/82
f 71/71/71 72/159/72 84/145/84 83/83/83
f 72/72/72 61/61/62 73/73/74 84/84/84
f 2/2/2 1/1/1 85/85/85
f 3/3/5 2/2/2 85/85/85
f 4/4/7 3/158/5 85/152/85
f 5/5/9 4/4/7 85/152/85
f 6/6/11 5/5/9 85/152/85
f 7/7/13 6/157/11 85/153/85
f 8/8/15 7/7/13 85/153/85
f 9/9/17 8/8/15 85/153/85
f 10/10/19 9/156/17 85/154/85
f 11/11/21 10/10/19 85/154/85
f 12/12/23 11/11/21 85/154/85
f 1/1/1 12/155/23 85/85/85
f 73/73/74 74/74/73 86/148/86
f 74/74/73 75/151/75 86/148/86
f 75/75/75 76/76/76 86/147/86
f 76/76/76 77/77/77 86/147/86
f 77/77/77 78/150/78 86/147/86
f 78/78/78 79/79/79 86/146/86
f 79/79/79 80/80/80 86/146/86
f 80/80/80 81/149/81 86/146/86
f 81/81/81 82/82/82 86/86/86
f 82/82/82 83/83/83 86/86/86
f 83/83/83 84/145/84 86/86/86
f 84/84/84 73/73/74 86/148/86
s 2
f 104/179/87 105/88/88 96/89/89 95/180/90
f 105/88/88 106/91/91 97/92/92 96/89/89
f 106/91/91 107/93/93 98/94/94 97/92/92
f 107/93/93 108/95/95 99/96/96 98/94/94
f 108/95/95 109/97/97 100/98/98 99/96/96
f 109/97/97 110/99/99 101/100/100 100/98/98
f 110/99/99 111/101/101 102/102/102 101/100/100
f 111/101/101 104/87/87 95/90/90 102/102/102
s 3
f 95/180/103 96/89/104 103/103/105
f 96/89/104 97/92/106 103/103/105
f 97/92/106 98/94/107 103/103/105
f 98/94/107 99/96/108 103/103/105
f 99/96/108 100/98/109 103/103/105
f 100/98/109 101/100/110 103/103/105
f 101/100/110 102/102/111 103/103/105
f 102/102/111 95/90/103 103/103/105
s 2
f 87/181/112 88/105/113 105/88/88 104/179/87
f 88/105/113 89/106/114 106/91/91 105/88/88
f 89/106/114 90/107/115 107/93/93 106/91/91
f 90/107/115 91/108/116 108/95/95 107/93/93
f 91/108/116 92/109/117 109/97/97 108/95/95
f 92/109/117 93/110/118 110/99/99 109/97/97
f 93/110/118 94/111/119 111/101/101 110/99/99
f 94/111/119 87/104/112 104/87/87 111/101/101
s 4
f 129/112/120 130/113/121 120/114/122
s 5
f 120/114/123 132/115/124 133/116/125
s 6
f 133/116/126 134/117/127 120/114/128
s 7
f 120/114/129 136/118/130 137/119/131
s 8
f 137/119/132 138/120/133 120/114/134
s 9
f 120/114/135 140/121/136 141/122/137
s 10
f 141/122/138 142/123/139 120/114/140
s 11
f 120/114/141 144/124/142 129/112/143
s 12
f 120/114/144 130/113/145 131/125/146
s 13
f 131/125/147 132/115/148 120/114/149
s 14
f 120/114/150 134/117/151 135/126/152
s 15
f 135/126/153 136/118/154 120/114/155
s 16
f 120/114/156 138/120/157 139/127/158
s 17
f 139/127/159 140/121/160 120/114/161
s 18
f 120/114/162 142/123/163 143/128/164
s 19
f 143/128/165 144/124/166 120/114/167
s 4
f 112/129/168 121/130/169 130/113/121 129/112/120
s 12
f 131/125/146 130/113/145 121/130/170 113/131/171
s 13
f 113/131/172 122/132/173 132/115/148 131/125/147
s 5
f 133/116/125 132/115/124 122/132/174 114/133/175
s 6
f 114/133/176 123/134/177 134/117/127 133/116/126
s 14
f 135/126/152 134/117/151 123/134/178 115/135/179
s 15
f 115/135/180 124/136/181 136/118/154 135/126/153
s 7
f 137/119/131 136/118/130 124/136/182 116/137/183
s 8
f 116/137/184 125/138/185 138/120/133 137/119/132
s 16
f 139/127/158 138/120/157 125/138/186 117/139/187
s 17
f 117/139/188 126/140/189 140/121/160 139/127/159
s 9
f 141/122/137 140/121/136 126/140/190 118/141/191
s 10
f 118/141/192 127/142/193 142/123/139 141/122/138
s 18
f 143/128/164 142/123/163 127/142/194 119/143/195
s 19
f 119/143/196 128/144/197 144/124/166 143/128/165
s 11
f 129/112/143 144/124/142 128/144/198 112/129/199
