# This file uses centimeters as units for non-parametric coordinates.

v -0.588367 0.000000 -0.175613
v -0.623371 0.000000 -0.228003
v -0.675766 0.000000 -0.263008
v -0.737564 0.000000 -0.275301
v -0.799362 0.000000 -0.263008
v -0.851746 0.000000 -0.228003
v -0.886757 0.000000 -0.175613
v -0.899048 0.000000 -0.113815
v -0.886757 0.000000 -0.052017
v -0.851746 0.000000 0.000373
v -0.799362 0.000000 0.035379
v -0.737564 0.000000 0.047671
v -0.675766 0.000000 0.035379
v -0.623375 0.000000 0.000373
v -0.588367 0.000000 -0.052017
v -0.576077 0.000000 -0.113815
v -0.523033 0.574081 -0.202675
v -0.573368 0.574081 -0.278008
v -0.648697 0.574081 -0.328342
v -0.737564 0.574081 -0.346020
v -0.826424 0.574081 -0.328342
v -0.901756 0.574081 -0.278009
v -0.952087 0.574081 -0.202677
v -0.969765 0.574081 -0.113815
v -0.952087 0.574081 -0.024954
v -0.901756 0.574081 0.050378
v -0.826424 0.574081 0.100714
v -0.737564 0.574081 0.118390
v -0.648697 0.574081 0.100714
v -0.573368 0.574081 0.050378
v -0.523033 0.574081 -0.024954
v -0.505356 0.574081 -0.113815
v -0.737564 0.000000 -0.113815
v -0.529827 0.574081 -0.113815
v -0.545639 0.574081 -0.193312
v -0.590672 0.574081 -0.260706
v -0.658066 0.574081 -0.305737
v -0.737564 0.574081 -0.321550
v -0.817055 0.574081 -0.305737
v -0.884453 0.574081 -0.260706
v -0.929482 0.574081 -0.193312
v -0.945297 0.574081 -0.113815
v -0.929482 0.574081 -0.034318
v -0.884453 0.574081 0.033075
v -0.817055 0.574081 0.078106
v -0.737564 0.574081 0.093920
v -0.658066 0.574081 0.078106
v -0.590672 0.574081 0.033075
v -0.545639 0.574081 -0.034318
v -0.545120 0.417797 -0.113815
v -0.559769 0.417797 -0.187458
v -0.601486 0.417797 -0.249889
v -0.663918 0.417797 -0.291605
v -0.737564 0.417797 -0.306255
v -0.811203 0.417797 -0.291607
v -0.873634 0.417797 -0.249891
v -0.915352 0.417797 -0.187458
v -0.930000 0.417797 -0.113815
v -0.915352 0.417797 -0.040172
v -0.873634 0.417797 0.022260
v -0.811203 0.417797 0.063976
v -0.737564 0.417797 0.078624
v -0.663918 0.417797 0.063976
v -0.601486 0.417797 0.022260
v -0.559769 0.417797 -0.040172
v -0.525970 0.482227 -0.201458
v -0.575619 0.482227 -0.275759
v -0.649918 0.482227 -0.325405
v -0.737564 0.482227 -0.342838
v -0.825203 0.482227 -0.325405
v -0.899506 0.482227 -0.275759
v -0.949150 0.482227 -0.201458
v -0.966583 0.482227 -0.113815
v -0.949150 0.482227 -0.026172
v -0.899506 0.482227 0.048128
v -0.825203 0.482227 0.097774
v -0.737564 0.482227 0.115208
v -0.649918 0.482227 0.097775
v -0.575619 0.482227 0.048128
v -0.525970 0.482227 -0.026172
v -0.508537 0.482227 -0.113815
v -0.737564 0.458427 -0.113815
vt 0.644356 0.096456
vt 0.610485 0.045765
vt 0.559794 0.011894
vt 0.500000 0.000000
vt 0.440206 0.011894
vt 0.389515 0.045765
vt 0.355644 0.096456
vt 0.343750 0.156250
vt 0.355644 0.216044
vt 0.389515 0.266735
vt 0.440206 0.300606
vt 0.500000 0.312500
vt 0.559794 0.300606
vt 0.610485 0.266735
vt 0.644356 0.216044
vt 0.656250 0.156250
vt 0.375000 0.312500
vt 0.390625 0.312500
vt 0.406250 0.312500
vt 0.421875 0.312500
vt 0.437500 0.312500
vt 0.453125 0.312500
vt 0.468750 0.312500
vt 0.484375 0.312500
vt 0.500000 0.312500
vt 0.515625 0.312500
vt 0.531250 0.312500
vt 0.546875 0.312500
vt 0.562500 0.312500
vt 0.578125 0.312500
vt 0.593750 0.312500
vt 0.609375 0.312500
vt 0.625000 0.312500
vt 0.375000 0.688440
vt 0.390625 0.688440
vt 0.406250 0.688440
vt 0.421875 0.688440
vt 0.437500 0.688440
vt 0.453125 0.688440
vt 0.468750 0.688440
vt 0.484375 0.688440
vt 0.500000 0.688440
vt 0.515625 0.688440
vt 0.531250 0.688440
vt 0.546875 0.688440
vt 0.562500 0.688440
vt 0.578125 0.688440
vt 0.593750 0.688440
vt 0.609375 0.688440
vt 0.625000 0.688440
vt 0.644356 0.783956
vt 0.610485 0.733265
vt 0.559794 0.699394
vt 0.500000 0.687500
vt 0.440206 0.699394
vt 0.389515 0.733265
vt 0.355644 0.783956
vt 0.343750 0.843750
vt 0.355644 0.903544
vt 0.389515 0.954235
vt 0.440206 0.988106
vt 0.500000 1.000000
vt 0.559794 0.988106
vt 0.610485 0.954235
vt 0.644356 0.903544
vt 0.656250 0.843750
vt 0.500000 0.150000
vt 0.656250 0.843750
vt 0.644356 0.903544
vt 0.610485 0.954235
vt 0.559794 0.988106
vt 0.500000 1.000000
vt 0.440206 0.988106
vt 0.389515 0.954235
vt 0.355644 0.903544
vt 0.343750 0.843750
vt 0.355644 0.783956
vt 0.389515 0.733265
vt 0.440206 0.699394
vt 0.500000 0.687500
vt 0.559794 0.699394
vt 0.610485 0.733265
vt 0.644356 0.783956
vt 0.656250 0.843750
vt 0.644356 0.903544
vt 0.610485 0.954235
vt 0.559794 0.988106
vt 0.500000 1.000000
vt 0.440206 0.988106
vt 0.389515 0.954235
vt 0.355644 0.903544
vt 0.343750 0.843750
vt 0.355644 0.783956
vt 0.389515 0.733265
vt 0.440206 0.699394
vt 0.500000 0.687500
vt 0.559794 0.699394
vt 0.610485 0.733265
vt 0.644356 0.783956
vt 0.625000 0.628289
vt 0.375000 0.628289
vt 0.390625 0.628289
vt 0.406250 0.628289
vt 0.421875 0.628289
vt 0.437500 0.628289
vt 0.453125 0.628289
vt 0.468750 0.628289
vt 0.484375 0.628289
vt 0.500000 0.628289
vt 0.515625 0.628289
vt 0.531250 0.628289
vt 0.546875 0.628289
vt 0.562500 0.628289
vt 0.578125 0.628289
vt 0.593750 0.628289
vt 0.609375 0.628289
vt 0.500000 0.843750
vn 0.917261 -0.119484 -0.379941
vn 0.702036 -0.119484 -0.702046
vn 0.706690 -0.034611 -0.706676
vn 0.923322 -0.034605 -0.382464
vn 0.379936 -0.119485 -0.917263
vn 0.382458 -0.034612 -0.923324
vn 0.000000 -0.119484 -0.992836
vn 0.000000 -0.034608 -0.999401
vn -0.379950 -0.119485 -0.917258
vn -0.382461 -0.034616 -0.923323
vn -0.702042 -0.119486 -0.702040
vn -0.706686 -0.034622 -0.706680
vn -0.917259 -0.119483 -0.379946
vn -0.923330 -0.034612 -0.382446
vn -0.992837 -0.119479 -0.000000
vn -0.999401 -0.034606 -0.000000
vn -0.917260 -0.119483 0.379946
vn -0.923330 -0.034609 0.382445
vn -0.702041 -0.119486 0.702041
vn -0.706687 -0.034624 0.706679
vn -0.379951 -0.119486 0.917257
vn -0.382463 -0.034632 0.923322
vn -0.000003 -0.119485 0.992836
vn -0.000003 -0.034626 0.999400
vn 0.379939 -0.119487 0.917262
vn 0.382456 -0.034627 0.923325
vn 0.702037 -0.119487 0.702045
vn 0.706688 -0.034622 0.706678
vn 0.917258 -0.119486 0.379948
vn 0.923322 -0.034610 0.382464
vn 0.992836 -0.119485 0.000000
vn 0.999401 -0.034605 0.000000
vn 0.000000 -1.000000 0.000000
vn 0.000000 -1.000000 0.000000
vn 0.000000 -1.000000 0.000000
vn 0.000000 -1.000000 0.000000
vn 0.000000 -1.000000 0.000000
vn 0.000000 -1.000000 0.000000
vn 0.000000 -1.000000 0.000000
vn 0.000000 -1.000000 0.000000
vn 0.000000 -1.000000 0.000000
vn 0.000000 -1.000000 0.000000
vn 0.000000 -1.000000 0.000000
vn 0.000000 -1.000000 0.000000
vn 0.000000 -1.000000 0.000000
vn 0.000000 -1.000000 0.000000
vn 0.000000 -1.000000 0.000000
vn 0.000000 -1.000000 0.000000
vn 0.000000 -1.000000 0.000000
vn -0.190856 0.978429 0.079058
vn -0.000002 1.000000 -0.000000
vn -0.206582 0.978429 -0.000000
vn 0.000000 1.000000 0.000000
vn 0.000000 1.000000 -0.000001
vn 0.000000 1.000000 -0.000001
vn 0.000000 1.000000 0.000000
vn 0.000000 1.000000 -0.000001
vn 0.000000 1.000000 -0.000001
vn 0.000000 1.000000 0.000000
vn 0.000000 1.000000 0.000000
vn 0.000000 1.000000 -0.000001
vn 0.000000 1.000000 -0.000001
vn 0.000000 1.000000 -0.000000
vn 0.000000 1.000000 -0.000000
vn 0.000000 1.000000 0.000001
vn 0.000000 1.000000 0.000001
vn 0.000000 1.000000 0.000000
vn 0.000000 1.000000 0.000000
vn 0.000000 1.000000 0.000000
vn 0.000000 1.000000 0.000000
vn 0.000000 1.000000 0.000001
vn 0.000000 1.000000 0.000001
vn 0.000000 1.000000 -0.000000
vn 0.000000 1.000000 -0.000000
vn 0.000000 1.000000 -0.000000
vn 0.000000 1.000000 -0.000000
vn 0.000000 1.000000 0.000001
vn 0.000000 1.000000 0.000001
vn 0.000000 1.000000 0.000000
vn 0.000000 1.000000 0.000000
vn 0.000000 1.000000 0.000000
vn 0.000000 1.000000 0.000000
vn 0.000000 1.000000 0.000000
vn 0.000000 1.000000 0.000000
vn -0.995246 0.097392 0.000000
vn -0.919484 0.097396 0.380872
vn -0.919484 0.097396 0.380871
vn -0.995246 0.097392 0.000000
vn -0.703738 0.097402 0.703752
vn -0.703739 0.097402 0.703750
vn -0.380863 0.097403 0.919487
vn -0.380866 0.097403 0.919486
vn -0.000006 0.097400 0.995245
vn -0.000006 0.097400 0.995245
vn 0.380872 0.097398 0.919484
vn 0.380873 0.097398 0.919483
vn 0.703743 0.097404 0.703746
vn 0.703740 0.097404 0.703749
vn 0.919484 0.097405 0.380869
vn 0.919484 0.097405 0.380868
vn 0.995245 0.097404 -0.000000
vn 0.995245 0.097404 0.000000
vn 0.919484 0.097405 -0.380870
vn 0.919484 0.097405 -0.380869
vn 0.703740 0.097406 -0.703748
vn 0.703738 0.097406 -0.703751
vn 0.380871 0.097402 -0.919483
vn 0.380873 0.097402 -0.919483
vn -0.000000 0.097402 -0.995245
vn 0.000000 0.097402 -0.995245
vn -0.380858 0.097399 -0.919489
vn -0.380860 0.097399 -0.919488
vn -0.703739 0.097397 -0.703750
vn -0.703740 0.097397 -0.703750
vn -0.919485 0.097395 -0.380870
vn -0.919485 0.097395 -0.380869
vn 0.914951 -0.138699 -0.378982
vn 0.700267 -0.138698 -0.700278
vn 0.378977 -0.138700 -0.914953
vn -0.000000 -0.138700 -0.990335
vn -0.378998 -0.138699 -0.914945
vn -0.700272 -0.138699 -0.700273
vn -0.914947 -0.138697 -0.378993
vn -0.990335 -0.138694 -0.000000
vn -0.914947 -0.138697 0.378992
vn -0.700271 -0.138697 0.700274
vn -0.378997 -0.138696 0.914945
vn -0.000003 -0.138697 0.990335
vn 0.378982 -0.138699 0.914951
vn 0.700266 -0.138699 0.700279
vn 0.914947 -0.138701 0.378991
vn 0.990334 -0.138701 -0.000000
vn 0.206574 0.978431 0.000000
vn 0.190850 0.978431 -0.079054
vn 0.146072 0.978430 -0.146074
vn 0.079055 0.978430 -0.190854
vn 0.000003 0.978430 -0.206578
vn -0.079056 0.978430 -0.190854
vn -0.146075 0.978429 -0.146076
vn -0.190856 0.978429 -0.079058
vn -0.146075 0.978429 0.146077
vn -0.079056 0.978430 0.190855
vn 0.000000 0.978430 0.206579
vn 0.079053 0.978430 0.190853
vn 0.146071 0.978430 0.146073
vn 0.190849 0.978431 0.079054
s 1
f 66/101/1 67/102/2 18/35/3 17/34/4
f 67/102/2 68/103/5 19/36/6 18/35/3
f 68/103/5 69/104/7 20/37/8 19/36/6
f 69/104/7 70/105/9 21/38/10 20/37/8
f 70/105/9 71/106/11 22/39/12 21/38/10
f 71/106/11 72/107/13 23/40/14 22/39/12
f 72/107/13 73/108/15 24/41/16 23/40/14
f 73/108/15 74/109/17 25/42/18 24/41/16
f 74/109/17 75/110/19 26/43/20 25/42/18
f 75/110/19 76/111/21 27/44/22 26/43/20
f 76/111/21 77/112/23 28/45/24 27/44/22
f 77/112/23 78/113/25 29/46/26 28/45/24
f 78/113/25 79/114/27 30/47/28 29/46/26
f 79/114/27 80/115/29 31/48/30 30/47/28
f 80/115/29 81/116/31 32/49/32 31/48/30
f 81/116/31 66/100/1 17/50/4 32/49/32
s 2
f 2/2/33 1/1/34 33/67/35
f 3/3/36 2/2/33 33/67/35
f 4/4/37 3/3/36 33/67/35
f 5/5/38 4/4/37 33/67/35
f 6/6/39 5/5/38 33/67/35
f 7/7/40 6/6/39 33/67/35
f 8/8/41 7/7/40 33/67/35
f 9/9/42 8/8/41 33/67/35
f 10/10/43 9/9/42 33/67/35
f 11/11/44 10/10/43 33/67/35
f 12/12/45 11/11/44 33/67/35
f 13/13/46 12/12/45 33/67/35
f 14/14/47 13/13/46 33/67/35
f 15/15/48 14/14/47 33/67/35
f 16/16/49 15/15/48 33/67/35
f 1/1/34 16/16/49 33/67/35
s 3
f 59/93/50 82/117/51 58/92/52
s 4
f 32/66/53 17/65/54 35/69/55 34/68/56
f 17/65/54 18/64/57 36/70/58 35/69/55
f 18/64/57 19/63/59 37/71/60 36/70/58
f 19/63/59 20/62/61 38/72/62 37/71/60
f 20/62/61 21/61/63 39/73/64 38/72/62
f 21/61/63 22/60/65 40/74/66 39/73/64
f 22/60/65 23/59/67 41/75/68 40/74/66
f 23/59/67 24/58/69 42/76/70 41/75/68
f 24/58/69 25/57/71 43/77/72 42/76/70
f 25/57/71 26/56/73 44/78/74 43/77/72
f 26/56/73 27/55/75 45/79/76 44/78/74
f 27/55/75 28/54/77 46/80/78 45/79/76
f 28/54/77 29/53/79 47/81/80 46/80/78
f 29/53/79 30/52/81 48/82/82 47/81/80
f 30/52/81 31/51/83 49/83/84 48/82/82
f 31/51/83 32/66/53 34/68/56 49/83/84
s 5
f 34/68/85 35/69/86 51/85/87 50/84/88
f 35/69/86 36/70/89 52/86/90 51/85/87
f 36/70/89 37/71/91 53/87/92 52/86/90
f 37/71/91 38/72/93 54/88/94 53/87/92
f 38/72/93 39/73/95 55/89/96 54/88/94
f 39/73/95 40/74/97 56/90/98 55/89/96
f 40/74/97 41/75/99 57/91/100 56/90/98
f 41/75/99 42/76/101 58/92/102 57/91/100
f 42/76/101 43/77/103 59/93/104 58/92/102
f 43/77/103 44/78/105 60/94/106 59/93/104
f 44/78/105 45/79/107 61/95/108 60/94/106
f 45/79/107 46/80/109 62/96/110 61/95/108
f 46/80/109 47/81/111 63/97/112 62/96/110
f 47/81/111 48/82/113 64/98/114 63/97/112
f 48/82/113 49/83/115 65/99/116 64/98/114
f 49/83/115 34/68/85 50/84/88 65/99/116
s 1
f 1/17/117 2/18/118 67/102/2 66/101/1
f 2/18/118 3/19/119 68/103/5 67/102/2
f 3/19/119 4/20/120 69/104/7 68/103/5
f 4/20/120 5/21/121 70/105/9 69/104/7
f 5/21/121 6/22/122 71/106/11 70/105/9
f 6/22/122 7/23/123 72/107/13 71/106/11
f 7/23/123 8/24/124 73/108/15 72/107/13
f 8/24/124 9/25/125 74/109/17 73/108/15
f 9/25/125 10/26/126 75/110/19 74/109/17
f 10/26/126 11/27/127 76/111/21 75/110/19
f 11/27/127 12/28/128 77/112/23 76/111/21
f 12/28/128 13/29/129 78/113/25 77/112/23
f 13/29/129 14/30/130 79/114/27 78/113/25
f 14/30/130 15/31/131 80/115/29 79/114/27
f 15/31/131 16/32/132 81/116/31 80/115/29
f 16/32/132 1/33/117 66/100/1 81/116/31
s 3
f 50/84/133 51/85/134 82/117/51
f 82/117/51 51/85/134 52/86/135
f 82/117/51 52/86/135 53/87/136
f 82/117/51 53/87/136 54/88/137
f 82/117/51 54/88/137 55/89/138
f 82/117/51 55/89/138 56/90/139
f 82/117/51 56/90/139 57/91/140
f 82/117/51 57/91/140 58/92/52
f 60/94/141 82/117/51 59/93/50
f 61/95/142 82/117/51 60/94/141
f 62/96/143 82/117/51 61/95/142
f 63/97/144 82/117/51 62/96/143
f 64/98/145 82/117/51 63/97/144
f 65/99/146 82/117/51 64/98/145
f 50/84/133 82/117/51 65/99/146
