# This file uses centimeters as units for non-parametric coordinates.

v -1.098648 0.976875 1.185349
v 1.098648 0.976875 1.185349
v -1.098648 2.500000 1.185349
v 1.098648 2.500000 1.185349
v -0.324055 0.976875 1.185349
v -0.324055 2.500000 1.185349
v 0.324051 0.976875 1.185349
v 0.324051 2.500000 1.185349
v -1.098648 1.071312 1.185349
v -0.324055 1.071312 1.185349
v 0.324051 1.071312 1.185349
v 1.098648 1.071312 1.185349
v -1.098648 1.550095 1.185349
v -0.324055 1.550095 1.185349
v 0.324051 1.550095 1.185349
v 1.098648 1.550095 1.185349
v -1.098648 1.550095 1.173904
v -0.324055 1.550095 1.173904
v -0.324055 2.500000 1.173904
v -1.098648 2.500000 1.173889
v 0.324051 1.550095 1.173904
v 0.324051 2.500000 1.173904
v 1.098648 1.550095 1.173904
v 1.098648 2.500000 1.173889
v -1.098648 0.976875 1.173889
v -0.324055 0.976875 1.173904
v -0.324055 1.071312 1.173904
v -1.098648 1.071312 1.173904
v 0.324051 1.071312 1.173904
v 0.324051 0.976875 1.173904
v 1.098648 1.071312 1.173904
v 1.098648 0.976875 1.173889
vt 0.000000 0.000000
vt 1.000000 0.000000
vt 0.000000 1.000000
vt 1.000000 1.000000
vt 0.333333 0.000000
vt 0.333333 1.000000
vt 0.666667 0.000000
vt 0.666667 1.000000
vt 0.000000 0.333333
vt 0.333333 0.333333
vt 0.666667 0.333333
vt 1.000000 0.333333
vt 0.000000 0.666667
vt 0.333333 0.666667
vt 0.666667 0.666667
vt 1.000000 0.666667
vt 0.000000 0.666667
vt 0.333333 0.666667
vt 0.333333 1.000000
vt 0.000000 1.000000
vt 0.666667 0.666667
vt 0.666667 1.000000
vt 1.000000 0.666667
vt 1.000000 1.000000
vt 0.000000 0.000000
vt 0.333333 0.000000
vt 0.333333 0.333333
vt 0.000000 0.333333
vt 0.666667 0.333333
vt 0.666667 0.000000
vt 1.000000 0.333333
vt 1.000000 0.000000
vt 0.333333 1.000000
vt 0.000000 1.000000
vt 0.000000 0.666667
vt 0.333333 0.666667
vt 0.666667 0.666667
vt 0.666667 1.000000
vt 1.000000 0.666667
vt 1.000000 1.000000
vt 0.000000 0.000000
vt 0.333333 0.000000
vt 0.000000 0.333333
vt 0.666667 0.333333
vt 0.333333 0.333333
vt 0.666667 0.000000
vt 1.000000 0.000000
vt 1.000000 0.333333
vn -0.000010 0.000008 1.000000
vn -0.000010 0.000008 1.000000
vn -0.000010 0.000008 1.000000
vn -0.000010 0.000008 1.000000
vn 0.000000 0.000000 1.000000
vn 0.000000 0.000000 1.000000
vn 0.000000 0.000000 1.000000
vn 0.000000 0.000000 1.000000
vn 0.000010 0.000008 1.000000
vn 0.000010 0.000008 1.000000
vn 0.000010 0.000008 1.000000
vn 0.000010 0.000008 1.000000
vn -0.000010 -0.000081 1.000000
vn -0.000010 -0.000081 1.000000
vn -0.000010 -0.000081 1.000000
vn -0.000010 -0.000081 1.000000
vn 0.000000 0.000000 1.000000
vn 0.000000 0.000000 1.000000
vn 0.000000 0.000000 1.000000
vn 0.000000 0.000000 1.000000
vn 0.000010 -0.000081 1.000000
vn 0.000010 -0.000081 1.000000
vn 0.000010 -0.000081 1.000000
vn 0.000010 -0.000081 1.000000
vn 0.000000 0.000000 1.000000
vn 0.000000 0.000000 1.000000
vn 0.000000 0.000000 1.000000
vn 0.000000 0.000000 1.000000
vn 0.000000 0.000000 1.000000
vn 0.000000 0.000000 1.000000
vn 0.000000 0.000000 1.000000
vn 0.000000 0.000000 1.000000
vn 0.000000 0.000000 -1.000000
vn 0.000000 0.000000 -1.000000
vn 0.000000 0.000000 -1.000000
vn 0.000000 0.000000 -1.000000
vn 0.000000 0.000000 -1.000000
vn 0.000000 0.000000 -1.000000
vn 0.000000 0.000000 -1.000000
vn 0.000000 0.000000 -1.000000
vn 0.000000 0.000000 -1.000000
vn 0.000000 0.000000 -1.000000
vn 0.000000 0.000000 -1.000000
vn 0.000000 0.000000 -1.000000
vn 0.000000 0.000000 -1.000000
vn 0.000000 0.000000 -1.000000
vn 0.000000 0.000000 -1.000000
vn 0.000000 0.000000 -1.000000
vn 0.000000 0.000000 -1.000000
vn 0.000000 0.000000 -1.000000
vn 0.000000 0.000000 -1.000000
vn 0.000000 0.000000 -1.000000
vn 0.000000 0.000000 -1.000000
vn 0.000000 0.000000 -1.000000
vn 0.000000 0.000000 -1.000000
vn 0.000000 0.000000 -1.000000
vn 0.000000 0.000000 -1.000000
vn 0.000000 0.000000 -1.000000
vn 0.000000 0.000000 -1.000000
vn 0.000000 0.000000 -1.000000
vn 0.000000 0.000000 -1.000000
vn 0.000000 0.000000 -1.000000
vn 0.000000 0.000000 -1.000000
vn 0.000000 0.000000 -1.000000
vn 0.000000 -1.000000 0.000000
vn 0.000000 -1.000000 0.000000
vn 0.000000 -1.000000 0.000000
vn 0.000000 -1.000000 0.000000
vn 1.000000 0.000000 0.000000
vn 1.000000 0.000000 0.000000
vn 1.000000 0.000000 0.000000
vn 1.000000 0.000000 0.000000
vn 0.000000 1.000000 0.000000
vn 0.000000 1.000000 0.000000
vn 0.000000 1.000000 0.000000
vn 0.000000 1.000000 0.000000
vn 0.000000 -1.000000 0.000000
vn 0.000000 -1.000000 0.000000
vn -1.000000 0.000000 0.000000
vn -1.000000 0.000000 0.000000
vn -1.000000 0.000000 0.000000
vn -1.000000 0.000000 0.000000
vn 0.000000 -1.000000 0.000000
vn 0.000000 -1.000000 0.000000
vn 0.000000 1.000000 0.000000
vn 0.000000 1.000000 0.000000
vn 0.000000 1.000000 0.000000
vn 0.000000 1.000000 0.000000
vn 1.000000 0.000000 0.000000
vn 1.000000 0.000000 0.000000
vn 1.000000 0.000000 0.000000
vn 1.000000 0.000000 0.000000
vn 0.000000 -1.000000 0.000000
vn 0.000000 -1.000000 0.000000
vn 0.000000 -1.000000 0.000000
vn 0.000000 -1.000000 0.000000
vn 0.000000 1.000000 0.000000
vn 0.000000 1.000000 0.000000
vn 0.000000 1.000000 0.000000
vn 0.000000 1.000000 0.000000
vn -1.000000 0.000000 0.000000
vn -1.000000 0.000000 0.000000
vn -1.000000 0.000000 0.000000
vn -1.000000 0.000000 0.000000
vn -1.000000 0.000000 0.000000
vn -1.000000 0.000000 0.000000
vn -1.000000 0.000000 0.000000
vn -1.000000 0.000000 0.000000
vn 1.000000 0.000000 0.000000
vn 1.000000 0.000000 0.000000
vn 1.000000 0.000000 0.000000
vn 1.000000 0.000000 0.000000
vn 1.000000 0.000000 0.000000
vn 1.000000 0.000000 0.000000
vn -1.000000 0.000000 0.000000
vn -1.000000 0.000000 0.000000
s off
f 17/35/1 18/14/2 19/33/3 20/34/4
f 19/33/5 18/36/6 21/37/7 22/38/8
f 22/38/9 21/37/10 23/39/11 24/40/12
f 25/41/13 26/42/14 27/10/15 28/43/16
f 29/44/17 27/45/18 26/42/19 30/46/20
f 31/48/21 29/44/22 30/46/23 32/47/24
f 28/43/25 27/45/26 18/36/27 17/35/28
f 23/39/29 21/37/30 29/44/31 31/48/32
f 13/17/33 3/20/34 6/19/35 14/18/36
f 6/19/37 8/22/38 15/21/39 14/18/40
f 8/22/41 4/24/42 16/23/43 15/21/44
f 1/25/45 9/28/46 10/27/47 5/26/48
f 11/29/49 7/30/50 5/26/51 10/27/52
f 12/31/53 2/32/54 7/30/55 11/29/56
f 9/28/57 13/17/58 14/18/59 10/27/60
f 16/23/61 12/31/62 11/29/63 15/21/64
s 1
f 6/6/65 3/3/66 20/34/67 19/33/68
s 2
f 3/3/69 13/13/70 17/35/71 20/34/72
s off
f 14/14/73 15/15/74 21/37/75 18/36/76
s 1
f 8/8/77 6/6/65 19/33/68 22/38/78
s 3
f 16/16/79 4/4/80 24/40/81 23/39/82
s 1
f 4/4/83 8/8/77 22/38/78 24/40/84
s 4
f 1/1/85 5/5/86 26/42/87 25/41/88
s off
f 9/9/89 1/1/90 25/41/91 28/43/92
f 11/11/93 10/10/94 27/45/95 29/44/96
s 4
f 5/5/86 7/7/97 30/46/98 26/42/87
f 7/7/97 2/2/99 32/47/100 30/46/98
s off
f 2/2/101 12/12/102 31/48/103 32/47/104
f 10/10/105 14/14/106 18/36/107 27/45/108
s 2
f 13/13/70 9/9/109 28/43/110 17/35/71
s off
f 15/15/111 11/11/112 29/44/113 21/37/114
s 3
f 12/12/115 16/16/79 23/39/82 31/48/116
