# This file uses centimeters as units for non-parametric coordinates.

v 1.098648 2.289459 1.110001
v 1.098648 2.500000 1.110001
v -1.098648 2.289459 1.110001
v -1.098648 2.500000 1.110001
v 1.098648 2.500000 1.209999
v -1.098648 2.500000 1.209999
v 1.098648 2.289459 1.209999
v -1.098648 2.289459 1.209999
v 1.098648 0.000000 1.110001
v 1.098648 1.099998 1.110001
v -1.098648 0.000000 1.110001
v -1.098648 1.099998 1.110001
v 1.098648 1.099998 1.209999
v -1.098648 1.099998 1.209999
v 1.098648 0.000000 1.209999
v -1.098648 0.000000 1.209999
v 1.016151 2.500000 1.110001
v 1.016151 2.289459 1.110001
v 1.016151 2.289459 1.209999
v 1.016151 2.500000 1.209999
v -1.016151 2.500000 1.110001
v -1.016151 2.289459 1.110001
v -1.016151 2.289459 1.209999
v -1.016151 2.500000 1.209999
v 1.016151 1.099998 1.110001
v 1.016151 0.000000 1.110001
v 1.016151 0.000000 1.209999
v 1.016151 1.099998 1.209999
v -1.016151 1.099998 1.110001
v -1.016151 0.000000 1.110001
v -1.016151 0.000000 1.209999
v -1.016151 1.099998 1.209999
v 0.609688 2.289459 1.110001
v 0.609688 2.289459 1.209999
v 0.609688 2.500000 1.209999
v 0.609688 2.500000 1.110001
v 0.518631 2.289459 1.110001
v 0.518631 2.289459 1.209999
v 0.518631 2.500000 1.209999
v 0.518631 2.500000 1.110001
v -0.518631 2.289459 1.110001
v -0.518631 2.289459 1.209999
v -0.518631 2.500000 1.209999
v -0.518631 2.500000 1.110001
v -0.609688 2.289459 1.110001
v -0.609688 2.289459 1.209999
v -0.609688 2.500000 1.209999
v -0.609688 2.500000 1.110001
v 0.609688 0.000000 1.110001
v 0.609688 0.000000 1.209999
v 0.609688 1.099998 1.209999
v 0.609688 1.099998 1.110001
v 0.518631 0.000000 1.110001
v 0.518631 0.000000 1.209999
v 0.518631 1.099998 1.209999
v 0.518631 1.099998 1.110001
v -0.518631 0.000000 1.110001
v -0.518631 0.000000 1.209999
v -0.518631 1.099998 1.209999
v -0.518631 1.099998 1.110001
v -0.609688 0.000000 1.110001
v -0.609688 0.000000 1.209999
v -0.609688 1.099998 1.209999
v -0.609688 1.099998 1.110001
v 1.016151 1.916336 1.110001
v 1.016151 1.916336 1.209999
v 1.098648 1.916336 1.209999
v 1.098648 1.916336 1.110001
v 1.016151 1.863251 1.110001
v 1.016151 1.863251 1.209999
v 1.098648 1.863251 1.209999
v 1.098648 1.863251 1.110001
v -1.098648 1.916336 1.209999
v -1.016151 1.916336 1.209999
v -1.016151 1.916336 1.110001
v -1.098648 1.916336 1.110001
v -1.098648 1.863251 1.209999
v -1.016151 1.863251 1.209999
v -1.016151 1.863251 1.110001
v -1.098648 1.863251 1.110001
v 0.518631 1.916336 1.110001
v 0.518631 1.916336 1.209999
v 0.609688 1.916336 1.209999
v 0.609688 1.916336 1.110001
v 0.518631 1.863251 1.110001
v 0.518631 1.863251 1.209999
v 0.609688 1.863251 1.209999
v 0.609688 1.863251 1.110001
v -0.609688 1.916336 1.110001
v -0.609688 1.916336 1.209999
v -0.518631 1.916336 1.209999
v -0.518631 1.916336 1.110001
v -0.609688 1.863251 1.110001
v -0.609688 1.863251 1.209999
v -0.518631 1.863251 1.209999
v -0.518631 1.863251 1.110001
vt 0.000000 0.000000
vt 1.000000 0.000000
vt 0.000000 1.000000
vt 1.000000 1.000000
vt 1.000000 1.000000
vt 1.000000 0.000000
vt 0.000000 0.000000
vt 0.000000 1.000000
vt 1.000000 1.000000
vt 1.000000 0.000000
vt 0.000000 0.000000
vt 0.000000 1.000000
vt 1.000000 1.000000
vt 0.000000 1.000000
vt 0.000000 0.000000
vt 1.000000 0.000000
vt 1.000000 1.000000
vt 1.000000 0.000000
vt 0.000000 0.000000
vt 0.000000 1.000000
vt 1.000000 1.000000
vt 1.000000 0.000000
vt 0.000000 0.000000
vt 0.000000 1.000000
vt 1.000000 0.250000
vt 1.000000 0.250000
vt 0.000000 0.250000
vt 0.000000 0.250000
vt 0.000000 0.250000
vt 1.000000 0.250000
vt 1.000000 0.750000
vt 1.000000 0.750000
vt 0.000000 0.750000
vt 0.000000 0.750000
vt 0.000000 0.750000
vt 1.000000 0.750000
vt 1.000000 0.250000
vt 1.000000 0.250000
vt 0.000000 0.250000
vt 0.000000 0.250000
vt 0.000000 0.250000
vt 1.000000 0.250000
vt 1.000000 0.750000
vt 1.000000 0.750000
vt 0.000000 0.750000
vt 0.000000 0.750000
vt 0.000000 0.750000
vt 1.000000 0.750000
vt 0.000000 0.350000
vt 0.000000 0.350000
vt 0.000000 0.350000
vt 1.000000 0.350000
vt 1.000000 0.350000
vt 1.000000 0.350000
vt 0.000000 0.450000
vt 0.000000 0.450000
vt 0.000000 0.450000
vt 1.000000 0.450000
vt 1.000000 0.450000
vt 1.000000 0.450000
vt 0.000000 0.550000
vt 0.000000 0.550000
vt 0.000000 0.550000
vt 1.000000 0.550000
vt 1.000000 0.550000
vt 1.000000 0.550000
vt 0.000000 0.650000
vt 0.000000 0.650000
vt 0.000000 0.650000
vt 1.000000 0.650000
vt 1.000000 0.650000
vt 1.000000 0.650000
vt 0.000000 0.350000
vt 0.000000 0.350000
vt 0.000000 0.350000
vt 1.000000 0.350000
vt 1.000000 0.350000
vt 1.000000 0.350000
vt 0.000000 0.450000
vt 0.000000 0.450000
vt 0.000000 0.450000
vt 1.000000 0.450000
vt 1.000000 0.450000
vt 1.000000 0.450000
vt 0.000000 0.550000
vt 0.000000 0.550000
vt 0.000000 0.550000
vt 1.000000 0.550000
vt 1.000000 0.550000
vt 1.000000 0.550000
vt 0.000000 0.650000
vt 0.000000 0.650000
vt 0.000000 0.650000
vt 1.000000 0.650000
vt 1.000000 0.650000
vt 1.000000 0.650000
vt 0.142857 0.250000
vt 0.142857 0.250000
vt 0.142857 0.250000
vt 0.142857 0.000000
vt 0.142857 0.000000
vt 0.142857 0.000000
vt 0.285714 0.250000
vt 0.285714 0.250000
vt 0.285714 0.250000
vt 0.285714 0.000000
vt 0.285714 0.000000
vt 0.285714 0.000000
vt 0.142857 1.000000
vt 0.142857 0.750000
vt 0.142857 0.750000
vt 0.142857 0.750000
vt 0.142857 1.000000
vt 0.142857 1.000000
vt 0.285714 1.000000
vt 0.285714 0.750000
vt 0.285714 0.750000
vt 0.285714 0.750000
vt 0.285714 1.000000
vt 0.285714 1.000000
vt 0.142857 0.450000
vt 0.142857 0.450000
vt 0.142857 0.450000
vt 0.142857 0.350000
vt 0.142857 0.350000
vt 0.142857 0.350000
vt 0.285714 0.450000
vt 0.285714 0.450000
vt 0.285714 0.450000
vt 0.285714 0.350000
vt 0.285714 0.350000
vt 0.285714 0.350000
vt 0.142857 0.650000
vt 0.142857 0.650000
vt 0.142857 0.650000
vt 0.142857 0.550000
vt 0.142857 0.550000
vt 0.142857 0.550000
vt 0.285714 0.650000
vt 0.285714 0.650000
vt 0.285714 0.650000
vt 0.285714 0.550000
vt 0.285714 0.550000
vt 0.285714 0.550000
vn 0.000000 0.000000 1.000000
vn 0.000000 0.000000 1.000000
vn 0.000000 0.000000 1.000000
vn 0.000000 0.000000 1.000000
vn 0.000000 0.000000 -1.000000
vn 0.000000 0.000000 -1.000000
vn 0.000000 0.000000 -1.000000
vn 0.000000 0.000000 -1.000000
vn 0.000000 1.000000 0.000000
vn 0.000000 1.000000 0.000000
vn 0.000000 1.000000 0.000000
vn 0.000000 1.000000 0.000000
vn 1.000000 0.000000 0.000000
vn 1.000000 0.000000 0.000000
vn 1.000000 0.000000 0.000000
vn 1.000000 0.000000 0.000000
vn -1.000000 0.000000 0.000000
vn -1.000000 0.000000 0.000000
vn -1.000000 0.000000 0.000000
vn -1.000000 0.000000 0.000000
vn 0.000000 0.000000 1.000000
vn 0.000000 0.000000 1.000000
vn 0.000000 0.000000 1.000000
vn 0.000000 0.000000 1.000000
vn 0.000000 0.000000 -1.000000
vn 0.000000 0.000000 -1.000000
vn 0.000000 0.000000 -1.000000
vn 0.000000 0.000000 -1.000000
vn 1.000000 0.000000 0.000000
vn 1.000000 0.000000 0.000000
vn 1.000000 0.000000 0.000000
vn 1.000000 0.000000 0.000000
vn 0.000000 -1.000000 0.000000
vn 0.000000 -1.000000 0.000000
vn 0.000000 -1.000000 0.000000
vn 0.000000 -1.000000 0.000000
vn -1.000000 0.000000 0.000000
vn -1.000000 0.000000 0.000000
vn -1.000000 0.000000 0.000000
vn -1.000000 0.000000 0.000000
vn 0.000000 0.000000 -1.000000
vn 0.000000 0.000000 -1.000000
vn 0.000000 0.000000 -1.000000
vn 0.000000 0.000000 -1.000000
vn 0.000000 0.000000 1.000000
vn 0.000000 0.000000 1.000000
vn 0.000000 0.000000 1.000000
vn 0.000000 0.000000 1.000000
vn 0.000000 1.000000 0.000000
vn 0.000000 1.000000 0.000000
vn 0.000000 1.000000 0.000000
vn 0.000000 1.000000 0.000000
vn 0.000000 0.000000 -1.000000
vn 0.000000 0.000000 -1.000000
vn 0.000000 -1.000000 0.000000
vn 0.000000 -1.000000 0.000000
vn 0.000000 -1.000000 0.000000
vn 0.000000 -1.000000 0.000000
vn 0.000000 0.000000 1.000000
vn 0.000000 0.000000 1.000000
vn 0.000000 1.000000 0.000000
vn 0.000000 1.000000 0.000000
vn 0.000000 0.000000 -1.000000
vn 0.000000 0.000000 -1.000000
vn 0.000000 0.000000 -1.000000
vn 0.000000 0.000000 -1.000000
vn 0.000000 -1.000000 0.000000
vn 0.000000 -1.000000 0.000000
vn 0.000000 -1.000000 0.000000
vn 0.000000 -1.000000 0.000000
vn 0.000000 0.000000 1.000000
vn 0.000000 0.000000 1.000000
vn 0.000000 0.000000 1.000000
vn 0.000000 0.000000 1.000000
vn 0.000000 0.000000 -1.000000
vn 0.000000 0.000000 -1.000000
vn 0.000000 -1.000000 0.000000
vn 0.000000 -1.000000 0.000000
vn 0.000000 0.000000 1.000000
vn 0.000000 0.000000 1.000000
vn 0.000000 1.000000 0.000000
vn 0.000000 1.000000 0.000000
vn 0.000000 1.000000 0.000000
vn 0.000000 1.000000 0.000000
vn 0.000000 0.000000 -1.000000
vn 0.000000 0.000000 -1.000000
vn 0.000000 0.000000 -1.000000
vn 0.000000 0.000000 -1.000000
vn 1.000000 0.000000 0.000000
vn 1.000000 0.000000 0.000000
vn 1.000000 0.000000 0.000000
vn 1.000000 0.000000 0.000000
vn 0.000000 0.000000 1.000000
vn 0.000000 0.000000 1.000000
vn 0.000000 0.000000 1.000000
vn 0.000000 0.000000 1.000000
vn -1.000000 0.000000 0.000000
vn -1.000000 0.000000 0.000000
vn -1.000000 0.000000 0.000000
vn -1.000000 0.000000 0.000000
vn -1.000000 0.000000 0.000000
vn -1.000000 0.000000 0.000000
vn -1.000000 0.000000 0.000000
vn -1.000000 0.000000 0.000000
vn 0.000000 0.000000 -1.000000
vn 0.000000 0.000000 -1.000000
vn 0.000000 0.000000 -1.000000
vn 0.000000 0.000000 -1.000000
vn 1.000000 0.000000 0.000000
vn 1.000000 0.000000 0.000000
vn 1.000000 0.000000 0.000000
vn 1.000000 0.000000 0.000000
vn 0.000000 0.000000 1.000000
vn 0.000000 0.000000 1.000000
vn 0.000000 0.000000 1.000000
vn 0.000000 0.000000 1.000000
vn 0.000000 -1.000000 0.000000
vn 0.000000 -1.000000 0.000000
vn 0.000000 -1.000000 0.000000
vn 0.000000 -1.000000 0.000000
vn 0.000000 0.000000 1.000000
vn 0.000000 0.000000 1.000000
vn 0.000000 1.000000 0.000000
vn 0.000000 1.000000 0.000000
vn 0.000000 0.000000 -1.000000
vn 0.000000 0.000000 -1.000000
vn 0.000000 0.000000 1.000000
vn 0.000000 0.000000 1.000000
vn 0.000000 1.000000 0.000000
vn 0.000000 1.000000 0.000000
vn 0.000000 0.000000 -1.000000
vn 0.000000 0.000000 -1.000000
vn 0.000000 -1.000000 0.000000
vn 0.000000 -1.000000 0.000000
vn 0.000000 -1.000000 0.000000
vn 0.000000 -1.000000 0.000000
vn 0.000000 0.000000 1.000000
vn 0.000000 0.000000 1.000000
vn 0.000000 1.000000 0.000000
vn 0.000000 1.000000 0.000000
vn 0.000000 0.000000 -1.000000
vn 0.000000 0.000000 -1.000000
vn 0.000000 -1.000000 0.000000
vn 0.000000 -1.000000 0.000000
vn 0.000000 0.000000 1.000000
vn 0.000000 0.000000 1.000000
vn 0.000000 1.000000 0.000000
vn 0.000000 1.000000 0.000000
vn 0.000000 1.000000 0.000000
vn 0.000000 1.000000 0.000000
vn 0.000000 0.000000 -1.000000
vn 0.000000 0.000000 -1.000000
vn 0.000000 -1.000000 0.000000
vn 0.000000 -1.000000 0.000000
vn 0.000000 0.000000 1.000000
vn 0.000000 0.000000 1.000000
vn 0.000000 0.000000 -1.000000
vn 0.000000 0.000000 -1.000000
vn 0.000000 -1.000000 0.000000
vn 0.000000 -1.000000 0.000000
vn 0.000000 0.000000 1.000000
vn 0.000000 0.000000 1.000000
vn 0.000000 1.000000 0.000000
vn 0.000000 1.000000 0.000000
vn 0.000000 1.000000 0.000000
vn 0.000000 1.000000 0.000000
vn 0.000000 0.000000 -1.000000
vn 0.000000 0.000000 -1.000000
vn 0.000000 0.000000 -1.000000
vn 0.000000 0.000000 -1.000000
vn 0.000000 0.000000 -1.000000
vn 0.000000 0.000000 -1.000000
vn 1.000000 0.000000 0.000000
vn 1.000000 0.000000 0.000000
vn 1.000000 0.000000 0.000000
vn 1.000000 0.000000 0.000000
vn 0.000000 0.000000 1.000000
vn 0.000000 0.000000 1.000000
vn 0.000000 0.000000 1.000000
vn 0.000000 0.000000 1.000000
vn -1.000000 0.000000 0.000000
vn -1.000000 0.000000 0.000000
vn -1.000000 0.000000 0.000000
vn -1.000000 0.000000 0.000000
vn 0.000000 0.000000 -1.000000
vn 0.000000 0.000000 -1.000000
vn 0.000000 0.000000 -1.000000
vn 0.000000 0.000000 -1.000000
vn 1.000000 0.000000 0.000000
vn 1.000000 0.000000 0.000000
vn 1.000000 0.000000 0.000000
vn 1.000000 0.000000 0.000000
vn 0.000000 0.000000 1.000000
vn 0.000000 0.000000 1.000000
vn 0.000000 0.000000 1.000000
vn 0.000000 0.000000 1.000000
vn -1.000000 0.000000 0.000000
vn -1.000000 0.000000 0.000000
vn -1.000000 0.000000 0.000000
vn -1.000000 0.000000 0.000000
vn 0.000000 0.000000 1.000000
vn 0.000000 0.000000 1.000000
vn 1.000000 0.000000 0.000000
vn 1.000000 0.000000 0.000000
vn 0.000000 0.000000 -1.000000
vn 0.000000 0.000000 -1.000000
vn -1.000000 0.000000 0.000000
vn -1.000000 0.000000 0.000000
vn -1.000000 0.000000 0.000000
vn -1.000000 0.000000 0.000000
vn 0.000000 0.000000 1.000000
vn 0.000000 0.000000 1.000000
vn 1.000000 0.000000 0.000000
vn 1.000000 0.000000 0.000000
vn 0.000000 0.000000 -1.000000
vn 0.000000 0.000000 -1.000000
vn 0.000000 0.000000 1.000000
vn 0.000000 0.000000 1.000000
vn 0.000000 0.000000 -1.000000
vn 0.000000 0.000000 -1.000000
vn -1.000000 0.000000 0.000000
vn -1.000000 0.000000 0.000000
vn 0.000000 0.000000 1.000000
vn 0.000000 0.000000 1.000000
vn 1.000000 0.000000 0.000000
vn 1.000000 0.000000 0.000000
vn 1.000000 0.000000 0.000000
vn 1.000000 0.000000 0.000000
vn 0.000000 0.000000 -1.000000
vn 0.000000 0.000000 -1.000000
vn -1.000000 0.000000 0.000000
vn -1.000000 0.000000 0.000000
vn 0.000000 0.000000 1.000000
vn 0.000000 0.000000 1.000000
vn 0.000000 0.000000 -1.000000
vn 0.000000 0.000000 -1.000000
vn -1.000000 0.000000 0.000000
vn -1.000000 0.000000 0.000000
vn -1.000000 0.000000 0.000000
vn -1.000000 0.000000 0.000000
vn 0.000000 0.000000 1.000000
vn 0.000000 0.000000 1.000000
vn 1.000000 0.000000 0.000000
vn 1.000000 0.000000 0.000000
vn 1.000000 0.000000 0.000000
vn 1.000000 0.000000 0.000000
vn 0.000000 0.000000 -1.000000
vn 0.000000 0.000000 -1.000000
vn 0.000000 0.000000 1.000000
vn 0.000000 0.000000 1.000000
vn 0.000000 0.000000 -1.000000
vn 0.000000 0.000000 -1.000000
vn -1.000000 0.000000 0.000000
vn -1.000000 0.000000 0.000000
vn -1.000000 0.000000 0.000000
vn -1.000000 0.000000 0.000000
vn 0.000000 0.000000 1.000000
vn 0.000000 0.000000 1.000000
vn 1.000000 0.000000 0.000000
vn 1.000000 0.000000 0.000000
vn 1.000000 0.000000 0.000000
vn 1.000000 0.000000 0.000000
vn 0.000000 0.000000 -1.000000
vn 0.000000 0.000000 -1.000000
vn 0.000000 -1.000000 0.000000
vn 0.000000 -1.000000 0.000000
vn 0.000000 -1.000000 0.000000
vn 0.000000 -1.000000 0.000000
vn 0.000000 0.000000 1.000000
vn 0.000000 0.000000 1.000000
vn 0.000000 0.000000 1.000000
vn 0.000000 0.000000 1.000000
vn 0.000000 1.000000 0.000000
vn 0.000000 1.000000 0.000000
vn 0.000000 1.000000 0.000000
vn 0.000000 1.000000 0.000000
vn 0.000000 0.000000 -1.000000
vn 0.000000 0.000000 -1.000000
vn 0.000000 0.000000 -1.000000
vn 0.000000 0.000000 -1.000000
vn 0.000000 -1.000000 0.000000
vn 0.000000 -1.000000 0.000000
vn 0.000000 -1.000000 0.000000
vn 0.000000 -1.000000 0.000000
vn 0.000000 0.000000 1.000000
vn 0.000000 0.000000 1.000000
vn 0.000000 0.000000 1.000000
vn 0.000000 0.000000 1.000000
vn 0.000000 1.000000 0.000000
vn 0.000000 1.000000 0.000000
vn 0.000000 1.000000 0.000000
vn 0.000000 1.000000 0.000000
vn 0.000000 0.000000 -1.000000
vn 0.000000 0.000000 -1.000000
vn 0.000000 0.000000 -1.000000
vn 0.000000 0.000000 -1.000000
vn 0.000000 -1.000000 0.000000
vn 0.000000 -1.000000 0.000000
vn 0.000000 -1.000000 0.000000
vn 0.000000 -1.000000 0.000000
vn 0.000000 0.000000 -1.000000
vn 0.000000 0.000000 -1.000000
vn 0.000000 0.000000 -1.000000
vn 0.000000 0.000000 -1.000000
vn 0.000000 1.000000 0.000000
vn 0.000000 1.000000 0.000000
vn 0.000000 1.000000 0.000000
vn 0.000000 1.000000 0.000000
vn 0.000000 0.000000 1.000000
vn 0.000000 0.000000 1.000000
vn 0.000000 0.000000 1.000000
vn 0.000000 0.000000 1.000000
s 1
f 6/9/1 8/12/2 23/35/3 24/36/4
s 2
f 4/5/5 21/32/6 22/33/7 3/8/8
s 3
f 4/4/9 6/9/10 24/36/11 21/31/12
s off
f 2/2/13 5/10/14 7/11/15 1/1/16
f 3/3/17 8/12/18 6/9/19 4/4/20
s 4
f 14/13/21 16/14/22 31/47/23 32/48/24
s 5
f 12/17/25 29/44/26 30/45/27 11/20/28
s off
f 10/22/29 13/16/30 15/15/31 9/23/32
s 6
f 30/46/33 31/47/34 16/14/35 11/24/36
s off
f 11/24/37 16/14/38 14/13/39 12/21/40
s 2
f 18/27/41 17/26/42 2/6/43 1/7/44
s 1
f 20/30/45 19/29/46 7/11/47 5/10/48
s 3
f 17/25/49 20/30/50 5/10/51 2/2/52
s 2
f 22/33/7 21/32/6 48/72/53 45/67/54
s off
f 23/35/55 22/34/56 45/68/57 46/69/58
s 1
f 24/36/4 23/35/3 46/69/59 47/70/60
s 3
f 47/70/61 48/71/62 21/31/12 24/36/11
s 5
f 26/39/63 25/38/64 10/18/65 9/19/66
s 6
f 9/23/67 15/15/68 27/41/69 26/40/70
s 4
f 28/42/71 27/41/72 15/15/73 13/16/74
s 5
f 30/45/27 29/44/26 64/96/75 61/91/76
s 6
f 31/47/34 30/46/33 61/92/77 62/93/78
s 4
f 32/48/24 31/47/23 62/93/79 63/94/80
s off
f 63/94/81 64/95/82 29/43/83 32/48/84
s 13
f 18/27/85 1/7/86 68/101/87 65/98/88
s 14
f 1/1/89 7/11/90 67/100/91 68/102/92
s 15
f 7/11/93 19/29/94 66/99/95 67/100/96
s off
f 19/29/97 18/28/98 65/97/99 66/99/100
s 16
f 8/12/101 3/3/102 76/113/103 73/109/104
s 17
f 3/8/105 22/33/106 75/111/107 76/114/108
s off
f 22/34/109 23/35/110 74/110/111 75/112/112
s 18
f 23/35/113 8/12/114 73/109/115 74/110/116
s off
f 34/51/117 33/50/118 18/28/119 19/29/120
s 1
f 35/52/121 34/51/122 19/29/46 20/30/45
s 3
f 17/25/49 36/53/123 35/52/124 20/30/50
s 2
f 33/49/125 36/54/126 17/26/42 18/27/41
s 1
f 39/58/127 38/57/128 34/51/122 35/52/121
s 3
f 35/52/124 36/53/123 40/59/129 39/58/130
s 2
f 37/55/131 40/60/132 36/54/126 33/49/125
s off
f 42/63/133 41/62/134 37/56/135 38/57/136
s 1
f 43/64/137 42/63/138 38/57/128 39/58/127
s 3
f 39/58/130 40/59/129 44/65/139 43/64/140
s 2
f 41/61/141 44/66/142 40/60/132 37/55/131
s 1
f 47/70/60 46/69/59 42/63/138 43/64/137
s 3
f 43/64/140 44/65/139 48/71/62 47/70/61
s 2
f 45/67/54 48/72/53 44/66/142 41/61/141
s 6
f 50/75/143 49/74/144 26/40/70 27/41/69
s 4
f 51/76/145 50/75/146 27/41/72 28/42/71
s off
f 25/37/147 52/77/148 51/76/149 28/42/150
s 5
f 49/73/151 52/78/152 25/38/64 26/39/63
s 6
f 54/81/153 53/80/154 49/74/144 50/75/143
s 4
f 55/82/155 54/81/156 50/75/146 51/76/145
s 5
f 53/79/157 56/84/158 52/78/152 49/73/151
s 6
f 58/87/159 57/86/160 53/80/154 54/81/153
s 4
f 59/88/161 58/87/162 54/81/156 55/82/155
s off
f 55/82/163 56/83/164 60/89/165 59/88/166
s 5
f 57/85/167 60/90/168 56/84/158 53/79/157
s 6
f 62/93/78 61/92/77 57/86/160 58/87/159
s 4
f 63/94/80 62/93/79 58/87/162 59/88/161
s 5
f 61/91/76 64/96/75 60/90/168 57/85/167
s 19
f 37/55/169 33/49/170 84/125/171 81/122/172
s off
f 33/50/173 34/51/174 83/124/175 84/126/176
s 20
f 34/51/177 38/57/178 82/123/179 83/124/180
s off
f 38/57/181 37/56/182 81/121/183 82/123/184
s 21
f 45/67/185 41/61/186 92/137/187 89/134/188
s off
f 41/62/189 42/63/190 91/136/191 92/138/192
s 22
f 42/63/193 46/69/194 90/135/195 91/136/196
s off
f 46/69/197 45/68/198 89/133/199 90/135/200
s 15
f 67/100/96 66/99/95 70/105/201 71/106/202
s 14
f 68/102/92 67/100/91 71/106/203 72/108/204
s 13
f 65/98/88 68/101/87 72/107/205 69/104/206
s off
f 70/105/207 69/103/208 25/37/209 28/42/210
s 15
f 71/106/202 70/105/201 28/42/211 13/16/212
s 14
f 72/108/204 71/106/203 13/16/213 10/22/214
s 13
f 25/38/215 69/104/206 72/107/205 10/18/216
s 18
f 74/110/116 73/109/115 77/115/217 78/116/218
s 17
f 76/114/108 75/111/107 79/117/219 80/120/220
s 16
f 73/109/104 76/113/103 80/119/221 77/115/222
s 18
f 78/116/218 77/115/217 14/13/223 32/48/224
s off
f 79/118/225 78/116/226 32/48/227 29/43/228
s 17
f 80/120/220 79/117/219 29/44/229 12/17/230
s 16
f 14/13/231 77/115/222 80/119/221 12/21/232
s 20
f 83/124/180 82/123/179 86/129/233 87/130/234
s 19
f 81/122/172 84/125/171 88/131/235 85/128/236
s off
f 86/129/237 85/127/238 56/83/239 55/82/240
s 20
f 87/130/234 86/129/233 55/82/241 51/76/242
s off
f 88/132/243 87/130/244 51/76/245 52/77/246
s 19
f 56/84/247 85/128/236 88/131/235 52/78/248
s 22
f 91/136/196 90/135/195 94/141/249 95/142/250
s 21
f 89/134/188 92/137/187 96/143/251 93/140/252
s off
f 94/141/253 93/139/254 64/95/255 63/94/256
s 22
f 95/142/250 94/141/249 63/94/257 59/88/258
s off
f 96/144/259 95/142/260 59/88/261 60/89/262
s 21
f 64/96/263 93/140/252 96/143/251 60/90/264
s off
f 69/103/265 70/105/266 87/130/267 88/132/268
f 70/105/269 66/99/270 83/124/271 87/130/272
f 66/99/273 65/97/274 84/126/275 83/124/276
f 65/98/277 69/104/278 88/131/279 84/125/280
f 85/127/281 86/129/282 95/142/283 96/144/284
f 86/129/285 82/123/286 91/136/287 95/142/288
f 82/123/289 81/121/290 92/138/291 91/136/292
f 81/122/293 85/128/294 96/143/295 92/137/296
f 78/116/297 79/118/298 93/139/299 94/141/300
f 79/117/301 75/111/302 89/134/303 93/140/304
f 75/112/305 74/110/306 90/135/307 89/133/308
f 74/110/309 78/116/310 94/141/311 90/135/312
